<svg viewBox="0 0 144 144" xmlns="http://www.w3.org/2000/svg"><path d="m0 0h144v144h-144z" fill="#fff"/><path d="m76.57 57.35q.2-6.68-9.63-7.65l4.86-10.3a2.94 2.94 0 0 1 3.63-1.4l7.87 4a2.66 2.66 0 0 1 1.16 1.8 2.74 2.74 0 0 1 -.53 2.07l-5.78 10.13a3.12 3.12 0 0 1 -1.58 1.35m20.88-2.05-11.61 16.34a3.94 3.94 0 0 1 -4.3 1.89l-6.9-2c-1.64-.43-1.64-1.76-.91-3.06l12.59-21a2.93 2.93 0 0 1 4-1.12l6.35 5a2.91 2.91 0 0 1 .78 3.95zm10 11.7-13.79 11.76a2.28 2.28 0 0 1 -2.61.12l-3.21-2.51c-.92-.73-.42-2 .13-2.72l11.26-16c.64-.9 2.26-1.34 3.07-.47l5.23 5.49a3 3 0 0 1 -.07 4.33zm29.05 6.51a64.51 64.51 0 1 0 -84.05 61.49l4.36-34.21a3 3 0 0 0 -.79-2.7l-19.31-19.36a5.11 5.11 0 0 1 -.94-4.57l7.29-22.87a4.76 4.76 0 0 1 5.15-2.69l20.62 4.33c2.41.5 4.28 1 5 3.8 1 3.86-3 6.83-6 8.31-5.08 2.5-10.44 2-13.61-3.21q3.19 6.48-2.31 9.43 17.09 1.17 27.33 19.44c.91 1.62 2.37 4.59 1.17 6.3-1 1.43-3.39.16-5.31 1.13-1.68.85-1 2.66-.14 4.92l4.55 12.15q-1.64-11.36-1.64-11.35c-.17-1.53.07-2.54.71-3 1.34-1 4.77.9 5.79-2.33 1.16-3.72-2.77-10.52-4.89-13.32a42.54 42.54 0 0 0 -11.13-10l2.65-2.4c3.24 2.21 7.77 3.45 13.83 3.51a1.61 1.61 0 0 0 .73 1.83l4.65 3.66a3.85 3.85 0 0 0 4.73-.4l10.06-8.6q.77 13.5-4.48 21.29c-2 3-5.7 5.18-7.14 7.57-1 1.69-.61 3.71-.51 5.62.35 6.9 2 18.31 3.2 26.11a64.52 64.52 0 0 0 40.44-59.88zm-54.5-56.51a65.8 65.8 0 0 1 47.08 62c.17-1.82.26-3.66.26-5.52a57.38 57.38 0 0 0 -47.34-56.48zm-13 21.9-4.41 8.68a3.52 3.52 0 0 1 -3.16 1.34l-9-2.42a2.49 2.49 0 0 1 -1.09-3.34l4.38-8.93a3.29 3.29 0 0 1 3.69-1l8 2.54a2.6 2.6 0 0 1 1.59 3.13z" fill="#d83229" fill-rule="evenodd"/></svg>