<?xml version="1.0" encoding="utf-8"?>
<!-- Generator: Adobe Illustrator 24.2.3, SVG Export Plug-In . SVG Version: 6.00 Build 0)  -->
<svg version="1.1" id="Layer_1" xmlns="http://www.w3.org/2000/svg" xmlns:xlink="http://www.w3.org/1999/xlink" x="0px" y="0px"
	 viewBox="0 0 1024 1024" style="enable-background:new 0 0 1024 1024;" xml:space="preserve">
<style type="text/css">
	.st0{fill:url(#SVGID_1_);}
	.st1{fill:#FFFFFF;}
	.st2{opacity:0.7;fill:#FFFFFF;}
</style>
<g>
	<linearGradient id="SVGID_1_" gradientUnits="userSpaceOnUse" x1="1006.8107" y1="1006.8107" x2="20.1487" y2="20.1487">
		<stop  offset="0" style="stop-color:#01549E"/>
		<stop  offset="1" style="stop-color:#AB5299"/>
	</linearGradient>
	<rect class="st0" width="1024" height="1024"/>
	<g>
		<g>
			<path class="st1" d="M763.3,518.2C759,423,714.6,368.6,675,335.4c-40.8-34.2-100.8-67.5-195.3-55.2
				c-177.2,23.1-113.2,113.5-113.2,113.5c106.4-21.2,176.9,16.9,216.5,51.4c40.8,33.1,90.6,95.8,88.2,204.3
				C671.1,649.4,771.3,696.7,763.3,518.2z"/>
			<path class="st1" d="M729.7,314.1c-10,11.9-59,50.7-70.9,40.7c-11.9-10,17.7-65,27.7-76.9c10-11.9,27.8-13.5,39.7-3.5
				C738.1,284.4,739.7,302.2,729.7,314.1z"/>
			<path class="st2" d="M599.1,724.7c24-18.1,46-38.5,64.4-63.2c3-4,5.6-7.9,7.9-12c-0.2-0.1-0.4-0.2-0.4-0.2
				c2.4-108.5-47.4-171.3-88.2-204.3c-39.6-34.5-110.1-72.6-216.5-51.4c0,0-0.1-0.1-0.2-0.3c-3.6,3-7,6.3-10.4,9.9
				c-41.1,43.6-64.2,98-84.2,153.6c-12,33.3-9.9,65.4,3.8,97.3c7,16.3,14.3,32.4,21,48.8c8.6,20.7,8.8,42.7,9.2,64.6
				c0,0,0,0.1,0,0.1c0.1,4,3.7,7,7.7,6.4c0,0,0.1,0,0.1,0c21.7-3.4,43.4-7,65.3-2.1c17.3,3.8,34.5,8.2,51.7,12.2
				c33.8,7.9,65.8,4.4,96.5-13.2C533.8,767.2,599.1,724.7,599.1,724.7z"/>
		</g>
	</g>
</g>
</svg>
