<svg viewBox="0 0 1024 1024" xmlns="http://www.w3.org/2000/svg"><path d="m0 0h1024v1024h-1024z" fill="#01549e"/><g fill="#fff"><path d="m809.15 494.45c-8.4-113.84-63.46-177.32-112-215.72-50-39.56-123-77.36-235.7-59.35-211.33 33.77-131.59 139.78-131.59 139.78 126.68-29.07 212.29 14.14 260.92 54 50 38.15 111.77 111.52 112.62 241.49 0 .03 121.52 53.23 105.75-160.2z"/><path d="m761.89 251.32c-11.57 14.62-68.89 62.68-83.5 51.13s19-78.4 30.55-93a33.76 33.76 0 0 1 52.95 41.89z"/><path d="m619.82 747.32c28.12-22.45 53.78-47.7 74.94-77.87a146.65 146.65 0 0 0 9.08-14.59l-.44-.18c-.85-130-62.61-203.34-112.62-241.49-48.63-39.89-134.24-83.1-260.92-54l-.28-.38a146.76 146.76 0 0 0 -12.1 12.19c-47.7 53.6-73.42 119.5-95.48 186.77-13.22 40.33-9.58 78.61 7.89 116.38 8.9 19.25 18.2 38.31 26.87 57.66 11 24.5 12 50.8 13.26 77.05v.14a8 8 0 0 0 9.39 7.43h.13c25.83-4.79 51.66-9.85 78-4.82 20.83 4 41.52 8.64 62.3 12.88 40.78 8.3 78.87 3 115.07-19.11 8.09-4.99 84.91-58.06 84.91-58.06z" opacity=".7"/></g></svg>