<svg enable-background="new 0 0 215 68.1" viewBox="0 0 215 68.1" xmlns="http://www.w3.org/2000/svg"><path d="m38.7 68.1v-28.5h-23.9v28.4h-14.8v-68h14.8v25.8h23.9v-25.8h14.8v68z"/><path d="m99 68.1-4.8-13.4h-23.7l-4.5 13.4h-16.1l25.7-68.1h14.4l25.4 68h-16.4zm-16.5-49.9-7.8 23.4h15.4z"/><path d="m136.9 27.5 18.5-27.5h8.3l-22.6 32.4 25 35.7h-8.6l-20.8-30.7-20.7 30.7h-8.6l25-35.8-22.8-32.3h8.6z"/><path d="m205 45.5h10v6.2h-10v16.3h-6.7v-16.4h-31.1v-6.7l28.8-44.9h9zm-6.7-37.7h-.2l-23.8 37.7h23.9z"/></svg>