<svg viewBox="0 0 1056.34 1055" xmlns="http://www.w3.org/2000/svg"><path d="m1.34 0h1055v1055h-1055z" fill="#50a0be"/><g fill="#fff"><path d="m709.35 506.61s58.85 284.39-313.83 353.07c0 0 319.29-28.18 351.33-268.31 2.14-16 1-32.51-4.85-47.55-5.28-13.6-15-28.38-32.65-37.21z"/><path d="m533.83 484.75c-20-41.21-66.72-69-112.65-64.31-41.87 4.31-77.87 31.76-106.23 62.85-43.68 48-74.54 106.22-100.71 165.61-23 52.21-42.79 105.8-62.55 159.33q-18 48.74-36 97.49c-.23.64-.44 1.28-.65 1.95-.92 3.09-1.26 6.56 1 8.67 2.84 2.61 7.39 1 10.84-.75q90.86-45.93 178.24-98.33a1083.47 1083.47 0 0 0 94.38-63.26c-44.06-1.51-72.59-41.44-72.59-41.44 36.79 25.75 70.81 28 99 20.85 26.23-21.37 51.46-44.67 72-71.5-98.46 18.22-106.91-76.84-106.91-76.84 31.12 57.82 77.36 61.94 106.35 51.25 27.82-10.31 35.5-31.63 43.59-64.4 7.25-29.4 5.82-60.56-7.11-87.17z"/><path d="m719.16 232s-19.57-19.58-88.26-19.58a168.89 168.89 0 0 0 -48.9 7.68c-41.92 12.7-77.8 50-103.26 85.7l-52.62 85c1.75-.07 3.5-.26 5.26-.26 53.45 0 105.25 32.71 128.89 81.39 28 57.69 9.54 128.19-17.1 175-20.49 36-50.48 69.62-94.34 105.89-51.06 42.18-105.67 76.47-154.13 104.86 170-14.36 314.23-91 365.62-203.92 49-107.88 9.81-166.72 39.23-264.78s156.92-176.59 156.92-176.59c-49.04 0-137.31 19.61-137.31 19.61z"/><path d="m1.18 453.22 201.62 152.48c12.74-26.88 26.71-53.23 42.75-78.14l-244.37-198.03"/><path d="m1.9 606 154.35 111.83a523.28 523.28 0 0 1 31-59.56l-187.25-145.59"/><path d="m1.8 733.55 121 93.86a421.32 421.32 0 0 1 26.47-47l-146.55-121.81"/><path d="m719.23 232a176.13 176.13 0 0 1 16.58 13.91 59.34 59.34 0 0 0 11.05-.88c17.73-3 11 13.15 5 19.82 5.55 8.59 9 17.94 7.82 27.2v.51c45.13-48.43 96.76-80.16 96.76-80.16-48.22-.01-134.44 18.98-137.21 19.6z"/><path d="m606 944c12-5 44.36-7.88 44.36-7.88s-17.16-15.8-60.78-7.86c-1.63.29-3.22.65-4.8 1l-35.7-56.94c6.06-5.92 9-15.23 8-25.1l-50.93 12.68c4.81 9.51 12.91 16 21.49 18.11l37.26 59.29c-27.72 15.54-42.43 43.27-42.43 43.27 56.31-53.8 121.09-8.41 121.09-8.41-3.23-17.03-37.56-28.16-37.56-28.16z"/><path d="m455 985.52c13-.55 44.35 7.92 44.35 7.92s-10.69-20.75-54.35-28.37c-1.63-.29-3.25-.5-4.86-.67l-14-66.37c8.09-3.92 13.87-12.58 15.46-23l-52.46-.55c2.15 9.92 7.87 18 15.14 22.32l14.43 68.2c-31.37 5-54.71 26-54.71 26 71.36-31 116.47 33.93 116.47 33.93 2.83-17.12-25.47-39.41-25.47-39.41z"/></g><circle cx="628.72" cy="286.17" fill="#50a0be" r="23.43"/></svg>