<svg enable-background="new 0 0 1054.5 1054.5" viewBox="0 0 1054.5 1054.5" xmlns="http://www.w3.org/2000/svg"><path d="m184.9 0h684.1c102.4 0 185.4 83 185.4 185.4v684.1c0 102.4-83 185.4-185.4 185.4h-684.1c-102.4.1-185.4-82.9-185.4-185.3v-684.2c0-102.4 83-185.4 185.4-185.4z" fill="#50a0be"/><g fill="#fff"><path d="m707.5 506.6s58.8 284.4-313.8 353.1c0 0 319.3-28.2 351.3-268.3 2.1-16 1-32.5-4.8-47.5-5.3-13.7-15-28.5-32.7-37.3z"/><path d="m532 484.8c-20-41.2-66.7-69-112.7-64.3-41.9 4.3-77.9 31.8-106.2 62.8-43.7 48-74.5 106.2-100.7 165.6-23 52.2-42.8 105.8-62.5 159.3-12 32.5-24 65-36 97.5-.2.6-.4 1.3-.6 1.9-.9 3.1-1.3 6.6 1 8.7 2.8 2.6 7.4 1 10.8-.7 60.6-30.6 120-63.4 178.2-98.3 32.5-19.4 64-40.5 94.3-63.3-44.1-1.5-72.6-41.4-72.6-41.4 36.8 25.8 70.8 28 99 20.9 26.2-21.4 51.5-44.7 72-71.5-98.4 18.2-106.9-76.8-106.9-76.8 31.1 57.8 77.4 61.9 106.4 51.2 27.8-10.3 35.5-31.6 43.6-64.4 7.2-29.5 5.8-60.6-7.1-87.2z"/><path d="m717.3 232s-19.6-19.6-88.3-19.6c-16.6.1-33.1 2.7-48.9 7.7-41.9 12.7-77.8 50.1-103.3 85.7l-52.6 85c1.8-.1 3.5-.3 5.3-.3 53.5 0 105.3 32.7 128.9 81.4 28 57.7 9.5 128.2-17.1 175-20.5 36-50.5 69.6-94.3 105.9-51.1 42.2-105.7 76.5-154.1 104.9 170-14.4 314.2-91 365.6-203.9 49-107.9 9.8-166.7 39.2-264.8s156.9-176.6 156.9-176.6c-49 0-137.3 19.6-137.3 19.6z"/><path d="m-.7 453.2 201.6 152.5c12.7-26.9 26.7-53.2 42.7-78.1l-244.4-198"/><path d="m0 605.9 154.4 111.9c9.1-20.5 19.4-40.4 31-59.6l-187.3-145.5"/><path d="m0 733.6 121 93.9c7.8-16.2 16.6-31.9 26.5-47l-146.6-121.9"/><path d="m717.4 232c5.8 4.3 11.3 8.9 16.6 13.9 3.7.1 7.4-.2 11-.9 17.7-3 11 13.1 5.1 19.8 5.5 8.6 9 17.9 7.8 27.2v.5c45.1-48.4 96.8-80.2 96.8-80.2-48.3.1-134.6 19.1-137.3 19.7z"/><path d="m604.2 944c12-5 44.4-7.9 44.4-7.9s-17.2-15.8-60.8-7.9c-1.6.3-3.2.7-4.8 1l-35.7-56.9c6.1-5.9 9-15.2 8-25.1l-50.9 12.7c4.8 9.5 12.9 16 21.5 18.1l37.2 59.3c-27.7 15.5-42.4 43.3-42.4 43.3 56.3-53.8 121.1-8.4 121.1-8.4-3.3-17.1-37.6-28.2-37.6-28.2z"/><path d="m453.1 985.5c13-.5 44.4 7.9 44.4 7.9s-10.7-20.7-54.3-28.4c-1.6-.3-3.2-.5-4.9-.7l-14-66.4c8.1-3.9 13.9-12.6 15.5-23l-52.5-.6c2.1 9.9 7.9 18 15.1 22.3l14.4 68.2c-31.4 5-54.8 25.9-54.8 25.9 71.4-31 116.5 33.9 116.5 33.9 3-16.8-25.4-39.1-25.4-39.1z"/></g><circle cx="626.9" cy="286.2" fill="#50a0be" r="23.4"/></svg>