<svg enable-background="new 0 0 1659 1659" viewBox="0 0 1659 1659" xmlns="http://www.w3.org/2000/svg"><path d="m0-513.1h2871v2772.3h-2871z" fill="#d36c0f"/><g fill="#fff"><path d="m731.4 1020.5c-55.9-58.8-115.7-69.7-160.6-69.7-46.1 0-104.7 11-160.6 69.7-104.8 110.2-11.9 133.7-11.9 133.7 58.8-70.9 126.9-84.3 172.5-83.5 45.6-.8 113.6 12.6 172.5 83.5 0 0 92.8-23.5-11.9-133.7z"/><path d="m595.3 907.6c0 13.1-11 64.3-24.5 64.3s-24.5-51.2-24.5-64.3c.4-13.1 11.6-23.3 25.1-23 13 .4 23.5 10.5 23.9 23z"/><path d="m603 1221.8 134.4 19.6c5.8-24.6 9.1-49.5 7.6-75.2-.3-4-.7-8-1.4-11.9l-.4.1c-58.8-70.9-126.9-84.3-172.5-83.5-45.6-.8-113.6 12.6-172.5 83.5l-.4-.1c-.7 4-1.1 7.9-1.4 11.9-3 50.1 12 97.4 29.8 143.9 10.6 27.8 29.9 47.2 56.8 60.4 13.7 6.7 27.6 13.1 41.2 20 17.2 8.7 29.7 22.7 42.1 36.5 2.1 2.3 5.7 2.6 8.1.5.2-.2.4-.4.5-.5 12.5-13.8 24.9-27.8 42.1-36.5 13.6-6.9 27.5-13.2 41.2-20 26.8-13.2 46.1-32.6 56.8-60.4 2.4-6.3 4.7-12.5 6.9-18.7-87.9-7-118.9-69.6-118.9-69.6z" opacity=".7"/><path d="m2565.5 1034.7c-72.5-162.2-259-308.2-259-496.2 0-175.6 144.9-320.9 323.9-340.4 87.7-9.5 224.2-2.9 327.2 147.7-.2-1.5-.4-3.1-.7-4.7-5.4-38.9-73.5-97.1-98.7-124.1-66.1-70.7-142.1-135.6-229.5-180.4-226-116-508.2-20.5-612.8 209.3-202.7 444.9 473.6 768.9 522 1182.5 39.6 337.8-288.9 737.2-655.5 789.7 330-22 629.2-237 736.2-562.3 70.9-215.4 37.2-419.1-53.1-621.1z" opacity=".7"/><path d="m1826.5 2219.9c18.7 0 37.4-.7 56-1.9 366.6-52.5 695-452 655.5-789.7-48.4-413.6-724.7-737.5-522-1182.5 104.7-229.8 386.8-325.3 612.8-209.3 87.4 44.9 163.5 109.9 229.5 180.4 25.3 27 93.4 85.2 98.7 124.1-42-303.6-310.8-537.8-636.6-537.8-352.8 0-639.2 274.6-642.4 614.5-.2 1.9-.2 4.1-.2 6 0 267.8 191.6 427.3 407.2 593 190 146 309.5 341.9 309.5 582.6.1 314.4-241.5 555.6-568 620.6z"/><path d="m2023.3 1289.5c-187.1-184.6-389.7-258.5-512.3-489.6-7.7-14.9-14.4-30.3-20-46.1s60.7 260 271.1 399.5 485.8 477.3 323.4 967.9c-2.4 7.3-4.7 14.5-6.9 21.5 48.4-35.1 87-84.8 110.5-154.5 19.3-57.3 26-116.5 22.9-175.6-8-152.3 1.1-335.8-188.7-523.1z" opacity=".5"/><path d="m1054.2 495.5c-5.3-14.7-8.8-29.7-8.8-43.8 0-58.8 44.3-37.4 60.9-149.7.7-5.5 2-10.9 4-16-34.8-57-74-80.4-82.3-23.8-16.7 112.3-61 90.8-61 149.6 0 40.7 29.2 89.2 47.2 115.2z" opacity=".7"/><path d="m1762.2 1153.3c-210.5-139.5-271.1-399.5-271.1-399.5-34.6-95.2-48-214-145.5-262.1-6.5-3.3-74.5-19.2-74.3-17.1-20.7-136.5-122.1-267.8-136.2-172.7-16.6 112.3-60.9 90.9-60.9 149.7 0 17.1 5.2 35.7 12.5 53.3-4.2 2.6-8.3 5.3-12.3 7.9-58.4 43.5-125.8 75.1-182.1 121.3-52.3 43-249.7 260.9-116.3 309.5 14.7 5.4 29.4 10.6 43.7 16.9 17.8 7.8 36.1 14.6 54.8 20.2h.8c11.8.5 111.5 3.3 214.3-63 10.2-6.5 21.7 6.6 13.2 15.2-25.1 25.1-68.1 53.2-140.3 67.8 109.1 16.3 190.2 31.6 339.7-40.5 6.9-3.4 6.9 26.8-17.5 68.2-43.5 73.7-157 98.6-238.3 116.8-49.1 11-98.4 16.3-148.7 18.5-63.6 2.6-116 22-175.4 2.3-19.9-6.6-40.8-12.4-61.6-9.4-21.5 3.2-40.5 15.5-51.6 33.6-4.4 7.2-6.6 15.3-6.4 23.6 1.3 29.1 31.4 41.4 57.8 47.6 56.9 13.1 115.5 14.6 173.4 21 43.8 4.9 258.9-6.2 277.5 35.7 14.3 32.1 121.2 578.6 255.5 676.7 0 0 38.9 25.6 12.5 74.2h-171.9c-88.8 0-160.8 69.4-160.9 155.2h551.3v-.9l144.6-.3c122.8-.2 246.1-15.5 335.9-80.7 2.2-7 4.5-14.1 6.9-21.4 162.7-490.2-112.6-828.1-323.1-967.6zm-705.6-399.5c-26.7 14.9-58.4 10.2-70.7-10.4-12.4-20.7-.7-49.5 26.1-64.4s58.4-10.2 70.7 10.4c12.4 20.7.7 49.5-26.1 64.4z"/><ellipse cx="1021.8" cy="709.5" rx="20.5" ry="17" transform="matrix(.7714 -.6363 .6363 .7714 -217.9281 812.3722)"/></g></svg>