<svg viewBox="0 0 957.77 957.77" xmlns="http://www.w3.org/2000/svg"><path d="m0 0h957.77v957.77h-957.77z" fill="#ec282a"/><path d="m663.44 391.44c-5.32-42.76-23.34-71.79-54.34-101.7-49.35-47.61-108.28-64-175.08-48.35-78.47 18.32-136.73 89.95-139.9 170.53-.13 3.2-1.31 4.5-4.1 5.7a382.2 382.2 0 0 0 -64.76 35.24 19 19 0 0 1 -2.66 1.25c-10.84-21.22-21.53-42.16-32.31-63.25l-30.52 15.66c28.23 55.42 56.23 110.33 84.4 165.61l30.56-15.55-33.2-65.3c10.28-9.64 43.78-30.57 52.43-32.73v5.45c0 40.79-.15 81.58.07 122.37.13 24.67 4.21 48.71 14.06 71.48 12.06 27.9 30.83 49.2 60.3 59.47 8.63 3 17.49 5 27.39 4.76v-7.28q0-105.88 0-211.78c0-25 .05-49.94 0-74.92 0-3.19.31-5.4 4.2-5.8 20.82-2.17 41.58-5.36 62.46-6.56 33.68-1.92 67.16 1.07 100.27 7.6 48.81 9.62 94.53 27 136 54.85 6 4.05 11.83 8.46 17.84 12.78l-33.36 65.59 30.49 15.51 84.32-165.56-30.45-15.51c-11 21.49-21.67 42.43-32.35 63.36-101.61-66.24-212.79-84.13-331-69.29 4.34-10.94 14.23-23 25.14-31.08 19.1-14.09 40.61-18.41 63.79-15.52 26.13 3.25 50.26 7.43 65.53 30.31.81 1.23 6.92 2.28 8.37 2.61 34.05 7.77 96.51 20.88 96.41 20.05zm-227 214.19c.66.59.88.9 1.16 1a16 16 0 0 0 1.93.47c24.12 4.71 48.37 5.38 72.33-.08 72.6-16.56 119.85-60.78 142.19-131.76 1-3.05.87-4.77-2.59-6-23.51-8.26-46.91-16.83-70.46-25-7.31-2.53-15-4.06-22.74-6.12-.6 2.51-1.05 4.25-1.45 6-8.42 37.59-43.06 65.25-81.38 64.64-4.1-.06-5.76 1-7 4.8-7.29 21.39-14.84 42.69-22.29 64-3.34 9.42-6.55 18.81-9.74 28.05zm-211.71-44.12c-22.73-44.63-45.17-88.67-67.8-133.08l-30.56 15.68 67.79 132.95zm576.21-133c-22.74 44.63-45.17 88.67-67.75 133l30.52 15.49 67.72-132.89zm-706.14 56.74c16 31.34 31.63 62 47.48 93.16l30.55-15.66-47.44-93.08zm690.28 77.53 30.51 15.5 47.37-93-30.47-15.54c-15.88 31.16-31.49 61.76-47.41 93.04z" fill="#fff"/></svg>