<svg enable-background="new 0 0 957.8 957.8" viewBox="0 0 957.8 957.8" xmlns="http://www.w3.org/2000/svg" xmlns:xlink="http://www.w3.org/1999/xlink"><linearGradient id="a" gradientUnits="userSpaceOnUse" x1=".000008" x2="957.8" y1=".0503" y2="957.8503"><stop offset="0" stop-color="#ec282a"/><stop offset=".279" stop-color="#e82729"/><stop offset=".5373" stop-color="#dd2327"/><stop offset=".7866" stop-color="#ca1c22"/><stop offset="1" stop-color="#b4141d"/></linearGradient><path d="m0 .1h957.8v957.8h-957.8z" fill="url(#a)"/><g fill="#fff"><path d="m648.3 410.1c-30.7-11.2-62.1-18.2-93.4-25.4-1.3-.3-2.9-1.3-3.6-2.4-14.1-21.1-35-29.9-59.1-32.9-21.4-2.7-41.2 1.3-58.9 14.3-10.1 7.4-19.2 18.5-23.2 28.7 109-13.7 211.5 2.8 305.3 63.9 9.9-19.3 19.7-38.7 29.8-58.5 9.4 4.8 18.6 9.5 28.1 14.3-26 51-51.8 101.7-77.9 152.8-9.4-4.8-18.5-9.4-28.1-14.3 10.2-20.2 20.4-40.1 30.8-60.5-5.5-4-10.9-8-16.4-11.8-38.3-25.6-80.4-41.7-125.5-50.6-30.5-6-61.4-8.8-92.5-7-19.3 1.1-38.4 4.1-57.7 6.1-3.6.4-3.9 2.4-3.9 5.4.1 23.1 0 46 0 69.1v195.4 6.7c-9.1.3-17.3-1.6-25.3-4.4-27.2-9.5-44.5-29.2-55.6-54.9-9-21-12.8-43.2-13-66-.2-37.6-.1-75.3-.1-112.9 0-1.7 0-3.3 0-5.1-7.9 2-38.9 21.3-48.3 30.2 10.1 19.9 20.3 39.9 30.6 60.2-9.6 4.9-18.6 9.5-28.2 14.4-25.9-50.9-51.8-101.6-77.8-152.7 9.3-4.8 18.4-9.5 28.1-14.5 10 19.5 19.8 38.7 29.8 58.4.9-.5 1.8-.6 2.5-1.1 18.8-12.8 38.8-23.5 59.8-32.5 2.6-1.1 3.7-2.3 3.8-5.3 3-74.4 56.6-140.4 129.1-157.3 61.6-14.4 116 .6 161.5 44.6 28.6 27.6 44.5 62 49.4 101.5.1.7.1 1.6.1 2.3 0 .3 0 .8-.2 1.8z"/><path d="m442.5 591.2c3-8.5 5.9-17.2 8.9-25.8 6.8-19.6 13.8-39.3 20.6-59 1.2-3.5 2.7-4.5 6.5-4.4 35.3.6 67.3-25 75.1-59.6.4-1.7.7-3.2 1.3-5.5 7.2 1.9 14.2 3.3 20.9 5.6 21.7 7.5 43.3 15.4 65 23.1 3.2 1.1 3.3 2.7 2.4 5.5-20.6 65.4-64.2 106.1-131.2 121.5-22.1 5.1-44.5 4.4-66.7.1-.6-.1-1.2-.3-1.8-.5-.2-.2-.4-.5-1-1z"/><path d="m244.4 555.1c-9.6 4.9-18.5 9.4-28.2 14.4-20.8-40.8-41.5-81.4-62.5-122.7 9.3-4.8 18.5-9.5 28.2-14.5 20.9 41 41.6 81.7 62.5 122.8z"/><path d="m775.9 432.4c9.6 4.9 18.5 9.5 28.1 14.4-20.8 40.9-41.5 81.5-62.5 122.6-9.4-4.8-18.5-9.4-28.1-14.3 20.9-40.9 41.6-81.5 62.5-122.7z"/><path d="m124.6 484.8c9.6-4.9 18.6-9.5 28.2-14.4 14.7 28.7 29.1 57 43.7 85.9-9.4 4.8-18.6 9.5-28.1 14.5-14.7-28.8-29.1-57.1-43.8-86z"/><path d="m761.4 556.3c14.7-28.9 29.1-57.1 43.7-85.8 9.5 4.8 18.6 9.5 28.1 14.3-14.6 28.7-29 56.9-43.7 85.8-9.3-4.7-18.5-9.4-28.1-14.3z"/></g></svg>