<svg viewBox="0 0 1024 1024" xmlns="http://www.w3.org/2000/svg" xmlns:xlink="http://www.w3.org/1999/xlink"><clipPath id="a"><path d="m0 0h1024v1024h-1024z"/></clipPath><g clip-path="url(#a)"><path d="m0 0h1024v1024h-1024z" fill="#fff"/><circle cx="225.16" cy="299.64" fill="#a72020" r="119.16"/><circle cx="225.16" cy="299.64" fill="#fff" r="47.17"/><circle cx="799.84" cy="299.64" fill="#a72020" r="119.16"/><circle cx="799.84" cy="299.64" fill="#fff" r="47.17"/><path d="m511.88 155.21a368.64 368.64 0 0 1 368.64 368.65v500.14a0 0 0 0 1 0 0h-737.28a0 0 0 0 1 0 0v-500.14a368.64 368.64 0 0 1 368.64-368.65z" fill="#a72020"/><rect fill="#fff" height="111.71" rx="12" width="59.58" x="449.34" y="618.29"/><rect fill="#fff" height="111.71" rx="12" width="59.58" x="514.84" y="618.29"/><path d="m511.88 668.07a317.94 317.94 0 0 1 73.7 8.61c29.93 7.11 50.29-29.66 28.65-51.53a144 144 0 0 0 -204.7 0c-21.64 21.87-1.28 58.64 28.65 51.53a317.94 317.94 0 0 1 73.7-8.61z" fill="#a72020"/><path d="m511.88 648.07a317.94 317.94 0 0 1 73.7 8.61c29.93 7.11 50.29-29.66 28.65-51.53a144 144 0 0 0 -204.7 0c-21.64 21.87-1.28 58.64 28.65 51.53a317.94 317.94 0 0 1 73.7-8.61z" fill="#fff"/><circle cx="362.93" cy="406.04" fill="#fff" r="119.16"/><circle cx="362.93" cy="406.04" fill="#a72020" r="47.17"/><circle cx="660.83" cy="406.04" fill="#fff" r="119.16"/><circle cx="660.83" cy="406.04" fill="#a72020" r="47.17"/><circle cx="511.88" cy="557.33" fill="#a72020" r="62.33"/><g fill="#fff"><circle cx="511.88" cy="557.33" r="38.12"/><path d="m328.3 881.81-101.47-101.47a39.78 39.78 0 0 0 -13.07-8.7v109.1l57.8 57.81a40.25 40.25 0 0 0 56.74 0 40.25 40.25 0 0 0 0-56.74z"/><path d="m695.46 881.81 101.47-101.47a39.78 39.78 0 0 1 13.07-8.7v109.1l-57.81 57.81a40.23 40.23 0 0 1 -56.73 0 40.25 40.25 0 0 1 0-56.74z"/></g></g></svg>