<svg viewBox="0 0 122.06 115.21" xmlns="http://www.w3.org/2000/svg"><path d="m52.59 4.31a28.21 28.21 0 0 1 10.23 5.21 27.71 27.71 0 0 1 12.18-8.26c6-1.95 11.72-1.87 17 1.9 3.91 2.79 5.89 6.9 7.35 11.3.32 1 .47 2 .71 3 0 1.67.32 3.3.43 5a48.38 48.38 0 0 1 -.85 11.54c-.34 1.95-1.11 3.81-1.27 5.8a60.35 60.35 0 0 1 -3 8.13c-.34.76-.26 1 .57 1.24a44.35 44.35 0 0 1 15 7c5.28 3.91 9.16 8.83 10.58 15.38a23.47 23.47 0 0 1 -2.43 16.07c-3.69 7.17-9.47 12.33-16.2 16.51a74.55 74.55 0 0 1 -27.81 10 3.24 3.24 0 0 1 -1.41.19 5.1 5.1 0 0 0 -2.36.17 84.2 84.2 0 0 1 -16.11.22 1.24 1.24 0 0 0 -.71.09 57.36 57.36 0 0 1 -16-3.61c-6-2.31-11.45-5.56-15.64-10.6a23.3 23.3 0 0 1 -4.38-7.72 8.6 8.6 0 0 0 -3.32-.63q-6.36-.95-12.75-1.78c-.53-.07-1.14 0-1.49-.61 4.92-2 9.82-4 14.75-5.94a2.62 2.62 0 0 0 2-2.3 27.06 27.06 0 0 1 5.64-12.23c.19-.25.36-.51.61-.87a53.14 53.14 0 0 1 -7.91-3.51 33.63 33.63 0 0 1 -12.39-11.37c-4.92-7.89-3.7-16.7 3.31-23a29 29 0 0 1 14.66-7c.38-.07.72.05.73-.62.09-8.76 4.62-14.51 12.38-18a13.43 13.43 0 0 1 3.28-1c1.47 0 2.88-.47 4.35-.56a27.92 27.92 0 0 1 9.11.74 2 2 0 0 0 1.16.12z" fill="#1b1c19"/><path d="m98.37 39.76c-.4-1 .18-1.94.43-2.85a50.6 50.6 0 0 0 1.52-15.25c0-1-.3-2-.43-3.06 0-.38-.16-.79.17-1.13 1.49 7.58.47 14.98-1.69 22.29z" fill="#0c0c0c"/><path d="m1 89.87c1.76.73 3.66.68 5.49 1 3.64.56 7.3 1 11 1.49.41 0 .89.08 1.12.56l-18.61-2.61a1.17 1.17 0 0 1 1-.44z" fill="#0d0d0d"/><path d="m54.52 114.82a3.92 3.92 0 0 1 2.34-.18 71.22 71.22 0 0 0 13.46-.2c1.1-.11 2.24-.69 3.38-.1a75.55 75.55 0 0 1 -19.18.48z" fill="#040404"/><path d="m52.59 4.31c-1.18.53-2.25-.2-3.34-.38a27.54 27.54 0 0 0 -10 .2c-.43.08-.84.27-1.24-.07a28.33 28.33 0 0 1 12.46-.27c.69.13 1.4.34 2.12.52z" fill="#0b0b0b"/><g fill="#feed01"><path d="m48.93 7.41a32.19 32.19 0 0 1 7.62 2.23c6.74 3.17 11.14 8.42 13.82 15.27a70.16 70.16 0 0 1 4.06 17.49c.13 1.14.26 2.29.44 3.44.1.65-.06.86-.78.89a81.35 81.35 0 0 0 -27.61 5.94 59 59 0 0 0 -19 12 1.12 1.12 0 0 1 -1.25.4c-6.42-2.12-12.37-5-17.15-10-6.36-6.59-6.16-14.82.54-21.06a25.57 25.57 0 0 1 12.88-6.19c.69-.14.84.23 1.08.74 2.2 4.66 4.88 9 9.43 11.73a12.17 12.17 0 0 0 9.99 1.71c3.92-1.12 5.5-4.2 4.16-8-1.43-4.1-4.66-6.35-8.4-8a30.81 30.81 0 0 0 -11.76-2.55c-.86 0-1-.31-.89-1.05.89-6.35 4.33-10.71 10.11-13.31.82-.37 1.69-.64 2.53-.95a21.3 21.3 0 0 1 10.18-.73z"/><path d="m118.32 76a23.87 23.87 0 0 1 -5.58 14.54c-5.66 7.14-13.13 11.74-21.41 15.21-.79.33-.85-.16-1.07-.6a78.92 78.92 0 0 1 -6.21-17.35 103.5 103.5 0 0 1 -3.13-28.69 46.08 46.08 0 0 1 .92-7.84c.09-.46.17-.71.72-.66 9.12.81 17.86 2.88 25.53 8.17 4.62 3.18 8.15 7.25 9.62 12.83a20.3 20.3 0 0 1 .61 4.39z"/><path d="m95.5 35.61a100.84 100.84 0 0 1 -4 11.15c-.36.81-.63 1.17-1.69 1a52.75 52.75 0 0 0 -10.34-1c-1 0-.86-.6-.91-1.16a77.65 77.65 0 0 0 -3.23-16.34 44.11 44.11 0 0 0 -9-16.38c-.3-.35-.33-.53 0-.87 4.78-4.92 10.41-8 17.45-7.67a12.41 12.41 0 0 1 9.94 5.81c.2.29.41.57.62.86a6.81 6.81 0 0 1 1.49 3.22 33.52 33.52 0 0 1 1.31 12 57.38 57.38 0 0 1 -1.25 8.26 2.47 2.47 0 0 1 -.39 1.12z"/></g><path d="m74.4 110.45c-2.63.4-5.2.7-7.79.85a1.33 1.33 0 0 1 -1.52-.94 87.15 87.15 0 0 1 -5.62-17.46 136.54 136.54 0 0 1 -3.71-32 47.11 47.11 0 0 1 .63-6.8c.1-.61.32-.93.89-1l6.89-1.49c.64-.14.91 0 .86.76a125.39 125.39 0 0 0 .56 21.63 143.68 143.68 0 0 0 8.47 35.57z" fill="#feec01"/><path d="m49.09 110.22a57.43 57.43 0 0 1 -7.69-2 2 2 0 0 1 -1.25-1.14 75.37 75.37 0 0 1 -6.9-22 64.57 64.57 0 0 1 -.16-16 14.67 14.67 0 0 0 .25-2.37c-.09-1.86.86-3 2.36-3.9 1.79-1.1 3.51-2.31 5.44-3.35a128.76 128.76 0 0 0 7.95 50.76z" fill="#feed01"/><path d="m26.87 27.45c5.32.49 10.36 1.25 14.68 4.42a6.28 6.28 0 0 1 2.45 3.13 2.15 2.15 0 0 1 -1.42 3 7.81 7.81 0 0 1 -4.71.12c-5.15-1.28-8.16-5-10.46-9.42-.17-.28-.3-.7-.54-1.25z" fill="#feed01"/><path d="m95.5 35.61c.46-2.54 1.09-5 1.32-7.62.52-5.87.18-11.61-2.48-17 .5-.22.48.27.59.48a28 28 0 0 1 2.31 8.82 33.22 33.22 0 0 1 0 7.59 50.67 50.67 0 0 1 -1.47 7.92c-.13.35-.17-.15-.27-.19z" fill="#0a0a0a"/><path d="m48.93 7.41a32.86 32.86 0 0 0 -10.18.73c-.07 0-.18 0-.22-.07-.21-.26.07-.18.17-.22a12.89 12.89 0 0 1 3.24-.67 20.89 20.89 0 0 1 7.75.12z" fill="#131312"/><path d="m108.75 70.49a3.38 3.38 0 1 1 -3.39-3.4 3.3 3.3 0 0 1 3.39 3.4z" fill="#1b1c19"/><path d="m100.94 88.54a11.08 11.08 0 0 1 -6.14-2.35 1.55 1.55 0 0 1 -.59-1 1 1 0 0 1 .16-.91c.31-.36.58.06.83.18 3.3 1.74 6.59 2.37 9.88 0a9.4 9.4 0 0 0 2-1.89c.62-.8.84-.36 1.08.27a1.32 1.32 0 0 1 0 .92c-.94 2.43-4.56 4.84-7.22 4.78z" fill="#1c1c19"/><text fill="#1b1c19" font-family="YuMin-Demibold-83pv-RKSJ-H, YuMincho" font-size="11.75" letter-spacing="-.02em" transform="matrix(.99998239 -.00593408 .00593408 .99998239 86.74 77.76)">♠</text></svg>