<svg viewBox="0 0 307.17 302.45" xmlns="http://www.w3.org/2000/svg"><path d="m33.49 21.38s-1-8.62 1-10 15.21 1.39 17 1.39 10.51-1.77 12.3-3.05 35.11-16.48 70.47 2c0 0 10.93-4 13.12-2.94s1.14 7.6 1.42 11.21 4.57 12 6.47 13.6 19.73 37.03 20.44 41.41c0 0 82.13 18.25 100 62.36s20.35 85.36 7.23 107.42c0 0 22.81 5.51 21.48 20.72s-15.42 27.57-32.32 27.19-14.83-8.94-27.76-5.13-60.65 11.21-72.63 7.41-18.82-7.6-14.44-20.15c0 0-16.74 1.33-17.12.76s-13.49 23.76-29.09 24.14-30.61-2.28-25.85-12.35 11.79-10.84 11.79-10.84l-12.36-5.53a68.66 68.66 0 0 1 -8.18 7.8c-4 3-19.2 8.27-25.09 8.27s-21.39-.19-18.54-13.4 11.79-12 11.79-12-2.76-26.87-5.17-28.77-37.14-24.44-36.76-76.15 8-112.55 30-123.2z" fill="#f6b267"/><path d="m108.08 302.45c-13.6 0-22-2.41-25.16-7.18-1.17-1.79-2.14-4.82-.15-9a24.19 24.19 0 0 1 7.69-9.66l-5.15-2.3a64 64 0 0 1 -7.22 6.69c-4.4 3.35-20 8.82-26.72 8.82-4.32 0-14.42 0-19.17-5.88-2.27-2.81-2.94-6.44-2-10.78 2-9.48 7.31-13 11.44-13.91-1.18-10.61-2.94-22.06-4.08-24.33l-.3-.21c-11.26-8.3-37.59-32.41-37.26-77.98.19-25.55 2.94-108.95 30.14-124.85l.65-10.43c-.75-6.64 0-10.78 2.19-12.3 2-1.38 6.09-1 15.09.42 1.43.23 3 .49 3.44.5 1.57 0 9.37-1.69 10.73-2.55 3.62-2.59 37.49-16.25 72.21 1.24 7.32-2.59 12.07-3.42 14.09-2.45 3.12 1.49 3 5.84 2.93 10 0 1.28-.05 2.48 0 3.39.24 3.08 4.27 10.68 5.52 11.76 2.37 2 17.63 32.53 20.8 41.23a268.69 268.69 0 0 1 42.31 14.48c30.87 13.67 50.42 30.21 58.11 49.18 17.33 42.77 20.53 83.18 8.68 106.81 6.78 2.32 21.4 9 20.21 22.58-1.49 17-16.79 30-35.06 29.64-8.66-.2-12.78-2.41-16.08-4.18s-5.11-2.75-10.86-1.06c-12.4 3.64-61.21 11.52-74.2 7.4-6.76-2.15-13.6-4.71-16.36-10.23a14.38 14.38 0 0 1 -.89-9.51c-6.53.49-10.18.67-12.31.61-.12.17-.24.36-.38.57-4.3 6.31-15.71 23.09-29.83 23.43-1.04.03-2.06.04-3.05.04zm-24.15-34.7 23.27 10.39-9.92 1.06c-.19 0-5.67.89-9.64 9.31-1 2.16-.6 3.22-.21 3.83 1.64 2.51 8.66 5.07 23.57 4.69 11.36-.27 22-15.93 25.5-21.08 1.52-2.23 2.1-3.07 3.63-3.07h1.45l.1.15c2.56 0 9.33-.41 15.36-.9l4.11-.32-1.35 3.89c-1.4 4-1.55 7-.46 9.2 1.65 3.29 6.27 5.31 13.18 7.51 11.07 3.51 58.07-3.62 71.05-7.44 7.87-2.31 11.3-.46 14.93 1.49 2.94 1.58 6.28 3.37 13.65 3.54 15.06.33 28.36-10.76 29.58-24.73 1.11-12.72-19.23-17.83-19.44-17.88l-3.53-.86 1.85-3.13c12.71-21.35 9.8-62.58-7.4-105s-97.29-60.57-98.1-60.75l-1.76-.39-.3-1.77c-.69-3.86-17.6-37.51-19.7-40-2.29-1.93-6.9-11-7.24-15.27-.09-1.18-.06-2.52 0-3.94a28.61 28.61 0 0 0 -.16-5 55.27 55.27 0 0 0 -10.75 3l-1.11.41-1-.55c-35.35-18.47-67.5-2.38-67.79-2.2-2.45 1.75-11.87 3.51-13.81 3.51a36.05 36.05 0 0 1 -4.26-.56c-2.5-.4-8.83-1.39-11-1.22a26.07 26.07 0 0 0 0 7.4v.24l-.87 14-1.46.69c-20.44 9.84-28.13 68.84-28.51 120.77-.32 43.07 24.4 65.78 35 73.54l.69.5c.9.72 3.3 2.61 6.17 30.61l.35 3.41-3.39-.47c-.64-.05-6.58-.38-8.79 9.89-.59 2.71-.28 4.76.93 6.26 3.13 3.88 11.74 3.88 15 3.88 5.36 0 20-5.06 23.46-7.72a66.69 66.69 0 0 0 7.79-7.43z" fill="#231815"/><path d="m193.2 122.68c.13-.31.6-.25.92-.37a1 1 0 0 0 .55-1.14 2.91 2.91 0 0 0 -.62-1.21l2.15-.42c-.94-1-2.86-3.11-2.92-4.57 0-.42-.61-1-.1-1.32.18-.12 1-.3 1 .1-.18-6.4-.44-13.06-3.49-18.69-5.82 8.53-4.18 20.53-9.92 29.12-1.23 1.85-2.78 4.35-1.29 6a3 3 0 0 0 -2.93-.58 3 3 0 0 1 1.68 3.54 2.54 2.54 0 0 1 -3.47 1.44 11.82 11.82 0 0 1 .3 4 4 4 0 0 1 -2.24 3.16 2.44 2.44 0 0 1 -3.24-1.47c.25 1.13-2.29 4.07-3 4.91-1.47 1.82-4.27.73-6.42 1-1.24.13-2.46.38-3.67.63l-7.39 1.53a11.25 11.25 0 0 1 -4.31.31 3.81 3.81 0 0 1 -3.09-2.65 4.76 4.76 0 0 0 -.63 3.53l-1.23-.9c-7.55 5.86-17 4.77-25.35 8.42a16.43 16.43 0 0 0 -3.85 2.28c-.37.31-2.63 3.18-2.75 3.18 1.15.08 42.05-6.6 38.12-2.5-2.72 2.85-40.5 22.59-36.62 26.58 1.15 1.18 5.31-.87 6.43-1.29 4.46-1.68 8.77-3.77 13-5.88 10-4.95 19.91-10.31 29.41-16.21a46.35 46.35 0 0 0 8.92-6.51 2.18 2.18 0 0 0 2.16.92 5.38 5.38 0 0 0 2.26-1c4.23-2.75 7.38-6.82 10.59-10.64 3.42-4.06 7-7.91 10.81-11.62a1.22 1.22 0 0 0 .33-.45c.1-.34-.14-.69-.35-1a5.29 5.29 0 0 1 -1.16-4.25c.37-1.47 2.09-2.63 3.46-2a15.85 15.85 0 0 1 -2-3.47.66.66 0 0 1 -.05-.51z"/><path d="m219.39 123.35a14.78 14.78 0 0 1 -.5-1.55c-.66-1.36-.79-2.51 1.15-2.94a9.62 9.62 0 0 1 -1.23-1.62c-1.57-3.39-3.06-6.81-4.64-10.19-1.66-3.56-2.66-7.55-6.36-9.79a.65.65 0 0 1 -.26-.31c-.68-2.19-2.55-3-4.39-3.92-2.46-1.27-4.78-2.82-7.21-4.17a13.34 13.34 0 0 0 -2.38-.81c-.11.22-.22.44-.34.66 1.58 1.73 3.25 3.38 4.71 5.21 1.27 1.61 2.3 3.41 3.42 5.13a.65.65 0 0 1 0 .59c-1 1.16-.3 1.91.55 2.73.3.28.29.87.48 1.29.32.7.64 1.4 1 2.07a16 16 0 0 1 1.18 1.85 9.84 9.84 0 0 1 .31 2.07h-.21c.48.84.95 1.7 1.37 2.58a30.54 30.54 0 0 1 2.56 5.77 2.42 2.42 0 0 1 -.28 1.92l.12.11-.12.53h-.09a13.54 13.54 0 0 1 -.3 3.16 1.52 1.52 0 0 1 -.35 1.13c-.24.35 0 1.07.11 1.61a21.06 21.06 0 0 1 .72 3.53 2.16 2.16 0 0 1 -1.47 2.12 29.65 29.65 0 0 1 -.16 3.26 4.13 4.13 0 0 1 -2 2.67c0 2.55-.07 2.57-2.82 3.34-.37.1-.92.9-.82 1.08 1 1.92-.41 3.24-1.51 4-2 1.31-3.76 2.56-4.57 4.92a30.74 30.74 0 0 1 -1.87 4c-.73 1.4-1.47 2.8-2.29 4.14-.92 1.5-2.37 2.82-2.81 4.43-.52 1.87-.11 4-2.32 5.06-.18.09-.24.48-.33.73-.63 1.8-1.72 3.46-1.4 5.55.08.58-.6 1.31-1 1.92-1.78 2.72-3.47 5.41-3.74 8.85a23.84 23.84 0 0 1 -1.67 6c-.81 2.27-1.93 4.42-2.75 6.68-1.28 3.53-2.2 7.2-3.67 10.63a89.27 89.27 0 0 1 -4.81 8.85c-.79 1.4-1.81 2.69-2.53 4.12a4.15 4.15 0 0 0 -.1 2.25 1.69 1.69 0 0 0 1.34.21 19.71 19.71 0 0 0 3.82-3.26c2.91-3.69 5.69-7.49 8.4-11.34a61.75 61.75 0 0 0 4.27-6.89c1.32-2.5 2.06-5.35 3.58-7.71a43.28 43.28 0 0 0 4.36-8.1c1-2.62 2.47-5.06 3.61-7.63.66-1.5 1.09-3.11 1.67-4.81 1.84-.18 2.6-1 2.77-3.36.1-1.34-.92-3.21 1.57-3.5.09 0 .22-.21.22-.32a3.32 3.32 0 0 1 2.8-3.52c.37-.09.64-.68.88-1.09 1.06-1.81 2-3.67 3.14-5.45.93-1.47 2-2.86 3-4.27a14.17 14.17 0 0 0 1.64-2.05c1.45-3.19 2.76-6.44 4.19-9.65.48-1.08 1.54-2.06 1.62-3.14.16-1.94 1.43-3.5 1.34-5.58-.07-1.66.79-3.44 1.55-5a4.56 4.56 0 0 0 -.15-4.78z"/><path d="m280.21 238.24c-1.25-.72-2.07-.17-3 .4a4.39 4.39 0 0 1 -4.24.62 2.2 2.2 0 0 0 -1.51.26c-1.87.84-1.86.86-2.25-1-2.06.92-2.08.95-4.3-.4a2 2 0 0 0 -2.59.25 2.31 2.31 0 0 1 -3.45-.12 2.07 2.07 0 0 0 -1-.59c-3.08-.58-6.16-1.15-9.26-1.66a17.09 17.09 0 0 1 -7.94-3.66c-1.38-1.1-2.67-2.41-4.47-1.77.38-.79 1.31-2.09 1.09-2.33-1.88-2-.35-2.6 1.19-3.29a5.66 5.66 0 0 0 .94-.77c1.81-1.41 3.71-2.71 5.4-4.24a10.89 10.89 0 0 0 1.65-2.8c-1.05-.24-2.09-.51-3.15-.72a1.21 1.21 0 0 0 -.76.26c-2.16 1.49-4.32 3-6.48 4.51a34.06 34.06 0 0 1 -3.12 2.16c-1 .57-2.36.69-3.26 1.39-3 2.32-6.19 4.47-8.24 7.79a4 4 0 0 1 -1 1c-2.45 1.92-4.89 3.84-7.38 5.69-3.38 2.51-6.81 5-10.19 7.45a2.56 2.56 0 0 0 -.89 1.33c-.68 2.55-2.65 4-4.75 5a39.15 39.15 0 0 0 -8.71 6.11c-2.38 2.1-4.76 4.49-8.32 4.64-.41 0-1.13.39-1.15.65-.18 1.93-1.82 1.91-3.06 2.49s-2.49 1.82-3.84 2c-.83.14-1.7.26-2.57.36a18.9 18.9 0 0 1 -7.8 2.54c-1.1.59-2.21 1.14-3.35 1.62.11 1.59.22 3.19.31 4.79.28-.11.59-.23 1-.4 1.11-.48 2.06-1.35 3.19-1.77 1.88-.68 3.84-1.59 5.78-1.6a17.24 17.24 0 0 0 7.24-1.64 74.52 74.52 0 0 1 7.16-2.84c2.89-1 5.86-1.68 8.77-2.57 2.18-.66 5.74 1.23 6.31 3.39a1.34 1.34 0 0 0 .48.69c1 .72 2 1.39 3 2.1.65.46 1.23 1.25 1.92 1.35 1.49.23 2.93.17 3.51 2 .13.38 1.17.49 1.79.7 1 .35 2 .66 3 1 .82.3 1.6.75 2.44 1 2.71.7 5.26 1.65 8.22 1.83 4.58.27 8.33-1.63 12.34-2.9.71-.23 1.07-1.55 1.59-2.37a9.72 9.72 0 0 0 -2.43-1.18 74.62 74.62 0 0 0 -7.59-1 6.24 6.24 0 0 1 -4.87-2.94c-1.11-1.58-2.4-2.56-4.45-2a1.8 1.8 0 0 1 -1.16-.05c-2.53-1.27-5-2.66-7.55-3.88a8.23 8.23 0 0 1 -2.53-2.45c-1.25-1.4-3.09-2.27-4.6-3.47-.91-.73-.64-1.6.26-2.17a6 6 0 0 1 1.55-.47c2-.56 2.06-.82.92-2.54l.18-.6c1.79.58 3.78.85 5.33 1.82 3.37 2.1 6.52 4.57 9.76 6.88a4.25 4.25 0 0 0 1 .6c2.19.67 4.51.94 6.29 2.68.38.37 1.3.16 2 .28 1.79.34 3.58.71 5.37 1a31.05 31.05 0 0 0 4.92.84c2.71.07 5.42-.13 8.13-.28a17.93 17.93 0 0 0 4-.53 4.24 4.24 0 0 0 2.19-1.63c1.2-1.79.72-2.74-1.45-3-1.77-.17-3.51-.28-5-1.49-.28-.23-.78-.19-1.17-.32-2.29-.78-4.58-1.55-6.86-2.35-1.27-.44-2.52-1.29-3.8-1.31-3.32-.07-6.1-1.68-9.08-2.72a6.89 6.89 0 0 1 -2.4-1c-1.48-1.41-2.76-3-4.19-4.5a1.68 1.68 0 0 0 -1.28-.39c-1.69.25-2.44-.76-2.72-2.1s-.33-2.88 1.32-3.68c1.45-.71 2.94-1.37 4.33-2.18.57-.33 1.44-1.3 1.33-1.49-1.15-1.94.68-2.49 1.53-3.43 1.06-1.17 3.31-1.23 4.68-.46 2.34 1.32 4.72 2.58 7.15 3.74s4.62 3.33 7.59 3.9c1.75.33 3.32 1.57 5.08 2 6.14 1.37 12 4 18.44 4 2.81 0 5.62-.24 8.42-.49.52-.05 1-.62 1.48-1a29.8 29.8 0 0 0 2.52-2.38 16.85 16.85 0 0 0 3.69-6.94c-1.03.35-2.11 1.04-2.62.75z"/><path d="m206.91 208.7c-.44-.68-1.18-.78-2.35.07-2.3 1.7-2.24 5.18-3.05 7.62a25.74 25.74 0 0 1 -4.7 8.23c-7.68 9.36-18.09 19.23-30.95 19.14a3.6 3.6 0 0 1 3.12 1.59l-7.11 5.51a4.71 4.71 0 0 1 -2.9 1.31c-2.19-.09-3-2.82-4.32-4.57-2.55-3.4-7.69-3.33-11.26-5.65s-5.28-7.14-8.64-10a11.88 11.88 0 0 0 -13.08-1.42 46.45 46.45 0 0 0 18.58 21.15c3 1.8 11.3 6.76 6.68 11.16-2.19 2.09-5.79.6-8.26-1.15-8.48-6-15.11-14.28-21.62-22.42-2.28 5.23.15 11.33 3.4 16a48.76 48.76 0 0 0 14.19 13.59 8.81 8.81 0 0 0 3.53 1.49c3.36.42 6-2.57 8.73-4.58 5.59-4.15 12.76-4.58 19.2-6.56 6.05-1.87 8.75-6.32 13.39-10.19 5.55-4.64 11.59-8.69 16.82-13.72a39 39 0 0 0 9.74-14.09c.48-1.31 2.36-10.21.86-12.51z"/><path d="m278.7 292.62c-3.28.39-6.55 1-9.84 1.12-4.2.13-8.41-.29-12.61-.25-7.61.05-15.22.06-22.81.47-11.05.58-22.09 1.5-33.13 2.28l-13.78 1-.09-.54 6.68-1.43a38.81 38.81 0 0 1 -2.55-4.58c-.47-1.16-.77-2.92.64-3.44 1.18-.43 2.76 0 4.1.34.29.07.52 1.14.5 1.73-.13 3.28 1.9 5.44 5.18 5.27 2.1-.11 4.19-.37 6.29-.59.24 0 .46-.25 1-.53-1.55-1.3-3-2.51-4.4-3.67-2.09-1.69-2.33-2.95-.91-5.25 1.22-2 3.65-2 4.35.15.78 2.42 2.88 3.5 4.36 5.17.56.64 2 .41 3 .71.54.17 1.47.74 1.42.93-.38 1.63.65 1.34 1.52 1.21a146.45 146.45 0 0 0 23.86-5.09 35.76 35.76 0 0 1 5.6-.93c.64-.1 1.29-.18 2.54-.34-1.26-1.25-2.09-2.17-3-3-2.12-1.8-2.21-3.63-1-6.12 1.88-3.84 5.3-5.81 8.63-8a25.18 25.18 0 0 0 4.3-3.28 9.18 9.18 0 0 1 7.08-2.94c.23 0 .46-.2 1.09-.49l-3.07-2.07c1.71-.11 2.9-.26 4.08-.22s1.45.86 1.29 1.88c-.24 1.52.6 1.94 1.92 2.26a38.74 38.74 0 0 1 6.15 2c2.31 1 4.13 4.57 3.86 7a1.74 1.74 0 0 1 -.41.89c-.83.95-1 1.52-.14 2.87.69 1.05.34 3.28-.33 4.59a22.53 22.53 0 0 1 -4.11 5.26 12 12 0 0 1 -3.32 1.87c-.91.45-1.9.73-2.81 1.18-.31.15-.49.57-.73.86.36.25.71.69 1.08.71 2 .11 3.93.11 5.9.14h2.58c0 .36.02.61.04.87z"/><path d="m219.62 171.56a.61.61 0 0 0 .12-.15c.51-.72-.17-1.66-.33-2.54-.34-1.87 1.73-3.17 3-4.6a6.54 6.54 0 0 0 .63-7.54c.18.29 1.91-4.18 1.9-4.81 0-2.12-1.35-3.11 1.13-3.6 1-.19.78-1.64.34-2.53a1.69 1.69 0 0 1 2.13.53 4.89 4.89 0 0 1 .81 2.24c.49 2.59 1 5.17 1.46 7.76a15.11 15.11 0 0 1 .38 3.54 30.51 30.51 0 0 1 -.81 4.2c-.58 3-.24 6.12-.38 9.19a14.84 14.84 0 0 1 -6.8 11.93l-9.4 6.47c-2.47 1.7-6 3.19-8 5.42-1.3 1.48-2 3.37-3 5.08s-2.39 3.37-4.33 3.76c-.57.11-1.31 0-1.56-.49a1.58 1.58 0 0 1 -.09-.81 31.29 31.29 0 0 1 5.61-15.67c.71-1 1.84-2 2.26-3.15s-.06-2 .6-3c.52-.87 1.75-1.59 2.4-2.48.86-1.18 1.21-2.41 2.5-3.15 1.73-1 3.47-.74 5-2.46.83-.94 1.5-2.15 2.69-2.52.6-.18 1.32-.18 1.74-.62z"/><path d="m251.68 171.44c-.16 2.38-.38 4.76-.45 7.14a12.77 12.77 0 0 0 .45 3.17 6.42 6.42 0 0 1 -.05 3.9c-.55 1.57-.16 3.45-.25 5.2a20.05 20.05 0 0 1 -.38 2.89 17.69 17.69 0 0 0 -.63 2.13 14.34 14.34 0 0 1 -4.49 9.41 21.18 21.18 0 0 1 -3.51 2.61 26.39 26.39 0 0 1 -3.26 2c-2.61 1.24-5.3 2.34-7.91 3.6-1.07.52-2 1.39-3 1.93a13.15 13.15 0 0 1 -2.53.72c-.11-.81-.52-1.72-.29-2.42 1-3 2.15-5.86 3.24-8.79.87-2.34 1.74-4.68 2.55-7 .17-.48 0-1.08.08-1.6a19.19 19.19 0 0 1 .79-3c.78-2 2-3.88 2.41-5.94.94-4.8 1.5-9.68 2.19-14.53a38.08 38.08 0 0 0 .62-5.8 11.63 11.63 0 0 0 -1.05-3.87 4.49 4.49 0 0 1 .19-3.56c.77-2.05.72-4.46.78-6.73 0-1.86-.33-3.72-.4-5.59-.1-2.7 0-5.41-.19-8.1a10.59 10.59 0 0 0 -1.07-2.6 4.25 4.25 0 0 1 -.1-1.14c.38 0 .94-.12 1.11.07 1.72 2.08 4.38 3.64 3.91 7a3.06 3.06 0 0 0 .23 1.58c1.26 2.8 1 5.66.57 8.58a29.81 29.81 0 0 0 -.16 4.23c0 2 .13 4 .06 6-.14 3.69-.29 7.38-.64 11-.23 2.4-.87 4.75-1.25 7.14s-.76 4.66-.93 7c-.22 2.91-.22 5.83-.32 8.74a3.18 3.18 0 0 0 0 .81c.21 1 .47 1.94.71 2.91.79-.46 1.59-.89 2.36-1.37 1-.6 1.93-1.22 2.87-1.85a5 5 0 0 0 1-.9c.66-.79 1.28-1.61 1.89-2.44a3.09 3.09 0 0 0 .71-1.19c.56-4.19 2.53-8.21 1.57-12.59a1.17 1.17 0 0 1 .16-1c1.74-1.31.92-3 .9-4.66a23.34 23.34 0 0 1 .35-3.21z"/><path d="m82.09 22.56c1.81.41 3.62.84 5.43 1.24.46.11.94.1 1.4.19 1.9.35 3.8.72 5.7 1.09.45.09 1.15.49 1.3.34 1.5-1.61 3.53-.67 5.26-1.07 3.48-.8 6.57 1.1 9.7 2.29 2.45.92 4.24 2.77 6.08 4.59 1.13 1.12 2.66 1.81 3.9 2.83a27.86 27.86 0 0 1 3 2.94c.86 1 .51 1.87-.33 2.68s-1.33.07-2-.37c-4-2.49-7.27-5.92-11.74-7.61-3.61-1.36-7-1.87-10.34.85-1.76 1.44-3.85.78-5.79-.09a10.58 10.58 0 0 0 -1.87-.46c-.26-.06-.62.06-.77-.09-2.13-2-4.78-2.93-7.46-3.83-.32-.11-.66-.44-.93-.39-3.5.72-7.13.14-10.59 1.09-.48.14-.82.68-1.27.94a12.36 12.36 0 0 1 -2.63 1.35 2.13 2.13 0 0 1 -1.25-4.07 46.26 46.26 0 0 1 15.2-4.44z"/><path d="m62.82 67.67c-.28 1.51-.83 1.81-2.07 1.2-1.43-.71-3.22-1-4.29-2.09a11.93 11.93 0 0 1 -3.31-5.14c-.82-3.29-1.9-6.27-4.25-8.76a5.44 5.44 0 0 1 -1.25-5.49c.26-.92.43-1.7 1.74-1.86 1.5-.18 1.22-1.57 1.09-2.63-.16-1.34-1.12-2.72.54-3.87.23-.16 0-1-.06-1.54a28.47 28.47 0 0 1 -.37-3c0-.33.71-1 .84-1 1.41.62 1.81-.44 2.61-1.21a13.69 13.69 0 0 1 3.71-2.41 2.45 2.45 0 0 1 2.06.36c.34.26.39 1.27.19 1.79-.52 1.37-1.36 2.62-1.86 4a5 5 0 0 0 -.37 2.9c1 3.29.92 6.14-1.71 8.81-1.39 1.41-.3 3.37.23 5a53.7 53.7 0 0 0 2 5.55c.79 1.78 1.87 3.42 2.74 5.16.64 1.4 1.19 2.83 1.79 4.23z"/><path d="m138 39.7c0 .14-.1.31 0 .4 2.18 3.7-.21 7.38 0 11.06.1 2.06.81 4.1.93 6.17a32.82 32.82 0 0 1 -.1 8.41c-.32 1.57-2.13 2.86-3.35 4.19-.67.75-1.55 1.31-2.29 2a5.38 5.38 0 0 1 -7.34.19c-1.18-1.08 0-1.77.69-2.43 2.19-2 4.46-3.91 6.58-6s2.59-6.65 1-9.28c-.72-1.19-1.49-2.36-2.21-3.55s.06-4.48 1.42-5.31 1.17-1.52.83-2.72a13.72 13.72 0 0 0 -4.25-6.83c-.15-.13-.36-.26-.42-.44-.27-.82-.82-1.72-.66-2.47s3-.86 3.58-.31c1.66 1.48 3.34 2.94 4.88 4.53a7.47 7.47 0 0 1 1 2.27z"/><path d="m98.36 16.16a1.17 1.17 0 0 0 .79-.26c2.23-2.41 4.94-1.26 7.49-1 2 .21 4 .66 6 1 .4.07 1 0 1.17.26 1.49 1.59 3.51.94 5.27 1.39a61.83 61.83 0 0 1 9.23 2.79c1.11.47 1.67 2.28 2.36 3.54.07.12-.63.87-1.08 1-.79.28-1.69.26-2.49.52-1.15.36-2.22 1-3.35-.15-.28-.28-1 0-1.56-.14-1.29-.28-2.57-.62-3.85-.95-.19-.05-.36-.23-.55-.26-5.07-.71-10-2.78-15.26-1.79-1.48.28-3.3.63-4.47 0a6.42 6.42 0 0 1 -2.59-3.69c-.47-1.42.68-2.35 2.89-2.26z"/><path d="m287.06 211a7.54 7.54 0 0 1 -.46 2.42c-1.52 2.69-3.17 5.33-4.83 7.95a3.9 3.9 0 0 1 -1.22 1.05c-.66.47-1.64.71-2 1.33-1.51 2.52-3.76 2.16-6 1.79a7.48 7.48 0 0 1 -1.69-.57c-1.78-.74-3.56-1.49-5.32-2.27-1-.46-2-1-3-1.5-1.71-.77-3.5-1.41-5.16-2.28s-3.08-1.87-4.61-2.83a6.75 6.75 0 0 1 -1.63-1.16 7.89 7.89 0 0 1 -.87-1.8c.62-.29 1.27-.85 1.85-.79a14.72 14.72 0 0 1 2.88 1l9.14 3a2.36 2.36 0 0 0 1.17.28c3.07-.82 5.92.91 8.9.73a41.64 41.64 0 0 0 5.17-.87.64.64 0 0 0 .46-.36c.43-1.71 1.89-2 3.24-2.67a24.36 24.36 0 0 0 3.57-2.49z"/><path d="m72.77 13.52c1-.12 2-.3 3-.34 2.33-.08 4.6-.75 7 .33 1.42.65 3.32.41 5 .3a3 3 0 0 1 3.17 1.73c.3.65.14 2.21-.19 2.33-1.93.72-3.6 2.35-6.06 1.47a8.44 8.44 0 0 0 -6.26-.07c-1.65.66-3.72.24-5.59.41-3.46.31-7 .5-10.07 2.27-.21.12-.65.2-.71.12a15.89 15.89 0 0 1 -2.26-3.73c-.43-1.38.67-2.21 2-2.55l10.85-2.79z"/><path d="m95.64 271.18c0 1.08.06 2.17 0 3.25-.09 1.33-.65 2.07-2.13 1.39-1.79-.82-3.69-1.43-5.38-2.41-3.5-2-5-4.9-4.43-9 .34-2.47 2.1-3.59 4.28-2.44a33.24 33.24 0 0 1 7.14 4.81c.88.82.6 2.9.85 4.4z"/><path d="m80.78 86.09a10.07 10.07 0 0 1 -1.26-2.23c-.66-3.21-1.09-3.66-4.44-4.18a9.21 9.21 0 0 1 -7.24-5.6 11.72 11.72 0 0 0 -3.69-5c-.36-.26-.49-.84-.72-1.27a4.17 4.17 0 0 1 1.46-.16c2.36.6 4.74 1.18 7 2a12.32 12.32 0 0 0 7.57.22 8.61 8.61 0 0 1 2.37-.48 1.47 1.47 0 0 1 1 1c0 2.13-.23 4.25-.38 6.38-.18 2.49-.35 5-.61 7.48 0 .54-.49.96-1.06 1.84zm-.69-8.46c.25-.29.87-.69 1-1.19.34-1.7-.69-3.89-1.84-4.07-1-.16-1.92-.11-2.16 1.2a2.18 2.18 0 0 1 -.55 1.28 2.54 2.54 0 0 1 -1.72.63c-.53-.13-.92-.84-1.37-1.3a6.52 6.52 0 0 0 1.15-1.07 3.19 3.19 0 0 0 .24-1.19 21.26 21.26 0 0 0 -4.85-.5c-.75.09.55 3.11 1.82 4.25 2.32 2.09 5.24 1.33 8.28 1.96z"/><path d="m106.68 78.18c-.21-2.22-.44-4.43-.61-6.65 0-.48 0-1.25.33-1.42s1 0 1.46.25c1.29.56 2.52 1.28 3.83 1.79 3.13 1.2 6.14.36 9.13-.68a6.68 6.68 0 0 1 1.72-.57c.46 0 .94.36 1.41.56a5.45 5.45 0 0 1 -.62 1.17c-1.59 1.82-3.27 3.58-4.83 5.43a8.55 8.55 0 0 1 -7 3.18c-2.7 0-2.67 0-3 2.59-.07.49-.56.91-.86 1.37-.36-.44-1-.86-1-1.31-.12-1.89-.05-3.79-.05-5.69zm4.93.45a6.84 6.84 0 0 0 5.52-2.94 7.31 7.31 0 0 0 .68-1.76 20.31 20.31 0 0 0 -2.91-.13 1.32 1.32 0 0 0 -.79 1c0 1.26-.29 2.29-1.67 2.28s-1.35-1.08-1.44-2.18c0-.51-1.07-1.09-1.76-1.34-.23-.09-1.06.67-1.17 1.15-.54 2.42.86 3.92 3.54 3.92z"/><path d="m90.55 38a3.41 3.41 0 0 0 -2.18.59c-.93.53-2.07 1.35-3.19.86-.35-.15-.64-.42-1-.58-1-.45-2.06 0-3.09.26s-2.24.18-3.35.36-2 .94-3.09 1.3c-1.42.46-2.23-1.64-2.19-2.73.09-2.63 3-3.81 5.13-4.42a28.08 28.08 0 0 1 4.07-.77c1.59-.2 3.47-.73 5 0a13.82 13.82 0 0 1 2.34 1.86 20.9 20.9 0 0 1 2.72 1.89c.52.55.77 1.77-.35 1.61-.26 0-.5-.14-.76-.19z"/><path d="m104.57 34.52a1.88 1.88 0 0 1 .41 0 6 6 0 0 1 1.54.67c1.63.82 3.51 1 5.19 1.69a17.39 17.39 0 0 1 3.37 2.12 14.68 14.68 0 0 1 2.81 2.4c.82 1 2.4 4 0 4.15a3.84 3.84 0 0 1 -1.52-.35c-2.58-1-5.15-2-7.68-3.08-2.27-1-4.47-1.82-6-3.81-1.1-1.39.31-3.69 1.88-3.79z"/><path d="m88.47 46.16a23.73 23.73 0 0 0 -1.57 3.5 10.59 10.59 0 0 0 -.28 3.55c.12 1.38.48 3.06-.9 3.64s-2.49-.86-3.31-2-1.63-2.37-2.41-3.57a2.73 2.73 0 0 1 .28-3.52 14.93 14.93 0 0 0 1.53-3s0-.13 0-.2c.17-.5.46-1.45.49-1.44 1.76.48 2.47-1.18 3.69-1.71.77-.33 2 1.84 2 3.56v1z"/><path d="m103 53.28c.19-2 .24-3.92.61-5.83a4.72 4.72 0 0 1 1.53-2.5 2 2 0 0 1 3.44.91 17 17 0 0 1 -.66 12.46c-.27.65-2.42.67-3.71.66-.38 0-1-1-1.09-1.63a34.16 34.16 0 0 1 -.05-4.05z"/><path d="m285.77 176.66c1.93 4.8.74 10.32-2.77 12.78-.58.4-1.55.26-2.34.37a9.35 9.35 0 0 1 .16-2.38 44.05 44.05 0 0 1 1.92-4.8c.93-1.98 1.98-3.91 3.03-5.97z"/><path d="m119.14 62.07a14.92 14.92 0 0 0 .43-1.58 16.83 16.83 0 0 0 .32-2.91c0-1.2-.1-2.42 1.36-2.81s2.15.4 2.68 1.6a7.4 7.4 0 0 1 -2.07 8.29c-1.14.87-2.07.58-2.43-.78-.14-.52-.17-1.07-.29-1.81z"/><path d="m68.9 56.3a22.16 22.16 0 0 1 -.66 4.08 2.82 2.82 0 0 1 -1.84 1.51c-.37.08-1.29-1-1.42-1.62a39.24 39.24 0 0 1 -.81-6.64 2.73 2.73 0 0 1 1.63-1.9 2 2 0 0 1 2.74 1.43 19 19 0 0 1 .36 3.14z"/><path d="m109.36 64.44c0-1.68 1.6-4.33 2.67-4.34a2.74 2.74 0 0 1 3 2.62c0 2.06-1.51 4.19-3.06 4.24a2.51 2.51 0 0 1 -2.61-2.52z"/><path d="m77.25 60.61c-.44.73-.75 1.87-1.32 2a3 3 0 0 1 -2.25-.93 3.57 3.57 0 0 1 .55-5.21 1.62 1.62 0 0 1 1.58.37 30.7 30.7 0 0 1 1.44 3.77z"/><path d="m124.26 91.47c6.77-.08 12-2.91 17.47-6.64 5-3.44 6.46-9.83 6.87-15.66.34-4.89-7.27-4.87-7.61 0a22.69 22.69 0 0 1 -1.35 6.23c-.86 2.38-2 3-4.07 4.45a19.72 19.72 0 0 1 -11.31 4c-4.89.06-4.9 7.67 0 7.6z"/><path d="m36.69 69.42c1.12 6.77 3 13.29 10.55 14.88 3.24.67 6.23-.33 9.4-.07a16.48 16.48 0 0 1 6.87 2.77c2.93 2.12 2.95 4.29 4.1 7.24 1.77 4.5 9.13 2.54 7.34-2-1.27-3.24-1.63-6.34-4.14-9-2.35-2.52-5.66-4.12-8.8-5.4-3.5-1.43-6.26-.9-9.86-.81-6.51.15-7.22-4.09-8.13-9.62-.8-4.81-8.13-2.77-7.33 2z"/><path d="m44.68 285.46c0-4.33-.11-7.91 2.31-11.68 1.32-2.07-2-4-3.29-1.92-2.78 4.34-2.84 8.59-2.82 13.6 0 2.45 3.81 2.46 3.8 0z"/><path d="m55 286.89c-.11-3.37-1.61-7.49-.16-10.73 1-2.22-2.29-4.16-3.29-1.92-1.85 4.16-.49 8.32-.35 12.65.08 2.44 3.88 2.45 3.8 0z"/><path d="m92 295.8c-.25-1.7.74-4.32 1.33-5.88a9.9 9.9 0 0 1 3.22-4.62c1.92-1.46 0-4.76-1.92-3.28-4.14 3.13-7.08 9.55-6.29 14.79.36 2.41 4 1.38 3.66-1z"/><path d="m103.33 299a19.07 19.07 0 0 1 5.15-12.15c1.63-1.82-1-4.51-2.69-2.69a23.32 23.32 0 0 0 -6.26 14.84c-.12 2.45 3.68 2.44 3.8 0z"/><path d="m166.29 292.24c2.1-7 7.33-11.12 13.77-13.88 2.24-1 .3-4.24-1.92-3.28-7.35 3.15-13.15 8.26-15.52 16.15-.7 2.35 3 3.36 3.67 1z"/><path d="m149.48 212c1.64 3.25 3.18 6.57 5 9.75a62.5 62.5 0 0 0 4.29 6.43 7.85 7.85 0 0 0 7.61 3.48 94.8 94.8 0 0 0 13.37-2.81c1.12-.3 2.21-.7 3.33-1a19.38 19.38 0 0 1 2.29-.28 2.86 2.86 0 0 1 -1.82 2.2c-2.42 1.22-4.9 2.31-7.32 3.53a38.54 38.54 0 0 0 -4.64 2.64 22.62 22.62 0 0 1 -9.93 3.74 2.07 2.07 0 0 1 -2.18-1.08 33.55 33.55 0 0 1 -2.67-4.64c-1.76-4.19-3.46-8.42-5-12.71-1.05-3-1.72-6.16-2.56-9.25z"/><path d="m261.91 176.77c-1.24 9.64-4 19-7.17 28.56-.08.24-.45.38-.75.62.17-2 .23-3.82.5-5.62.44-3 1-6 1.54-9a142.44 142.44 0 0 0 2.4-18.28 78.51 78.51 0 0 0 -4.64-32.42c-.54-1.44-1.22-2.84-1.83-4.26l.57-.37a8.41 8.41 0 0 1 1.33 1.56c2.87 5.71 6.28 11.31 7.74 17.6 1.62 6.97 1.21 14.61.31 21.61z"/><path d="m250.78 130.41c-9.11-11.42-21.59-18.3-34-25.32l.42-.74 11.81 5c-3.93-4.88-10.11-6.48-14.84-10.44 1-1.2 2.11-.64 2.95-.24 9.5 4.51 18.84 9.29 25.59 17.73 2.91 3.65 5.56 7.51 8.26 11.32a6.06 6.06 0 0 1 .53 2.06z"/><path d="m271.08 147c2.62 4.14 4.16 8.56 3.67 13.46-.69 6.82-1.28 13.65-2.26 20.43a139.36 139.36 0 0 1 -6 24.88 15.87 15.87 0 0 1 -2.24 4.75 5.9 5.9 0 0 1 -.22-1.84c.8-4.19 1.76-8.36 2.52-12.56s1.48-8.2 1.92-12.33c.77-7.23.88-14.52 2.87-21.61a25.93 25.93 0 0 0 .23-12.11c-.19-1.02-.32-2.07-.49-3.07z"/><path d="m268.25 150.11a97.08 97.08 0 0 0 -11.41-23.89c-4.72-7.38-11.41-13-18.21-18.37 18.84 9.47 30.65 28.58 29.62 42.26z"/><path d="m160 169.9a.64.64 0 0 1 .32.63 1.93 1.93 0 0 1 -.3.92c-4.1 7.42-9.81 14.49-17.06 19-4.45 2.79-8.92 5.55-13.31 8.43a16.74 16.74 0 0 1 -7.38 2.7 14.47 14.47 0 0 1 -4.05-.13 26.76 26.76 0 0 0 -4.35-.85 3.49 3.49 0 0 0 -2.47.83c-.35.34-.6.76-1 1.1a12.26 12.26 0 0 1 -4 2 18.19 18.19 0 0 1 -4.67 1 46.1 46.1 0 0 1 -9.53-.49c-.32 0-1.48-.62-.6-.8 2.09-.43 4.21-.57 6.28-1a45.74 45.74 0 0 0 6.07-1.86c5.31-2 10.61-4 16-5.86 2.57-.91 5.17-1.71 7.77-2.54a22.09 22.09 0 0 0 6.42-3.21c4-2.83 8.16-5.38 11.94-8.53 2.5-2.09 4.89-4.3 7.23-6.55a43.21 43.21 0 0 1 3.5-3.4c.4-.29 2.39-1.74 3.19-1.39z"/><path d="m84.3 104.63c.64.8 1.35 1.32 1.29 1.7-.1.55-.76 1-1.18 1.51-.5-.42-1.34-.81-1.39-1.28s.66-1.06 1.28-1.93z"/><path d="m78.57 105.08c-.74-.83-1.51-1.34-1.44-1.68a2.26 2.26 0 0 1 1.23-1.4c.26-.11 1.22.65 1.26 1.07s-.52 1.06-1.05 2.01z"/><path d="m85.91 112.47c-.81.57-1.33 1.21-1.75 1.16s-1.16-.78-1.16-1.19a1.69 1.69 0 0 1 1.19-1.17c.42-.05.92.61 1.72 1.2z"/><path d="m76.73 111.07c-.6-.83-1.23-1.32-1.21-1.79s.69-.91 1.07-1.36c.4.46 1 .88 1.12 1.4s-.48.91-.98 1.75z"/><path d="m111.59 117.57c-.76.43-1.29 1-1.68.89s-1.06-.93-1-1.16a2.1 2.1 0 0 1 1.34-1.08c.31-.05.75.7 1.34 1.35z"/><path d="m71.15 104.3a9.18 9.18 0 0 1 1.2 2c.08.31-.45.77-.7 1.16a8.53 8.53 0 0 1 -1.59-1.46c-.06-.2.53-.86 1.09-1.7z"/><path d="m91.12 112.82c-.69.54-1.17 1.19-1.51 1.12-.51-.1-.91-.72-1.35-1.11.44-.41.84-1 1.35-1.15.33-.07.82.59 1.51 1.14z"/><path d="m113.33 113.09c-.71.43-1.31 1-1.48.86a2.9 2.9 0 0 1 -1.06-1.38c-.05-.17.78-.93.95-.85a7.29 7.29 0 0 1 1.59 1.37z"/><path d="m117.46 117.61-1.52 1.21c-.33-.42-.85-.81-.91-1.26s.58-1 .87-1 .85.54 1.56 1.05z"/><path d="m78 115.65c-.72.54-1.11 1-1.47 1s-.75-.54-1.12-.84c.32-.35.6-.93 1-1s.78.41 1.59.84z"/><path d="m88.79 110.11c-.47-.61-1-1-.91-1.24s.48-.77.74-1.16c.34.3.92.57 1 .9s-.43.8-.83 1.5z"/><path d="m66.16 100c.47.59 1 1.05.94 1.23a2.84 2.84 0 0 1 -1.1 1.11c-.09.06-.89-.59-.84-.79a6.05 6.05 0 0 1 1-1.55z"/><path d="m74.54 99.16c-.63.51-1 1-1.36 1a1.31 1.31 0 0 1 -.88-1 1.44 1.44 0 0 1 .89-1c.28-.05.72.52 1.35 1z"/><path d="m66.43 112.78a8.6 8.6 0 0 1 -.92-1.66c-.05-.17.42-.5.65-.75a6.53 6.53 0 0 1 1 1.25c.08.15-.33.55-.73 1.16z"/><path d="m119.57 116.7c.59-.5.92-1 1.33-1 .23 0 .87.61.82.81a1.81 1.81 0 0 1 -.9 1c-.2.09-.65-.4-1.25-.81z"/><path d="m111.66 107.29c-.66.42-1.09.89-1.32.81-.39-.14-.66-.63-1-1 .3-.27.64-.79.91-.76s.75.5 1.41.95z"/><path d="m114 122.72c-.43-.61-.94-1.06-.85-1.24a1.68 1.68 0 0 1 1-.87c.21 0 .84.56.8.8-.06.39-.51.73-.95 1.31z"/><path d="m120.61 121.51a5.63 5.63 0 0 1 -1.52.83c-.2 0-.74-.57-.7-.65a2.35 2.35 0 0 1 .93-1c.19-.11.68.37 1.29.82z"/><path d="m117.72 109.71c.47.59.92.91.92 1.23s-.43.68-.67 1c-.31-.28-.81-.52-.89-.85s.3-.69.64-1.38z"/><path d="m124.44 109.27c-.61.38-1 .74-1.31.76s-.73-.56-.68-.76a1.33 1.33 0 0 1 .79-.9c.27-.05.63.45 1.2.9z"/><path d="m90.08 116.05c-.56.47-.87.93-1.19.94s-.65-.44-1-.69c.26-.31.49-.82.8-.88s.75.31 1.39.63z"/><path d="m116.8 104.44c-.69.32-1.12.7-1.4.6a1.49 1.49 0 0 1 -.67-1c0-.13.58-.61.84-.56s.64.52 1.23.96z"/><path d="m72.32 114.1c-.34.15-.72.46-1 .4a1.47 1.47 0 0 1 -.89-.74c-.07-.13.37-.76.59-.76s.7.32 1.05.51c.06.19.16.39.25.59z"/><path d="m106.79 108.56c-.51.46-.84 1-1.11.93s-.69-.5-.78-.85.4-.78.62-.78.69.35 1.27.7z"/><path d="m120.94 103c-.29-.51-.62-.83-.59-1.12s.45-.48.7-.72c.23.29.61.57.63.87s-.39.56-.74.97z"/><path d="m105.56 116.21c-.43.35-.69.74-1 .74s-.51-.39-.77-.62c.23-.26.43-.68.7-.72s.61.31 1.07.6z"/><path d="m83.6 116.19c-.49.29-.85.66-1.07.59a1.23 1.23 0 0 1 -.58-.84c0-.13.46-.55.64-.51s.55.39 1.01.76z"/><path d="m62.73 113.1.91 1.33-.53.42-1.11-1.25z"/><path d="m125.51 115.35c-.32.28-.55.63-.77.62s-.65-.46-.61-.57a3 3 0 0 1 .68-.8z"/><path d="m72 118.43c-.4.28-.69.63-.85.58s-.53-.43-.79-.66c.2-.21.44-.61.59-.58.3.06.57.35 1.05.66z"/><path d="m78.1 119.53c-.36.31-.64.69-.79.65s-.5-.43-.74-.66c.22-.19.44-.5.67-.52s.48.28.86.53z"/><path d="m106.51 112c.28.3.59.52.56.63a1.21 1.21 0 0 1 -.53.63c-.08 0-.52-.28-.51-.41s.25-.48.48-.85z"/><path d="m108.82 121c-.45.25-.75.53-.95.47s-.4-.42-.47-.68c0-.1.38-.44.53-.41s.47.31.89.62z"/><path d="m61.82 107.89c-.07-.38-.15-.75-.22-1.13l.69-.12c.07.38.14.76.2 1.15z"/><path d="m127.48 113.91a2.09 2.09 0 0 1 -.22-.81c0-.15.36-.26.55-.39a2.51 2.51 0 0 1 .36.76 2.23 2.23 0 0 1 -.19.76z"/><path d="m67.2 116.56c-.38.16-.62.36-.79.31s-.27-.34-.4-.53c.18-.12.38-.36.56-.34s.33.28.63.56z"/><path d="m83.78 120c-.2.22-.32.44-.43.44s-.28-.18-.39-.32.14-.26.22-.27a2.57 2.57 0 0 1 .6.15z"/><path d="m124.44 121-.4.25c-.05-.1-.17-.25-.13-.31s.21-.2.33-.3z"/><path d="m111.67 125.61-.37-.49a1.63 1.63 0 0 1 .43-.27c.06 0 .26.18.25.24a2.24 2.24 0 0 1 -.31.52z"/><path d="m156.67 75.48 2.33-1.48a7 7 0 0 0 -1-.88 6.19 6.19 0 0 1 -3.14-4 10.83 10.83 0 0 1 -.17-5.33c.4-2.08 2-4 .87-6.31a12.94 12.94 0 0 0 -1.42-2.86c-2.71-3.1-5.64-6-8.3-9.15a31.77 31.77 0 0 1 -2.84-4.85l.64-.51c1.37 1 3 1.87 4.06 3.18 4 5 8.59 9.43 11.63 15.13a16.65 16.65 0 0 1 2.41 7.81 12.47 12.47 0 0 0 2.15 6.21c1.21 1.86 1.19 3.81 1.46 5.75.52 3.67-.32 7.26-1.19 10.81-.36 1.45-.7 2.91-1.16 4.33a18.72 18.72 0 0 1 -1.18 2.53c-.09.17-.43.37-.4.43 1.39 2.67-1.63 4-1.86 6.3s-1 4.19.69 6.34a4.8 4.8 0 0 1 .14 4.24c-1.43 2.75-3.41 5.24-6.58 6.3-1.72.58-5.09-.78-6-2.38a7.47 7.47 0 0 1 .77-8.54c.55-.65 1.17-.81 1.6.07.8 1.64 1.5 3.33 2.28 5s1.7 1.9 3.05 1.19c2.34-1.22 2.4-2 1.9-3.83-.55-2-1.84-3.57-2.6-5.39-.38-.93.37-2.36.68-3.54.15-.57.71-1.13.64-1.64-.28-2.21 1.2-2.79 2.57-3.27-.13-.22-.48-.56-.51-.92-.13-1.29-.12-2.6-.23-3.89a1 1 0 0 0 -.6-.65 2.74 2.74 0 0 0 -1.6 0 70.38 70.38 0 0 0 -7.9 3.86c-2.46 1.5-4.63 3.48-7 5.19a9 9 0 0 0 -3.15 3.57 13.18 13.18 0 0 1 -3.38 4.18c-1.24 1.08-2.39.55-3-1a1.51 1.51 0 0 1 -.18-.58c-.08-4.07-3.11-6.28-5.59-8.83-.75-.77-2-1.54-1.13-2.64a3.58 3.58 0 0 1 2.83-.83c2.18.25 3.53 1.9 4.77 3.54s1.54 1.75 3.15.39c2.16-1.83 4.38-3.58 6.57-5.37.2-.16.55-.43.51-.55-.71-2.36 1.32-1.83 2.39-2.26s2.3-.79 3.44-1.2c.25-.09.68-.28.67-.39-.22-2.34 1.42-1.34 2.49-1.44 2.22-.21 4.45-.44 6.67-.75 1-.14 1.69-2.38.8-3.19-1.4-1.29-.8-2.65-.43-3.88.71-2.58.86-2.5-1.62-4.02z"/><g fill="#ede3df"><path d="m74.71 67.32c-2.63-.49-5.26-1-7.41-2.78-.7-.54-1.3-1.12.31-1.54 1.88-.57 2.44-2.35 2.61-4.17a20.38 20.38 0 0 1 .32-2.44 4.44 4.44 0 0 0 -2.22-4.94 1.12 1.12 0 0 1 -.53-1.48c.41-1.65 1.7-2.58 2.88-3.46a2.65 2.65 0 0 1 2.92.28c2.34 1.43 2.61 3.94 3.46 6.14.14.34 0 .86.38 1 2.2 1.22 3.13 3.92 5.71 4.73a1.77 1.77 0 0 1 1 2.76c-2 3.14-5.11 4.64-8.41 5.89a3 3 0 0 1 -1.02.01zm1.29-10.51c-1.46-1.16-1.46-1.16-2.75.72a1.66 1.66 0 0 0 -1 2.06c.28 1 .27 2.26 1.79 2.3l.56.32c.63 1 1.5.71 2.14.18.97-.79.41-4.71-.74-5.58z"/><path d="m118 69.05c-1.28.19-1.86-.82-2.54-1.56s.06-1.08.44-1.35c1.49-1 1.61-2.7 2-4.18a2.34 2.34 0 0 0 -1.42-2.69 6.48 6.48 0 0 0 -.78-.26c-2.42-.9-2.52-.62-1.91-3.18a11.86 11.86 0 0 1 2.71-5.41 1.59 1.59 0 0 1 2.17-.46c1.21.67 2.47.12 3.58-.43a4.8 4.8 0 0 1 5.5.49 2.64 2.64 0 0 1 1.25 2.37c0 .36 0 .92.17 1.1 1.87 1.57.53 3.57.75 5.35.24 2-1.51 3.27-2.27 4.89-1.15 2.45-4 1.78-5.41 3.51a4.06 4.06 0 0 1 -2.91 1.64c-.48.02-.91.12-1.33.17zm1.18-7.89a6 6 0 0 0 .24 3 1.9 1.9 0 0 0 2.53 1.08c3.16-1.54 4.39-7.41 2.13-10.09a2.79 2.79 0 0 0 -2.83-.9 2 2 0 0 0 -1.57 1.86c-.32 1.61-.86 3.18-.52 5.05z"/><path d="m272.59 288.62a22.42 22.42 0 0 0 4.92-2.94 14.49 14.49 0 0 0 5.54-10.55 24 24 0 0 0 -.37-7.37c-.76-2.89 1.09-4.8 4.18-4.45 5.15.58 7 3.12 7.81 8.94.9 6.71-5.26 13.51-10.34 15.27a28.94 28.94 0 0 1 -10.33 1.7 1.38 1.38 0 0 1 -1.41-.6z"/></g><path d="m294.53 279.28a10.31 10.31 0 0 1 -.08-1.75c.45-3.75-1.18-7-2.39-10.38a4.92 4.92 0 0 0 -2.72-2.24 19.78 19.78 0 0 0 -10.72-1.48 35.88 35.88 0 0 1 -4.85.48 2.53 2.53 0 0 1 -1.87-.78c-.24-.33.11-1.27.42-1.8 1-1.75 2.17-3.43 3.28-5.14.22-.34.41-.85.72-.95 1.73-.54 2.34-1.7 2.44-3.46.05-.91.93-1.18 1.67-.53.54.48.82 1.25 1.36 1.73a20.55 20.55 0 0 0 2.66 2 23.33 23.33 0 0 1 2.11 1.1c1.51 1.23 1.45 1.75-.15 2.87a3.59 3.59 0 0 0 -.49.35c-.35.38-.68.79-1 1.18a14.38 14.38 0 0 0 1.29.79 2.41 2.41 0 0 0 1 .25c4.11.18 6.2 3.06 8 6.15 2.23 3.88.8 7.81 0 11.69z"/><path d="m163.41 117.27a3.79 3.79 0 0 1 .72-2.37c5.17-9.06 8.54-18.33 8.46-28.92a58.82 58.82 0 0 0 -10.69-32.76c1.24 1.81 1.32 5.94 1.86 8.1.76 3 1.69 6 2.66 8.92 1.89 5.76 1.19 11.71-.32 17.51a79.56 79.56 0 0 1 -3.52 10.44c-1.44 3.46-2.58 6.7-.43 10.1 1.42 2.23-.36 6.37-2.85 7.83l-1.05 1.13c-1.56 3.44-4.24 4.43-7.26 2.71a3.61 3.61 0 0 0 -1.16-.46c-2.5-.44-3-3-4.31-4.66-.31-.36.1-.87 0-1.24-.25-1.84 1.48-3.3.92-5.28-.05-.16-.45-1.92.6-2.4 1.23-.56 2.47-1.62 3.88-.58s2.48 3 2 4.45c-.53 1.77.53 2.33 1.14 3.15.75 1 3.39 0 3.07-1a22.29 22.29 0 0 0 -1.38-4.38c-.77-1.5-1.53-2.46-1.49-4.26 0-.86 1.07-9-2.36-6.33-2.62 2-6.67 1.62-8.95 4a16.71 16.71 0 0 1 -2 2.32 18.88 18.88 0 0 0 -2 1.21c-.8.76-.94 2-1.25 3-.83 2.77-3.71 2.34-4 5.73a2.26 2.26 0 0 0 1.78 2.6c1.74.22 2.65 1.93 4.32 2.2.66.11 1.9.71 1.55 1.68-.42 1.16-.17 2.25-1.08 3.15-.63.61-3 1.16-3.89 1.58-3.71 1.78-7.73 2.77-11.68 4a30.44 30.44 0 0 1 -5 1.22 26.32 26.32 0 0 1 -9.37-.87c-6-1.43-12-3.59-16.79-7.54 0 0-8.37 5-9 5.31-4 1.87-8.42 3.23-12.84 2.29-3.6-.77-6.8-3-10.45-3.54a28.08 28.08 0 0 1 -3.68-.5 6.45 6.45 0 0 1 -3.45-2.41 38 38 0 0 0 -2.12-3.4c-3.4-3.76-4.82 2.61-6.56 4.41-1.54 1.59-3.44 2.41-5.63 1.59a12.65 12.65 0 0 1 -3.7-2.56 94.82 94.82 0 0 1 -8-7.65c-11.55-12.91-13.72-32.08-7.52-48.26-.08.19-1.13.62-1.35.79a7.83 7.83 0 0 0 -1.24 1.15 12 12 0 0 0 -1.78 3c-1.13 2.5-1.44 5.53-1.77 8.24a63.35 63.35 0 0 0 2.24 25.57 35 35 0 0 0 1.54 4.14.9.9 0 0 0 -.93.11c-2.07 1.46-8.08 16.86-7.91 19.24.34 4.94 2.25 9.42 2.25 14.48 0 5.72-1 11.39-1.16 17.11-.42 14.29 6.93 26.39 13.76 38.41a306.61 306.61 0 0 0 18.76 29.61 161.19 161.19 0 0 0 10.91 13.41c3.55 3.88 7.55 8.7 12.42 10.93a8.28 8.28 0 0 0 7 .26c5.5-2.7 6.93-12.88 8-18.17a77.3 77.3 0 0 0 .93-23.22c-.18-1.66-.83-3.68-2.4-4a13.31 13.31 0 0 0 .13-1.7 95.1 95.1 0 0 1 .31-12.29c.78-6.22 2.88-12.33 4.56-18.35 1.53-5.46 2.51-10.93 5.3-16a36.54 36.54 0 0 1 5.73-7.7c1.17-1.2 7-4.75 6.49-6.45a1.56 1.56 0 0 0 -.14-.33 1.4 1.4 0 0 0 -.32-.26 59.47 59.47 0 0 0 7.17-2.1c5.31-1.93 10.41-4.64 16-5.68 6.07-1.12 12.33.27 18.45-.76a28.94 28.94 0 0 0 21.72-17.73c-.7.55-1.72-.15-1.85-.97z" fill="#ede3df"/><path d="m17.32 145.65c.21.93 3.64 3 4.44 3.74q2.28 2.1 4.35 4.41a65.11 65.11 0 0 1 7.36 9.95c3.94 6.54 7.58 13.06 15.12 16a42.19 42.19 0 0 0 19.8 3c12.06-1.4 20.19-11.67 30.14-17.44.93-.55 2.21-1 3-.31a1.85 1.85 0 0 1 .27 2.13 5.48 5.48 0 0 1 -1.53 1.69c-6.77 5.61-13.41 11.3-20 17.08-11.3 9.9-25.18-.3-37.87 2.28-1.91.39-4 1.07-5.72.19a7.15 7.15 0 0 1 -2.68-3.18c-6.95-12.56-13.53-25.54-16.68-39.54z"/><path d="m28.92 190.33c4.24 4 8.35 8.14 12.74 11.95a99.52 99.52 0 0 0 9.94 7.34c4.17 2.77 8.58 3.43 13.32 1.09 6.57-3.23 12.56-7.35 18.55-11.48 1.53-1.04 2.94-2.23 4.53-3.23a30.62 30.62 0 0 1 3.3-1.66 4.59 4.59 0 0 1 -1.55 4.29c-3 3.15-6.11 6.13-9.07 9.27a61 61 0 0 0 -5.54 6.49 36.12 36.12 0 0 1 -12.9 11 3.33 3.33 0 0 1 -3.86-.43 53.24 53.24 0 0 1 -6.51-5.53c-4.97-5.35-9.87-10.77-14.4-16.43-3.22-4-5.93-8.33-8.87-12.51z"/><path d="m25.05 134.53c3.79 2.41 7.64 4.72 11.36 7.23 4.19 2.83 8.27 5.84 12.42 8.75a21 21 0 0 0 9 3.35c4.91.76 9.87 1.27 14.81 1.86a5.77 5.77 0 0 0 1.66 0q9.1-1.56 18.21-3.18c1.09-.19 2.17-.44 3.24-.69s2.07 0 2.29 1.31-.76 1.59-1.67 1.78c-2.89.6-5.8 1.09-8.69 1.7-3.15.68-6.29 1.42-9.43 2.19a5.36 5.36 0 0 0 -2 .9 7.71 7.71 0 0 1 -6 1.33c-3.58-.39-7.15-.79-10.73-1.07a29.37 29.37 0 0 0 -3.85.24c-4 .2-7.31-1.42-10.43-3.68-4.92-3.55-9.67-7.3-13.1-12.55-1.63-2.49-3.95-4.51-5.9-6.79a20.35 20.35 0 0 1 -1.54-2.43z"/><path d="m60 247.47c2.08-3.83 4.36-6.82 7.84-8.78 4.36-2.45 9.22-3.45 13.94-4.86 8.31-2.49 16.66-4.9 24.89-7.66 3.85-1.29 7.46-3.32 11.17-5 .34-.15.57-.52 1.29-1.21-11 1-21.37 3.65-31.93 1.92 0-.19-.09-.38-.14-.57a37.19 37.19 0 0 1 4.22-1.94c6.2-2 12.41-4 18.66-5.79 5.18-1.54 10.49-2.67 15.59-4.42 3.37-1.16 6.43-3.18 9.69-4.68 4.78-2.2 8.49-5.88 12.63-9 7.62-5.73 12.66-13.43 17-21.68a28.72 28.72 0 0 0 1.65-4.19 4.68 4.68 0 0 1 4.05-3.54 58.18 58.18 0 0 0 6.41-1.77 44.8 44.8 0 0 1 -2.73 5.06c-2.39 3.28-3.53 7.15-5.36 10.69a87.74 87.74 0 0 1 -4.78 7.54c-1.14 1.72-2.39 3.36-3.51 5.08-3.61 5.51-8.51 9.81-13.24 14.26-1.88 1.77-3.67 3.63-5.59 5.35s-3.8 3.25-5.8 4.75q-5.1 3.81-10.33 7.44c-5.12 3.56-10.37 6.86-16.34 8.88a24.09 24.09 0 0 0 -4.16 2.21 50.89 50.89 0 0 1 -14.7 5.37 101.62 101.62 0 0 0 -10 3 73.27 73.27 0 0 1 -17.42 3.62c-.87.07-1.75-.04-3-.08z"/><path d="m39.67 114.88a23.26 23.26 0 0 1 -.8-3.78 2.49 2.49 0 0 1 .94-1.64 1.51 1.51 0 0 1 1.4 0c3 1.83 4.58 8.53 2.77 11.51s-4.28 3.17-7.23.7a93.13 93.13 0 0 1 -9.11-9.51 52.25 52.25 0 0 1 -5.64-7.11c-1.22-2-1.73-4.35-2.53-6.56-.2-.57-.19-1.22-.44-1.76-3.31-7-2.7-14 .42-20.93a21.61 21.61 0 0 1 3-4.45 7 7 0 0 0 1.33-5.59 15.13 15.13 0 0 1 3.87-12.68c2.41-2.8 4.68-5.73 7.27-8.35a19.32 19.32 0 0 1 5.15-3.46c1.29-.64 1.9.07 1.6 1.5a10.13 10.13 0 0 1 -3.94 6c-1.15.9-2.66 1.37-3.7 2.37a40.06 40.06 0 0 0 -4.76 5.48c-.4.56.07 1.77.21 2.67.18 1.17.44 2.33.67 3.5a8.83 8.83 0 0 0 .45 2.15 5.47 5.47 0 0 1 -.27 5.28c-1 1.74-1.93 3.49-3.95 4.46-1.78.86-3.19 6-2.47 7.9a2.14 2.14 0 0 1 .2 1.42 3.42 3.42 0 0 0 1.89 4.67c3.3 1.36 6.62 2.65 9.92 4 .35.14.87.5.85.73-.14 1.71 1.22 1.74 2.26 2.08 1.93.65 3.86 1.28 5.82 1.84 1.22.35 2.49.62 2.79-1.23a.76.76 0 0 1 .32-.5c3.59-1.56 6.28-5.54 11-4.1.41.12 1 .61 1 .91a10.1 10.1 0 0 1 -4.66 7.6 11 11 0 0 0 -3.3 2.86c-1.05 1.28-2.83 2.13-2.77 4.26 0 .31-1.39 1-2 .94-2.82-.4-5.57-.92-7.29-3.75a12.6 12.6 0 0 0 -3.78-3.91c-3.36-2.14-6.9-4-10.43-5.85-.49-.25-1.9.12-1.94.37a5.35 5.35 0 0 0 .15 3c.7 1.48 2.47 2.73 2.57 4.17.18 2.37 2.16 2.49 3.29 3.57a7.29 7.29 0 0 1 2.6 4.62c.26 2.3.81 4.65 2.7 6.2.87.71 2.34 1.42 3.22 1.14s.94-1.88 1.35-2.74z"/><path d="m18.49 80.83c.11 11.75 1.4 24 8.39 33.91 6.05 8.53 15.59 14.83 24.84 19.37 10.37 5.1 21.2 6.48 32.54 7.88 10.34 1.27 21.64 3.36 31.7-.47 3.91-1.49 7.31-4 11.41-5 3.85-1 7.77-1 11.7-1 4.66 0 7.42-.1 11.44-2.54 7.28-4.42 14.05-9.9 18.36-17.36 10.69-18.52 11-43.85-.6-61.89-1.32-2-4.61-.14-3.28 1.92 11 17.07 10.76 41.48.12 58.82-3.91 6.39-11.23 13.46-18.25 16.34-5.2 2.12-12 .56-17.58 1.45a36.64 36.64 0 0 0 -10.52 3.74c-10.08 5-20.18 4-31 2.68s-21.85-2.19-32-6.81c-9.47-4.3-19.41-10.47-25.58-19-6.7-9.26-7.78-20.93-7.88-32 0-2.45-3.82-2.46-3.8 0z"/><path d="m110.38 128.25a15.79 15.79 0 0 1 -9.09-2.57 28.83 28.83 0 0 1 -7-6.5c.35.44 1.46-1.28 1.63-1.51a10.58 10.58 0 0 0 1.75-3.67 6.22 6.22 0 0 1 1.67-3.42c2.1-1.75 4.69-2.93 7-4.41 1.48-.94 1.71-2.34 1.31-4.08l-2.09.53v-.57a8.17 8.17 0 0 0 -2.57-1c-3.73-.11-7.47 0-11.21 0-.46 0-1.07 0-1.36.22-1.41 1.26-2.38.55-3.35-.58a3.09 3.09 0 0 0 -1.14-.81 5.93 5.93 0 0 0 -1.42-.21c.11.53 0 1.2.35 1.55 3 3.46 7.07 5.63 10.55 8.5a2.76 2.76 0 0 1 .81 2.08c-.26 2.33-.65 4.68-2.22 6.53-.06.08-.15.16-.24.13a32.57 32.57 0 0 1 -7.2 5.93 25.52 25.52 0 0 1 -9.85 3.32v.61c6.51-.37 12.45-4.09 16.94-8.81a31 31 0 0 0 7.32 6.77 16 16 0 0 0 9.49 2.64c-.04-.25-.05-.46-.08-.67zm-15.48-22.25a1 1 0 0 1 -1-.13c-.64-.72-1.17-1.53-1.74-2.3l.6-.66c.79.68 1.62 1.32 2.34 2.06.16.2.02.86-.2 1.03z" fill="#231815"/></svg>