<?xml version="1.0" encoding="utf-8"?>
<!-- Generator: Adobe Illustrator 24.3.0, SVG Export Plug-In . SVG Version: 6.00 Build 0)  -->
<svg version="1.1" id="圖層_1" xmlns="http://www.w3.org/2000/svg" xmlns:xlink="http://www.w3.org/1999/xlink" x="0px" y="0px"
	 viewBox="0 0 581.1 456.7" style="enable-background:new 0 0 581.1 456.7;" xml:space="preserve">
<style type="text/css">
	.st0{fill:#000100;}
	.st1{fill:#003158;}
	.st2{fill:#B86831;}
</style>
<g>
	<path class="st0" d="M244.9,170.6C244.8,170.6,244.8,170.6,244.9,170.6C244.8,170.6,244.8,170.6,244.9,170.6L244.9,170.6z"/>
	<path class="st1" d="M294.3,34.1c0,0,0.3-7.6-11.6-8.4c-5.9-0.4-9.4-5.4-9.4-5.4s-0.4,8.8,9.1,9.3C289.4,30,292.4,31.8,294.3,34.1z
		"/>
	<path class="st1" d="M294.8,17.6c2.9,3.2,8,1.6,8,1.6s-5.4-1.9-6.4-4.4c0,0,6.4-1.6,9,0.9c0,0-2.1,1-2.8,1.3l2.6,1.3l6-2.2
		c0,0-8.1-9.9-22.9-2.7C288.4,13.5,292,14.4,294.8,17.6L294.8,17.6z"/>
	<path class="st1" d="M262.1,29.6c-3.6,18,8.4,25.9,21.4,25.1c5-0.3,8.5,3.6,8.5,3.6c-3.6-9.1-11.5-8.8-19.7-11.7
		C264.1,43.6,262.1,29.6,262.1,29.6L262.1,29.6z"/>
	<path class="st1" d="M243.5,30.7c-1.6,1.7-3.5,4.4-5.2,8.4c-7.4,17.3,5.2,26.1,1.7,46.9c0,0,11.5-9,6.2-29.4
		c-3.3-12.7-1.7-21.3-0.3-25.6c9.5,0.3,17.1-7.8,17.1-7.8c-1.9-1.5-6.7-3.5-10.9-2.3c-4.2,1.2-5.8,0.6-5.8,0.6
		c4,3.1,7.3,2.9,7.3,2.9c-7.3,3.6-14.9-1.5-14.9-1.5c18.4-12.4,32.7-5.9,32.7-5.9c-1.6-2.5-3.6-4.1-5.7-5.1C271,8.9,285,11,285,11
		c-1.8-1.9-3.6-2.9-5.1-3.4c9.6-1.7,22.5-1.5,34.7,6.2c0,0,6.4,0.1,9.8,2.4c3.4,2.3,7.4,4.3,9.3,4.6c1.9,0.4,3.4-0.9,3.4-0.9
		s-10.9-10-21.7-10.4c-1.6-0.6-20.5-22-60.8,1.5c-4.4-0.5-8,1.2-9.7,2.1c-5.3,2.9-15.1,7.4-15.1,7.4C233.8,26,239.3,29.9,243.5,30.7
		L243.5,30.7z"/>
	<path class="st1" d="M300.6,28.2c0,0,6.5-2.9,11.9-2.2s13.6,4.2,13.6,4.2S310.3,18.1,300.6,28.2L300.6,28.2z"/>
	<path class="st1" d="M293.1,44.5c-1.2-6.4-5.9-8.1-14.2-9.3s-11.2-10.6-11.2-10.6c-1.1,2.7,1.1,15.5,11.3,15.9
		C288.9,40.8,293.1,44.5,293.1,44.5z"/>
	<path class="st1" d="M302.7,22.9c0,0,7.1-4.5,24.8,5.4C327.5,28.3,310.5,14.2,302.7,22.9z"/>
	<path class="st1" d="M299.5,32.9c0.8-0.7,8.9-5.7,25.1-0.9C324.6,32.1,308,22.4,299.5,32.9z"/>
	<path class="st1" d="M435,188.2c-14.1-11.9-57.6-20.7-59.5-40.9c-0.8-7.7,3.5-11,9.1-11.8c7.2-1.1,17.3-0.1,17.2-5.6
		c-0.2-8.2-30.6-9.2-38.1,7.6c-13.6,30.4,47.2,51.1,56,56.1c11.3,6.3,12,14.7,6.6,19.5c-4.8,4.1-14.3,4.5-24.6-3.4
		c-11.1-8.6-19.8-36.5-46.2-48.5c0,0-3.9,60.6,17.9,71c-36.2-15.5-10.3-75.9-35.8-92.7c7,28.1,0.1,37.3,3.1,58.6
		c0,0-7.1-7.9-6.3-27.3c1.6-36.8-8.3-44.3-8.3-44.3s3.5,11.8,0.7,31.9c-3.1,22.6-0.2,23.9-0.2,23.9s-7.7-6.1-5.8-25
		c3.2-32.6-3-77.2-26.3-78c0,0,30.3,19.5,10.7,88.3c1.3-15,5.2-38-4.9-62.7c0,0-2.7,19.1-25.2,41.9c-3.4,3.5-10.8,13.5-12.1,20.2
		c0,0-1.8-10.8,6.1-21.5c8.8-11.8,23.9-22,26.7-40.6c0,0-21.6,14.8-27.8,31.1c1.4-23,30.8-37.2,24.7-52c-1.7-4.2-6.1-7-10.1-8.9
		c6-4.2,18.4-9.5,31.3,5.5c0,0,11-13.2,3.4-22.9c0,0,0.7-2.7-1.3-3.8c0,0.9-0.3,2.2-1.5,2.8c0,0-0.3-3.6-2.1-5.2c0,0-1.2,6.7-5,5.9
		c-3.8-0.8-2.6-15.8,5.2-15.9c2.8,0,1.9,6.3,1.9,6.3s5.1-1.3,6.8-5.4c0,0,1.5,3.3-1.7,5.9c0.4-0.2,7.5-1,7.5-10.6
		c0,0,8.2-2.2,9.4-15.6c0,0-3.6,0.6-6-0.7c-3.4-1.8-5.7-0.7-5.7-0.7s1.2,3.9,5.3,5.7c0,0,1.1,3-1.5,5.8
		c-7.1,7.3-26.5-10.8-30.9,14.4c-2,11.3,8.2,17.2,16,14.1c0,0,3.8,4.3-0.6,11.5c0,0-6.7-9.7-27.6-6.4C264.3,69,253,43.5,255.3,33.5
		c0,0-6.6,8.8-0.5,21.8c2.5,7.1,6.7,15-2.6,24.1C240.5,90.8,238.8,96,238.8,96s-2.6-7.7-4.8-13.8c-2.6-7.4-6.5-15.4-7.3-22.3
		c-1.7-15.2,6.9-20.4,6.9-20.4c-9.7,2-14.3,7.8-15.4,15.3c-21.4,16.7-8.5,40.2,4.5,55.2c9,10.3,16.2,25.3,16.2,25.3
		s3.4-15.7,24.8-32.1c6.8-5.2,10.4-10.6,11.9-15.7c-0.5,7.6-3.5,17.1-12.7,26.9c-20,21.3-22,36-22,36
		c-24.7-24.5-32.1-59.6-32.1-59.6c-3,17.1,2.2,32.8,9.7,45.6c7.6,12.8,7.1,16.1,1.6,19.8c-0.8,0.5-1.7,1.1-2.7,1.7
		c-2.1,1-7,3.1-9.9,3.5c-4.6,0.6-5.9,3.1-5.9,5.6c-3.2,2.1-4.7,4.5-4.3,6.7c0.4,2.3,2.8,4.4,4.1,5.8c2.6,2.8,8.4-0.3,8.4-0.3
		c-1-2.3-1.6-2.8-1.6-4.7c-0.1-4.3,6.5-6.4,6.5-6.4c-3.4,2.2-5.5,4.5-4.9,6.6c0.8,2.8,1.9,4.7,1.9,4.7c6,3.9,10.9,0.3,10.9,0.3
		c-0.9-2.3-2.2-4.5-1.8-5.9c0.7-2.9,5.8-4.4,5.8-4.4c-2.7,1.9-4.9,3.2-4.6,5.2c0.3,2.1,2.4,5.1,4,5.8c1.6,0.7,3.7-0.4,5.3-0.6
		c9.1-1.6,10.4-12.4,6.4-19.3c4,10.3,13.6,15.2,13.6,15.2c-3.7-27.8,3.2-38.4,10.2-47.4c-6.4,12.1-10.5,30.1-5.7,46.2
		c5.1,17.1,4.4,26.8,2.3,38.3c0,0-0.5,5.5-3.5,9c-2.6,3.1-9.5,4.5-12.1,10.3c-1,2.1-1.3,4.6-0.5,7.4c0.6,2.1,1.6,3.9,3,5.4
		c1,1.1,2.2,1.9,3.5,2.7c3.9,2.4,7.9,2.3,10.1-4c0.9-2.6-0.9-4.2-4.6-6.9c0,0,6.6,1.8,6.2,6.3c-0.2,1.8-0.5,2.9-1.9,5.1
		c0,0,10.1,4.7,12.5,0.6c0.8-1.4,1.6-2.8,2-4.2c0.8-2.9,0-6-5.8-9c0,0,7.7,2.2,7.8,7.6c0,2.6-1.3,4.6-1.8,6c0,0,6,3.5,11.7-0.5
		c0,0,2.6-2.6,2.6-7.9c0-2.4-3.3-4.5-7.2-7.4c0.6,0.4,8,2.4,8.9,6.3c0.4,1.5,0.1,4.4-0.9,7.4c0,0,9,2.4,10.7-6.8
		c1.7-8.9-3.2-9.6-9.1-11.9c-1.9-0.8-2.9-0.9-3.8-1.9c-2.7-3.3-1.9-6.8-1.9-6.8c2.2-6.1,10.7-26.9,9.9-40c1,6.8,0.8,22.2-3.4,35.7
		c0,0,9.4,7.2,19.5,9.9c0,0-8.7-16.1,1.2-42.1c0,0-9.1,47.4,22.1,56.3c0,0-17.7-13.8-10.7-44.7c0,0,0.5,51,31.2,51
		c0,0-18.7-15.4-16.5-37.8c0,0,4.3,35.4,35.3,43.2c17.8,4.4,33-5.2,38.9,20.2c0,0,8.8-29-15.9-40.2c-20.4-9.3-25.2-24.4-24.3-34.2
		c4.1,6.8,15,19.8,21.2,24.6c11,8.7,31.8,11.4,45.5-1.1C444.5,213.8,447.6,198.8,435,188.2L435,188.2z M309.9,35.6
		c5.4-0.6,10.2,2.6,15.2,2.1c0,0,0.3,3.6-1.8,5.7c0,0-0.9-3.5-2-4.2c-1.9,1.9-2.6,3-4.6,3.9c0,0,0.2-6-5.4-5.6s-6.9,3.5-6.9,3.5
		S304.5,36.2,309.9,35.6L309.9,35.6z M255.9,97.7c-17.7,15.3-16.5,21.9-16.5,21.9c-4.6-18.9-14.7-14.7-21.9-36.9
		c-4.6-14.2-1.9-22.4,0.6-26.5c-0.8,9.3,3.5,20.8,10.1,30.1c7.5,10.7,10.2,22.9,10.2,22.9s-0.9-11.9,18.7-23.9
		c7.8-4.8,10.4-10,10.4-14.9c0,0,0,0,0.1,0C267.4,78.2,265.5,89.4,255.9,97.7L255.9,97.7z M290.7,171.2
		c-1.3,27.4-19.8,28.6-25.3,41.8C269.3,192,285.3,191.7,290.7,171.2z M280,168c-12.8,10.9-13.6,23.8-13.6,23.8s-4.3-14.2,9.9-28
		c16.1-15.9,19.7-27.5,19.7-27.5S297.5,153.1,280,168z"/>
	<path class="st2" d="M480.8,246.6c-0.3-0.7-0.8-1.4-1.3-2.1l-28.9-37.2c-0.4,4.2-2.1,8.8-5.5,13.9c-1.6,2.4-3.5,4.3-5.7,5.9
		l15.2,19.6L480.8,246.6L480.8,246.6z"/>
	<path class="st2" d="M242.9,223.9C242.9,223.9,242.9,223.9,242.9,223.9c1.1-0.9,2.2-1.8,3.6-2.8c4.8-3.5,6.7-10.5,7.2-17.6
		l-16.2-21c-3.5,2.1-7.8,3.2-14.1,2.5c-3.7,0.5-6.8,1-9.8,0.9L242.9,223.9z"/>
	<path class="st2" d="M370.6,110.4c-3.2,0-6.3,1.5-8.3,4.1l-17.7,22.8c5.6,5.7,10.8,11.8,13.7,15.9c-2.8-5.7-5-20.2,12.3-29.5
		c3.9-2.1,8.1-3.5,12.2-4.2l-3.9-5C376.9,111.9,373.8,110.4,370.6,110.4z"/>
	<path class="st2" d="M428.6,178.6L397.9,139c-6.1,0.7-13.3-0.1-15.3,5C377,158,406.6,166.2,428.6,178.6z"/>
	<path class="st2" d="M213,153.7c0.5-0.3,1-0.6,1.3-0.9l-14-18.1c-1.5-2-3.7-3.5-6.1-4c-4.1-0.9-8.2,0.6-10.7,3.8L96.7,246.6h26.6
		l66.6-86.1c1-1.3,2.9-1.3,3.9,0l3.6,4.7C199.6,156.3,208.1,156.2,213,153.7L213,153.7z"/>
	<path class="st2" d="M328.5,123.4l41.4-53.4c1.1-1.5,3.4-1.5,4.5,0L511,246.6h26.6l-157-202.9c-1.5-2-3.7-3.5-6.1-4
		c-4.1-0.9-8.2,0.6-10.7,3.8L322,97.4C327.5,109.4,328.4,121.8,328.5,123.4L328.5,123.4z"/>
	<path class="st2" d="M70.1,246.6L186,96.9c1.1-1.5,3.4-1.5,4.5,0l13,16.8c-3-13.2-2.6-25.5-0.6-34.9c0-0.1,0-0.1,0-0.2l-6.2-8
		c-1.5-2-3.7-3.5-6.1-4c-4.1-0.9-8.2,0.6-10.7,3.8L43.5,246.6H70.1z"/>
</g>
<g>
	<path class="st1" d="M0,414.6v-98.1h29.4c9.6,0,16.6,0.4,20.9,1.2c4.3,0.8,7.9,2.1,10.6,4c3.2,2.3,5.6,5.1,7.1,8.5
		c1.6,3.4,2.4,7.4,2.4,12c0,5.6-1.1,10.4-3.4,14.2s-5.7,7-10.5,9.4c8.1,3.1,12.3,10.6,12.8,22.4v0.3c0,1.2,0.1,3,0.1,5.4
		c0.2,11,2.3,18,6.2,20.8H45.1c-0.7-2-1.2-4.2-1.5-6.4c-0.3-2.2-0.5-4.6-0.5-7.2c0-1.6,0-3.5,0.2-5.7c0.1-2.2,0.1-3.7,0.1-4.4
		c0-6-0.9-10.1-2.7-12.3c-1.8-2.2-5-3.3-9.6-3.3h-5.4v39.2L0,414.6L0,414.6z M25.8,357.3c0.4,0,1,0,1.7,0.1c0.7,0,1.2,0.1,1.6,0.1
		c5.4,0,9.2-1,11.5-2.9c2.2-1.9,3.4-5.1,3.4-9.7c0-4.2-1.1-7.2-3.4-8.9c-2.2-1.8-6.1-2.6-11.5-2.6c-0.3,0-0.9,0-1.6,0.1
		s-1.3,0.1-1.7,0.1V357.3z"/>
	<path class="st1" d="M89.9,414.6v-98.1H116v98.1H89.9z"/>
	<path class="st1" d="M133.7,381.4h23.9v2.9c0,5.4,0.7,9.2,2.2,11.4c1.5,2.2,3.9,3.3,7.3,3.3c2.8,0,4.9-0.8,6.5-2.5
		c1.6-1.7,2.4-4,2.4-6.9c0-4.8-3.9-9.3-11.7-13.7c-1.3-0.8-2.2-1.3-2.9-1.7l-1.2-0.7c-10.5-6.2-17-10.9-19.6-14
		c-1.8-2.4-3.2-5.1-4.2-8c-1-3-1.5-6.2-1.5-9.8c0-8.6,2.8-15.3,8.5-20.2c5.7-4.9,13.4-7.3,23.3-7.3c10.8,0,19,2.4,24.7,7.2
		s8.5,11.8,8.5,20.8c0,0.4,0,0.9-0.1,1.6s-0.1,1.2-0.1,1.6h-23.4v-1.2c0-4.3-0.8-7.5-2.3-9.8c-1.5-2.2-3.7-3.3-6.6-3.3
		c-2.5,0-4.5,0.8-5.9,2.3c-1.5,1.6-2.2,3.6-2.2,6.1c0,4.2,4.2,8.6,12.8,13.2c1.5,0.9,2.7,1.6,3.5,2c0.7,0.3,1.6,0.9,2.8,1.6
		c9.1,5.1,15,9.4,17.5,12.9c1.6,2.2,2.8,4.8,3.7,7.7c0.8,2.9,1.3,6,1.3,9.3c0,9.8-2.9,17.4-8.7,22.7s-14.1,8-24.9,8
		c-11.3,0-19.8-2.5-25.5-7.6c-5.7-5.1-8.5-12.6-8.5-22.6c0-0.6,0-1.3,0-2C133.5,384,133.6,382.9,133.7,381.4L133.7,381.4z"/>
	<path class="st1" d="M218,414.6v-98.1h60.7v19.1h-34.8v18H276v19.7h-32.1v21.4h34.8v19.9L218,414.6L218,414.6z"/>
	<g>
		<path class="st2" d="M41.4,426.1h15.5c3.4,0,5.9,0.8,7.6,2.4c1.7,1.6,2.5,3.9,2.5,6.8c0,3-0.9,5.4-2.7,7.1s-4.6,2.6-8.4,2.6h-5.1
			v11.2h-9.3V426.1z M50.7,438.9H53c1.8,0,3-0.3,3.8-0.9s1.1-1.4,1.1-2.4c0-0.9-0.3-1.7-0.9-2.4c-0.6-0.7-1.8-1-3.5-1h-2.7
			L50.7,438.9z"/>
		<path class="st2" d="M76.1,456.2v-30.1h15.5c2.9,0,5.1,0.2,6.6,0.7c1.5,0.5,2.7,1.4,3.7,2.7c0.9,1.3,1.4,3,1.4,4.9
			c0,1.7-0.4,3.1-1.1,4.3c-0.7,1.2-1.7,2.2-2.9,2.9c-0.8,0.5-1.9,0.9-3.3,1.2c1.1,0.4,1.9,0.7,2.4,1.1c0.3,0.2,0.8,0.8,1.5,1.6
			s1.1,1.4,1.3,1.9l4.5,8.7H95.2l-5-9.2c-0.6-1.2-1.2-2-1.7-2.3c-0.7-0.5-1.4-0.7-2.3-0.7h-0.8v12.2L76.1,456.2z M85.4,438.3h3.9
			c0.4,0,1.2-0.1,2.5-0.4c0.6-0.1,1.1-0.4,1.5-0.9c0.4-0.5,0.6-1.1,0.6-1.7c0-1-0.3-1.7-0.9-2.2c-0.6-0.5-1.8-0.8-3.5-0.8h-4.1
			L85.4,438.3L85.4,438.3z"/>
		<path class="st2" d="M112.8,426.1h24.9v6.4h-15.6v4.8h14.5v6.1h-14.5v5.9h16v6.8h-25.3V426.1z"/>
		<path class="st2" d="M167.4,443.9l8.1,2.5c-0.5,2.3-1.4,4.2-2.6,5.7s-2.6,2.7-4.4,3.5s-4,1.2-6.7,1.2c-3.3,0-5.9-0.5-8-1.4
			c-2.1-0.9-3.9-2.6-5.4-5c-1.5-2.4-2.3-5.5-2.3-9.2c0-5,1.3-8.8,4-11.5c2.6-2.7,6.4-4,11.2-4c3.8,0,6.8,0.8,8.9,2.3
			c2.2,1.5,3.8,3.9,4.8,7.1l-8.2,1.8c-0.3-0.9-0.6-1.6-0.9-2c-0.5-0.7-1.2-1.3-1.9-1.6s-1.6-0.6-2.5-0.6c-2.1,0-3.7,0.9-4.8,2.5
			c-0.8,1.3-1.3,3.2-1.3,5.9c0,3.3,0.5,5.6,1.5,6.9c1,1.2,2.4,1.9,4.3,1.9c1.8,0,3.1-0.5,4-1.5C166.3,447.2,167,445.8,167.4,443.9
			L167.4,443.9z"/>
		<path class="st2" d="M184.6,426.1h9.3v30.1h-9.3V426.1z"/>
		<path class="st2" d="M203.6,441.2c0-4.9,1.4-8.7,4.1-11.5c2.7-2.7,6.5-4.1,11.4-4.1c5,0,8.9,1.3,11.6,4s4.1,6.5,4.1,11.3
			c0,3.5-0.6,6.4-1.8,8.6s-2.9,4-5.1,5.2s-5,1.9-8.4,1.9c-3.4,0-6.2-0.5-8.4-1.6c-2.2-1.1-4-2.8-5.4-5.1
			C204.3,447.6,203.6,444.7,203.6,441.2L203.6,441.2z M212.9,441.2c0,3,0.6,5.2,1.7,6.5c1.1,1.3,2.7,2,4.6,2c2,0,3.5-0.6,4.6-2
			c1.1-1.3,1.6-3.6,1.6-7c0-2.8-0.6-4.9-1.7-6.2c-1.1-1.3-2.7-2-4.7-2c-1.9,0-3.4,0.7-4.5,2C213.5,436,212.9,438.1,212.9,441.2
			L212.9,441.2z"/>
		<path class="st2" d="M263.6,426.1h9.3V444c0,1.8-0.3,3.4-0.8,5c-0.5,1.6-1.4,3-2.6,4.1c-1.2,1.2-2.4,2-3.7,2.5c-1.8,0.7-4,1-6.5,1
			c-1.5,0-3.1-0.1-4.8-0.3s-3.2-0.6-4.3-1.2c-1.2-0.6-2.2-1.5-3.2-2.6s-1.6-2.3-2-3.5c-0.6-1.9-0.9-3.6-0.9-5.1v-17.9h9.3v18.3
			c0,1.6,0.5,2.9,1.4,3.8c0.9,0.9,2.2,1.4,3.8,1.4c1.6,0,2.9-0.4,3.8-1.4c0.9-0.9,1.4-2.2,1.4-3.9L263.6,426.1L263.6,426.1z"/>
		<path class="st2" d="M281.6,446.2l8.8-0.5c0.2,1.4,0.6,2.5,1.2,3.3c1,1.2,2.3,1.8,4.1,1.8c1.3,0,2.3-0.3,3.1-0.9s1.1-1.3,1.1-2.2
			c0-0.8-0.3-1.5-1-2.1c-0.7-0.6-2.3-1.2-4.8-1.7c-4.1-0.9-7-2.1-8.7-3.6c-1.8-1.5-2.6-3.5-2.6-5.8c0-1.5,0.5-3,1.3-4.4
			c0.9-1.4,2.2-2.5,4-3.2s4.3-1.2,7.4-1.2c3.8,0,6.8,0.7,8.8,2.1s3.2,3.7,3.6,6.8l-8.8,0.5c-0.2-1.4-0.7-2.3-1.5-2.9
			c-0.8-0.6-1.8-0.9-3.1-0.9c-1.1,0-1.9,0.2-2.4,0.7c-0.5,0.5-0.8,1-0.8,1.7c0,0.5,0.2,0.9,0.7,1.3c0.4,0.4,1.5,0.8,3.1,1.1
			c4.1,0.9,7,1.8,8.7,2.7c1.8,0.9,3,2,3.8,3.3c0.8,1.3,1.2,2.8,1.2,4.5c0,1.9-0.5,3.7-1.6,5.3c-1.1,1.6-2.6,2.9-4.5,3.7
			s-4.3,1.3-7.2,1.3c-5.1,0-8.7-1-10.6-2.9C283,451.8,281.8,449.3,281.6,446.2z"/>
		<path class="st2" d="M335.8,426.1h12.2l4.7,18.3l4.7-18.3h12.2v30.1H362v-22.9l-5.9,22.9h-6.9l-5.8-22.9v22.9h-7.6L335.8,426.1z"
			/>
		<path class="st2" d="M379.8,426.1h24.9v6.4h-15.6v4.8h14.5v6.1h-14.5v5.9h16v6.8h-25.4L379.8,426.1L379.8,426.1z"/>
		<path class="st2" d="M412.2,426.1h28.2v7.4H431v22.6h-9.3v-22.6h-9.5L412.2,426.1z"/>
		<path class="st2" d="M464.5,451.2H454l-1.5,5H443l11.3-30.1h10.1l11.3,30.1H466L464.5,451.2z M462.6,444.7l-3.3-10.8l-3.3,10.8
			H462.6z"/>
		<path class="st2" d="M482.9,426.1h9.3v22.7h14.5v7.4h-23.8L482.9,426.1L482.9,426.1z"/>
		<path class="st2" d="M513.5,446.2l8.8-0.5c0.2,1.4,0.6,2.5,1.2,3.3c1,1.2,2.3,1.8,4.1,1.8c1.3,0,2.3-0.3,3.1-0.9s1.1-1.3,1.1-2.2
			c0-0.8-0.3-1.5-1-2.1c-0.7-0.6-2.3-1.2-4.8-1.7c-4.1-0.9-7-2.1-8.7-3.6c-1.8-1.5-2.6-3.5-2.6-5.8c0-1.5,0.5-3,1.3-4.4
			c0.9-1.4,2.2-2.5,4-3.2s4.3-1.2,7.4-1.2c3.8,0,6.8,0.7,8.8,2.1s3.2,3.7,3.6,6.8l-8.8,0.5c-0.2-1.4-0.7-2.3-1.5-2.9
			c-0.8-0.6-1.8-0.9-3.1-0.9c-1.1,0-1.9,0.2-2.4,0.7c-0.5,0.5-0.8,1-0.8,1.7c0,0.5,0.2,0.9,0.7,1.3c0.4,0.4,1.5,0.8,3.1,1.1
			c4.1,0.9,7,1.8,8.7,2.7c1.8,0.9,3,2,3.8,3.3c0.8,1.3,1.2,2.8,1.2,4.5c0,1.9-0.5,3.7-1.6,5.3c-1.1,1.6-2.6,2.9-4.5,3.7
			c-1.9,0.8-4.3,1.3-7.2,1.3c-5.1,0-8.7-1-10.6-2.9C514.9,451.8,513.8,449.3,513.5,446.2z"/>
	</g>
	<path class="st1" d="M317.8,414.6v-98.1h26.1v37.1h21v-37.1h25.5v98.1h-25.5v-40.7h-21v40.7L317.8,414.6z"/>
	<path class="st1" d="M408.8,414.6v-98.1h26.1v98.1H408.8z"/>
	<path class="st1" d="M510.9,414.6h-57.5v-98.1h26.1v78.3h31.4V414.6z"/>
	<path class="st1" d="M581.1,414.6h-57.5v-98.1h26.1v78.3h31.4V414.6z"/>
</g>
</svg>
