<svg enable-background="new 0 0 581.1 456.7" viewBox="0 0 581.1 456.7" xmlns="http://www.w3.org/2000/svg"><path d="m244.9 170.6c-.1 0-.1 0 0 0z" fill="#000100"/><path d="m294.3 34.1s.3-7.6-11.6-8.4c-5.9-.4-9.4-5.4-9.4-5.4s-.4 8.8 9.1 9.3c7 .4 10 2.2 11.9 4.5z" fill="#003158"/><path d="m294.8 17.6c2.9 3.2 8 1.6 8 1.6s-5.4-1.9-6.4-4.4c0 0 6.4-1.6 9 .9 0 0-2.1 1-2.8 1.3l2.6 1.3 6-2.2s-8.1-9.9-22.9-2.7c.1.1 3.7 1 6.5 4.2z" fill="#003158"/><path d="m262.1 29.6c-3.6 18 8.4 25.9 21.4 25.1 5-.3 8.5 3.6 8.5 3.6-3.6-9.1-11.5-8.8-19.7-11.7-8.2-3-10.2-17-10.2-17z" fill="#003158"/><path d="m243.5 30.7c-1.6 1.7-3.5 4.4-5.2 8.4-7.4 17.3 5.2 26.1 1.7 46.9 0 0 11.5-9 6.2-29.4-3.3-12.7-1.7-21.3-.3-25.6 9.5.3 17.1-7.8 17.1-7.8-1.9-1.5-6.7-3.5-10.9-2.3s-5.8.6-5.8.6c4 3.1 7.3 2.9 7.3 2.9-7.3 3.6-14.9-1.5-14.9-1.5 18.4-12.4 32.7-5.9 32.7-5.9-1.6-2.5-3.6-4.1-5.7-5.1 5.3-3 19.3-.9 19.3-.9-1.8-1.9-3.6-2.9-5.1-3.4 9.6-1.7 22.5-1.5 34.7 6.2 0 0 6.4.1 9.8 2.4s7.4 4.3 9.3 4.6c1.9.4 3.4-.9 3.4-.9s-10.9-10-21.7-10.4c-1.6-.6-20.5-22-60.8 1.5-4.4-.5-8 1.2-9.7 2.1-5.3 2.9-15.1 7.4-15.1 7.4 4 5.5 9.5 9.4 13.7 10.2z" fill="#003158"/><path d="m300.6 28.2s6.5-2.9 11.9-2.2 13.6 4.2 13.6 4.2-15.8-12.1-25.5-2z" fill="#003158"/><path d="m293.1 44.5c-1.2-6.4-5.9-8.1-14.2-9.3s-11.2-10.6-11.2-10.6c-1.1 2.7 1.1 15.5 11.3 15.9 9.9.3 14.1 4 14.1 4z" fill="#003158"/><path d="m302.7 22.9s7.1-4.5 24.8 5.4c0 0-17-14.1-24.8-5.4z" fill="#003158"/><path d="m299.5 32.9c.8-.7 8.9-5.7 25.1-.9 0 .1-16.6-9.6-25.1.9z" fill="#003158"/><path d="m435 188.2c-14.1-11.9-57.6-20.7-59.5-40.9-.8-7.7 3.5-11 9.1-11.8 7.2-1.1 17.3-.1 17.2-5.6-.2-8.2-30.6-9.2-38.1 7.6-13.6 30.4 47.2 51.1 56 56.1 11.3 6.3 12 14.7 6.6 19.5-4.8 4.1-14.3 4.5-24.6-3.4-11.1-8.6-19.8-36.5-46.2-48.5 0 0-3.9 60.6 17.9 71-36.2-15.5-10.3-75.9-35.8-92.7 7 28.1.1 37.3 3.1 58.6 0 0-7.1-7.9-6.3-27.3 1.6-36.8-8.3-44.3-8.3-44.3s3.5 11.8.7 31.9c-3.1 22.6-.2 23.9-.2 23.9s-7.7-6.1-5.8-25c3.2-32.6-3-77.2-26.3-78 0 0 30.3 19.5 10.7 88.3 1.3-15 5.2-38-4.9-62.7 0 0-2.7 19.1-25.2 41.9-3.4 3.5-10.8 13.5-12.1 20.2 0 0-1.8-10.8 6.1-21.5 8.8-11.8 23.9-22 26.7-40.6 0 0-21.6 14.8-27.8 31.1 1.4-23 30.8-37.2 24.7-52-1.7-4.2-6.1-7-10.1-8.9 6-4.2 18.4-9.5 31.3 5.5 0 0 11-13.2 3.4-22.9 0 0 .7-2.7-1.3-3.8 0 .9-.3 2.2-1.5 2.8 0 0-.3-3.6-2.1-5.2 0 0-1.2 6.7-5 5.9s-2.6-15.8 5.2-15.9c2.8 0 1.9 6.3 1.9 6.3s5.1-1.3 6.8-5.4c0 0 1.5 3.3-1.7 5.9.4-.2 7.5-1 7.5-10.6 0 0 8.2-2.2 9.4-15.6 0 0-3.6.6-6-.7-3.4-1.8-5.7-.7-5.7-.7s1.2 3.9 5.3 5.7c0 0 1.1 3-1.5 5.8-7.1 7.3-26.5-10.8-30.9 14.4-2 11.3 8.2 17.2 16 14.1 0 0 3.8 4.3-.6 11.5 0 0-6.7-9.7-27.6-6.4-21.2 3.2-32.5-22.3-30.2-32.3 0 0-6.6 8.8-.5 21.8 2.5 7.1 6.7 15-2.6 24.1-11.7 11.4-13.4 16.6-13.4 16.6s-2.6-7.7-4.8-13.8c-2.6-7.4-6.5-15.4-7.3-22.3-1.7-15.2 6.9-20.4 6.9-20.4-9.7 2-14.3 7.8-15.4 15.3-21.4 16.7-8.5 40.2 4.5 55.2 9 10.3 16.2 25.3 16.2 25.3s3.4-15.7 24.8-32.1c6.8-5.2 10.4-10.6 11.9-15.7-.5 7.6-3.5 17.1-12.7 26.9-20 21.3-22 36-22 36-24.7-24.5-32.1-59.6-32.1-59.6-3 17.1 2.2 32.8 9.7 45.6 7.6 12.8 7.1 16.1 1.6 19.8-.8.5-1.7 1.1-2.7 1.7-2.1 1-7 3.1-9.9 3.5-4.6.6-5.9 3.1-5.9 5.6-3.2 2.1-4.7 4.5-4.3 6.7.4 2.3 2.8 4.4 4.1 5.8 2.6 2.8 8.4-.3 8.4-.3-1-2.3-1.6-2.8-1.6-4.7-.1-4.3 6.5-6.4 6.5-6.4-3.4 2.2-5.5 4.5-4.9 6.6.8 2.8 1.9 4.7 1.9 4.7 6 3.9 10.9.3 10.9.3-.9-2.3-2.2-4.5-1.8-5.9.7-2.9 5.8-4.4 5.8-4.4-2.7 1.9-4.9 3.2-4.6 5.2.3 2.1 2.4 5.1 4 5.8s3.7-.4 5.3-.6c9.1-1.6 10.4-12.4 6.4-19.3 4 10.3 13.6 15.2 13.6 15.2-3.7-27.8 3.2-38.4 10.2-47.4-6.4 12.1-10.5 30.1-5.7 46.2 5.1 17.1 4.4 26.8 2.3 38.3 0 0-.5 5.5-3.5 9-2.6 3.1-9.5 4.5-12.1 10.3-1 2.1-1.3 4.6-.5 7.4.6 2.1 1.6 3.9 3 5.4 1 1.1 2.2 1.9 3.5 2.7 3.9 2.4 7.9 2.3 10.1-4 .9-2.6-.9-4.2-4.6-6.9 0 0 6.6 1.8 6.2 6.3-.2 1.8-.5 2.9-1.9 5.1 0 0 10.1 4.7 12.5.6.8-1.4 1.6-2.8 2-4.2.8-2.9 0-6-5.8-9 0 0 7.7 2.2 7.8 7.6 0 2.6-1.3 4.6-1.8 6 0 0 6 3.5 11.7-.5 0 0 2.6-2.6 2.6-7.9 0-2.4-3.3-4.5-7.2-7.4.6.4 8 2.4 8.9 6.3.4 1.5.1 4.4-.9 7.4 0 0 9 2.4 10.7-6.8 1.7-8.9-3.2-9.6-9.1-11.9-1.9-.8-2.9-.9-3.8-1.9-2.7-3.3-1.9-6.8-1.9-6.8 2.2-6.1 10.7-26.9 9.9-40 1 6.8.8 22.2-3.4 35.7 0 0 9.4 7.2 19.5 9.9 0 0-8.7-16.1 1.2-42.1 0 0-9.1 47.4 22.1 56.3 0 0-17.7-13.8-10.7-44.7 0 0 .5 51 31.2 51 0 0-18.7-15.4-16.5-37.8 0 0 4.3 35.4 35.3 43.2 17.8 4.4 33-5.2 38.9 20.2 0 0 8.8-29-15.9-40.2-20.4-9.3-25.2-24.4-24.3-34.2 4.1 6.8 15 19.8 21.2 24.6 11 8.7 31.8 11.4 45.5-1.1 6.5-6.6 9.6-21.6-3-32.2zm-125.1-152.6c5.4-.6 10.2 2.6 15.2 2.1 0 0 .3 3.6-1.8 5.7 0 0-.9-3.5-2-4.2-1.9 1.9-2.6 3-4.6 3.9 0 0 .2-6-5.4-5.6s-6.9 3.5-6.9 3.5.1-4.8 5.5-5.4zm-54 62.1c-17.7 15.3-16.5 21.9-16.5 21.9-4.6-18.9-14.7-14.7-21.9-36.9-4.6-14.2-1.9-22.4.6-26.5-.8 9.3 3.5 20.8 10.1 30.1 7.5 10.7 10.2 22.9 10.2 22.9s-.9-11.9 18.7-23.9c7.8-4.8 10.4-10 10.4-14.9h.1c-.2 7.8-2.1 19-11.7 27.3zm34.8 73.5c-1.3 27.4-19.8 28.6-25.3 41.8 3.9-21 19.9-21.3 25.3-41.8zm-10.7-3.2c-12.8 10.9-13.6 23.8-13.6 23.8s-4.3-14.2 9.9-28c16.1-15.9 19.7-27.5 19.7-27.5s1.5 16.8-16 31.7z" fill="#003158"/><path d="m480.8 246.6c-.3-.7-.8-1.4-1.3-2.1l-28.9-37.2c-.4 4.2-2.1 8.8-5.5 13.9-1.6 2.4-3.5 4.3-5.7 5.9l15.2 19.6z" fill="#b86831"/><path d="m242.9 223.9c1.1-.9 2.2-1.8 3.6-2.8 4.8-3.5 6.7-10.5 7.2-17.6l-16.2-21c-3.5 2.1-7.8 3.2-14.1 2.5-3.7.5-6.8 1-9.8.9z" fill="#b86831"/><path d="m370.6 110.4c-3.2 0-6.3 1.5-8.3 4.1l-17.7 22.8c5.6 5.7 10.8 11.8 13.7 15.9-2.8-5.7-5-20.2 12.3-29.5 3.9-2.1 8.1-3.5 12.2-4.2l-3.9-5c-2-2.6-5.1-4.1-8.3-4.1z" fill="#b86831"/><path d="m428.6 178.6-30.7-39.6c-6.1.7-13.3-.1-15.3 5-5.6 14 24 22.2 46 34.6z" fill="#b86831"/><path d="m213 153.7c.5-.3 1-.6 1.3-.9l-14-18.1c-1.5-2-3.7-3.5-6.1-4-4.1-.9-8.2.6-10.7 3.8l-86.8 112.1h26.6l66.6-86.1c1-1.3 2.9-1.3 3.9 0l3.6 4.7c2.2-8.9 10.7-9 15.6-11.5z" fill="#b86831"/><path d="m328.5 123.4 41.4-53.4c1.1-1.5 3.4-1.5 4.5 0l136.6 176.6h26.6l-157-202.9c-1.5-2-3.7-3.5-6.1-4-4.1-.9-8.2.6-10.7 3.8l-41.8 53.9c5.5 12 6.4 24.4 6.5 26z" fill="#b86831"/><path d="m70.1 246.6 115.9-149.7c1.1-1.5 3.4-1.5 4.5 0l13 16.8c-3-13.2-2.6-25.5-.6-34.9 0-.1 0-.1 0-.2l-6.2-8c-1.5-2-3.7-3.5-6.1-4-4.1-.9-8.2.6-10.7 3.8l-136.4 176.2z" fill="#b86831"/><path d="m0 414.6v-98.1h29.4c9.6 0 16.6.4 20.9 1.2s7.9 2.1 10.6 4c3.2 2.3 5.6 5.1 7.1 8.5 1.6 3.4 2.4 7.4 2.4 12 0 5.6-1.1 10.4-3.4 14.2s-5.7 7-10.5 9.4c8.1 3.1 12.3 10.6 12.8 22.4v.3c0 1.2.1 3 .1 5.4.2 11 2.3 18 6.2 20.8h-30.5c-.7-2-1.2-4.2-1.5-6.4s-.5-4.6-.5-7.2c0-1.6 0-3.5.2-5.7.1-2.2.1-3.7.1-4.4 0-6-.9-10.1-2.7-12.3s-5-3.3-9.6-3.3h-5.4v39.2zm25.8-57.3c.4 0 1 0 1.7.1.7 0 1.2.1 1.6.1 5.4 0 9.2-1 11.5-2.9 2.2-1.9 3.4-5.1 3.4-9.7 0-4.2-1.1-7.2-3.4-8.9-2.2-1.8-6.1-2.6-11.5-2.6-.3 0-.9 0-1.6.1s-1.3.1-1.7.1z" fill="#003158"/><path d="m89.9 414.6v-98.1h26.1v98.1z" fill="#003158"/><path d="m133.7 381.4h23.9v2.9c0 5.4.7 9.2 2.2 11.4s3.9 3.3 7.3 3.3c2.8 0 4.9-.8 6.5-2.5s2.4-4 2.4-6.9c0-4.8-3.9-9.3-11.7-13.7-1.3-.8-2.2-1.3-2.9-1.7l-1.2-.7c-10.5-6.2-17-10.9-19.6-14-1.8-2.4-3.2-5.1-4.2-8-1-3-1.5-6.2-1.5-9.8 0-8.6 2.8-15.3 8.5-20.2s13.4-7.3 23.3-7.3c10.8 0 19 2.4 24.7 7.2s8.5 11.8 8.5 20.8c0 .4 0 .9-.1 1.6s-.1 1.2-.1 1.6h-23.4v-1.2c0-4.3-.8-7.5-2.3-9.8-1.5-2.2-3.7-3.3-6.6-3.3-2.5 0-4.5.8-5.9 2.3-1.5 1.6-2.2 3.6-2.2 6.1 0 4.2 4.2 8.6 12.8 13.2 1.5.9 2.7 1.6 3.5 2 .7.3 1.6.9 2.8 1.6 9.1 5.1 15 9.4 17.5 12.9 1.6 2.2 2.8 4.8 3.7 7.7.8 2.9 1.3 6 1.3 9.3 0 9.8-2.9 17.4-8.7 22.7s-14.1 8-24.9 8c-11.3 0-19.8-2.5-25.5-7.6s-8.5-12.6-8.5-22.6c0-.6 0-1.3 0-2 .2-.7.3-1.8.4-3.3z" fill="#003158"/><path d="m218 414.6v-98.1h60.7v19.1h-34.8v18h32.1v19.7h-32.1v21.4h34.8v19.9z" fill="#003158"/><g fill="#b86831"><path d="m41.4 426.1h15.5c3.4 0 5.9.8 7.6 2.4s2.5 3.9 2.5 6.8c0 3-.9 5.4-2.7 7.1s-4.6 2.6-8.4 2.6h-5.1v11.2h-9.3v-30.1zm9.3 12.8h2.3c1.8 0 3-.3 3.8-.9s1.1-1.4 1.1-2.4c0-.9-.3-1.7-.9-2.4s-1.8-1-3.5-1h-2.7z"/><path d="m76.1 456.2v-30.1h15.5c2.9 0 5.1.2 6.6.7s2.7 1.4 3.7 2.7c.9 1.3 1.4 3 1.4 4.9 0 1.7-.4 3.1-1.1 4.3s-1.7 2.2-2.9 2.9c-.8.5-1.9.9-3.3 1.2 1.1.4 1.9.7 2.4 1.1.3.2.8.8 1.5 1.6s1.1 1.4 1.3 1.9l4.5 8.7h-10.5l-5-9.2c-.6-1.2-1.2-2-1.7-2.3-.7-.5-1.4-.7-2.3-.7h-.8v12.2zm9.3-17.9h3.9c.4 0 1.2-.1 2.5-.4.6-.1 1.1-.4 1.5-.9s.6-1.1.6-1.7c0-1-.3-1.7-.9-2.2s-1.8-.8-3.5-.8h-4.1z"/><path d="m112.8 426.1h24.9v6.4h-15.6v4.8h14.5v6.1h-14.5v5.9h16v6.8h-25.3z"/><path d="m167.4 443.9 8.1 2.5c-.5 2.3-1.4 4.2-2.6 5.7s-2.6 2.7-4.4 3.5-4 1.2-6.7 1.2c-3.3 0-5.9-.5-8-1.4s-3.9-2.6-5.4-5-2.3-5.5-2.3-9.2c0-5 1.3-8.8 4-11.5 2.6-2.7 6.4-4 11.2-4 3.8 0 6.8.8 8.9 2.3 2.2 1.5 3.8 3.9 4.8 7.1l-8.2 1.8c-.3-.9-.6-1.6-.9-2-.5-.7-1.2-1.3-1.9-1.6s-1.6-.6-2.5-.6c-2.1 0-3.7.9-4.8 2.5-.8 1.3-1.3 3.2-1.3 5.9 0 3.3.5 5.6 1.5 6.9 1 1.2 2.4 1.9 4.3 1.9 1.8 0 3.1-.5 4-1.5 1.1-1.2 1.8-2.6 2.2-4.5z"/><path d="m184.6 426.1h9.3v30.1h-9.3z"/><path d="m203.6 441.2c0-4.9 1.4-8.7 4.1-11.5 2.7-2.7 6.5-4.1 11.4-4.1 5 0 8.9 1.3 11.6 4s4.1 6.5 4.1 11.3c0 3.5-.6 6.4-1.8 8.6s-2.9 4-5.1 5.2-5 1.9-8.4 1.9-6.2-.5-8.4-1.6-4-2.8-5.4-5.1-2.1-5.2-2.1-8.7zm9.3 0c0 3 .6 5.2 1.7 6.5s2.7 2 4.6 2c2 0 3.5-.6 4.6-2 1.1-1.3 1.6-3.6 1.6-7 0-2.8-.6-4.9-1.7-6.2s-2.7-2-4.7-2c-1.9 0-3.4.7-4.5 2-1 1.5-1.6 3.6-1.6 6.7z"/><path d="m263.6 426.1h9.3v17.9c0 1.8-.3 3.4-.8 5s-1.4 3-2.6 4.1c-1.2 1.2-2.4 2-3.7 2.5-1.8.7-4 1-6.5 1-1.5 0-3.1-.1-4.8-.3s-3.2-.6-4.3-1.2c-1.2-.6-2.2-1.5-3.2-2.6s-1.6-2.3-2-3.5c-.6-1.9-.9-3.6-.9-5.1v-17.9h9.3v18.3c0 1.6.5 2.9 1.4 3.8s2.2 1.4 3.8 1.4 2.9-.4 3.8-1.4c.9-.9 1.4-2.2 1.4-3.9z"/><path d="m281.6 446.2 8.8-.5c.2 1.4.6 2.5 1.2 3.3 1 1.2 2.3 1.8 4.1 1.8 1.3 0 2.3-.3 3.1-.9s1.1-1.3 1.1-2.2c0-.8-.3-1.5-1-2.1s-2.3-1.2-4.8-1.7c-4.1-.9-7-2.1-8.7-3.6-1.8-1.5-2.6-3.5-2.6-5.8 0-1.5.5-3 1.3-4.4.9-1.4 2.2-2.5 4-3.2s4.3-1.2 7.4-1.2c3.8 0 6.8.7 8.8 2.1s3.2 3.7 3.6 6.8l-8.8.5c-.2-1.4-.7-2.3-1.5-2.9s-1.8-.9-3.1-.9c-1.1 0-1.9.2-2.4.7s-.8 1-.8 1.7c0 .5.2.9.7 1.3.4.4 1.5.8 3.1 1.1 4.1.9 7 1.8 8.7 2.7 1.8.9 3 2 3.8 3.3s1.2 2.8 1.2 4.5c0 1.9-.5 3.7-1.6 5.3s-2.6 2.9-4.5 3.7-4.3 1.3-7.2 1.3c-5.1 0-8.7-1-10.6-2.9-1.9-2.2-3.1-4.7-3.3-7.8z"/><path d="m335.8 426.1h12.2l4.7 18.3 4.7-18.3h12.2v30.1h-7.6v-22.9l-5.9 22.9h-6.9l-5.8-22.9v22.9h-7.6z"/><path d="m379.8 426.1h24.9v6.4h-15.6v4.8h14.5v6.1h-14.5v5.9h16v6.8h-25.4z"/><path d="m412.2 426.1h28.2v7.4h-9.4v22.6h-9.3v-22.6h-9.5z"/><path d="m464.5 451.2h-10.5l-1.5 5h-9.5l11.3-30.1h10.1l11.3 30.1h-9.7zm-1.9-6.5-3.3-10.8-3.3 10.8z"/><path d="m482.9 426.1h9.3v22.7h14.5v7.4h-23.8z"/><path d="m513.5 446.2 8.8-.5c.2 1.4.6 2.5 1.2 3.3 1 1.2 2.3 1.8 4.1 1.8 1.3 0 2.3-.3 3.1-.9s1.1-1.3 1.1-2.2c0-.8-.3-1.5-1-2.1s-2.3-1.2-4.8-1.7c-4.1-.9-7-2.1-8.7-3.6-1.8-1.5-2.6-3.5-2.6-5.8 0-1.5.5-3 1.3-4.4.9-1.4 2.2-2.5 4-3.2s4.3-1.2 7.4-1.2c3.8 0 6.8.7 8.8 2.1s3.2 3.7 3.6 6.8l-8.8.5c-.2-1.4-.7-2.3-1.5-2.9s-1.8-.9-3.1-.9c-1.1 0-1.9.2-2.4.7s-.8 1-.8 1.7c0 .5.2.9.7 1.3.4.4 1.5.8 3.1 1.1 4.1.9 7 1.8 8.7 2.7 1.8.9 3 2 3.8 3.3s1.2 2.8 1.2 4.5c0 1.9-.5 3.7-1.6 5.3s-2.6 2.9-4.5 3.7-4.3 1.3-7.2 1.3c-5.1 0-8.7-1-10.6-2.9-1.9-2.2-3-4.7-3.3-7.8z"/></g><path d="m317.8 414.6v-98.1h26.1v37.1h21v-37.1h25.5v98.1h-25.5v-40.7h-21v40.7z" fill="#003158"/><path d="m408.8 414.6v-98.1h26.1v98.1z" fill="#003158"/><path d="m510.9 414.6h-57.5v-98.1h26.1v78.3h31.4z" fill="#003158"/><path d="m581.1 414.6h-57.5v-98.1h26.1v78.3h31.4z" fill="#003158"/></svg>