<svg viewBox="0 0 808.2 808.2" xmlns="http://www.w3.org/2000/svg"><circle cx="404.23" cy="403.97" fill="#be5755" r="403.97"/><path d="m0 0h808.2v808.2h-808.2z" fill="#be5755"/><path d="m623 214.62v.24c2.32 4.94 4.82 9.8 6.93 14.82 12.11 28.8 16.9 58.88 15.65 90-.06 1.46-.5 3.24.14 4.34 3.63 6.22 4.73 13.34 6.79 20a101.42 101.42 0 0 1 1.91 54.23c-6 24.84-22.46 41.71-43.93 54.15a117.89 117.89 0 0 1 -47.69 15.38c-3 .3-4.7.85-3.88 4.82 1.7 8.12 1.57 16.44 1.18 24.72a148.86 148.86 0 0 1 -3.58 25.39c-.47 2.07 0 3.45 2 4.27s2.43-1 3.25-2.09 1.35-1.92 2-2.89c9.51-2.44 11.25-1.9 16.48 5.11a2.34 2.34 0 0 0 1 1.93l-.14-.13a60.9 60.9 0 0 0 6.29 12.55l-.1-.11c2.81 7.31 6.68 14.11 10.07 21.15 2.22 4.59 3.38 10.21-.88 13-6.15 4.09-12.71 8-19.92 10.33a4.35 4.35 0 0 1 -1.76 0 2.92 2.92 0 0 0 -2.67 1.22c-4.66 5.6-10.32 5.47-16.41 2.8v.11l-1-.8c-3.77-4.9-5.26-11-8.66-16.13a16.9 16.9 0 0 0 -.59-2.11c-.86-2.09-2.13-4.55-4.19-4.75-1.82-.17-2.23 2.72-3.12 4.3-15.11 26.79-35.54 48.37-62.3 63.75a161.37 161.37 0 0 1 -39.2 16c-1.46.39-3.83.24-3.3 2.55.44 1.88 2.54.94 3.87.85a57 57 0 0 1 15.35 1.52c8.75 3.38 15.8 8.7 19.93 17.37.77 3.47 1.76 6.92 1.43 10.55-2.75 6.52-8.77 7.82-14.71 9-13.61 2.66-27.43 3.08-41.23 3.44-4.87.13-9.85.46-14.1-2.74l-.16-.08c-1.4-1.47-2.79-2.94-4.19-4.4-.7-2.06-1.39-4.11-2.09-6.16q-.39-4.82-.77-9.63a48.06 48.06 0 0 0 -.75-10.64c-.49-2.14 2-5.83-2.85-5.75a214.4 214.4 0 0 1 -57.52-6.38c-2.13-.55-3.31-.21-3.47 2.36-.21 3.23-.77 6.45-1.22 9.66-.85 6-.72 6.11 5.2 5a9.53 9.53 0 0 0 1.24-.42c1.11.07 2.34.61 3.07-.79.14.89.78.77 1.4.69a41.55 41.55 0 0 1 21.71 7.27l6.7 8.15v.16c2.68 11.12 1.84 12.37-9.07 12.92a273.36 273.36 0 0 1 -49.45-1.92l.09.05-4.3-2.89.13.18-1.19-1.92c-1.65-1.09-.35-2.83-.92-4.16.17-2.91.33-5.82.5-8.73l.51-19.93.24-1.28a53.9 53.9 0 0 0 .33-10.85c.89-2.43-.53-3.43-2.48-4.3a189.11 189.11 0 0 1 -19.47-10.38c-3.26-1.94-6.07-4.67-9.79-5.83a4.91 4.91 0 0 0 -2.34-2.16l-1.95-1.6c-14.11-11.74-26.8-24.77-36.89-40.2a223.62 223.62 0 0 1 -13.16-23.55c-.62-3-2.59-4.14-5.46-4.91-29.74-8-59.44-16.05-89.16-24.11-5.23-3.91-8.2-8.88-6.75-15.61 1.28-5.94 5.26-9.28 11-10.83 23.48-6.32 46.93-12.72 70.43-19 2.57-.68 4.05-1.49 4.21-4.55 1.5-29.56 10.86-56.56 26.89-81.33a10.83 10.83 0 0 0 .71-1.59c.24-.37.47-.74.7-1.11l.07-.1a5.86 5.86 0 0 0 2.2-3.17l9.63-11.93c-11.91.85-21.35 4.72-30.41 9.81h-1.71l-1.74-.92-.75-.93c-.47-2.61-1.21-5.09-3.15-7l-.6-.61a.55.55 0 0 0 -.61-.32l-1.17-1h.23c-.34-2.21-2.22-3-3.81-4-7.45-4.45-15.35-4.37-23.45-2.25-12.51 3.28-23 10.28-33 18.17-2 1.58-3.95 3.06-6.63 3.09-4.42-3-4.5-7.77-4.8-12.28-.58-8.55 2.53-16.28 6.3-23.7 7.86-15.44 18.87-28.55 31-40.76a279 279 0 0 1 73.08-53.31c6.55-3.29 13.3-5.09 20.25-.93l1 1.72.2 1.77c-1.9 7.42-5.51 14.33-7 22.87l10.49-5.9c12.14-5.3 24.27-10.64 37.11-14.06 9.16-2.44 17.87-2.5 24.38 6 1.58 4.81.57 9.08-2 13.4-6.37 10.59-12.27 21.44-15.12 33.62-.53 2.25-2 5.42-.45 6.68 1.92 1.53 4.49-.95 6.72-1.89 10.55-3.41 21.15-6.62 32.22-7.85 3.2-.36 3.12-2.59 3.34-4.78 1.78-17.57 5.26-34.78 11.43-51.34 19.39-52 53.9-88.81 108.24-104.16 32.82-9.26 65.47-8.22 96.67 7.42a98.26 98.26 0 0 1 18.86 12.36c2.1 1.75 3.21 1.8 4.67-.73 3.55-6.13 7.36-12.11 11.07-18.15.7-1.14 1.4-2.26 2.13-3.38 1.55-2.37 3.58-4.07 6.59-3.53 3.37.62 3 3.56 3.32 6q-3.74 19.28-7.47 38.56a4 4 0 0 0 .87 3.29c1.85 2.47 3.71 4.92 5.56 7.38l-.06-.3a2.87 2.87 0 0 0 1.19 2.17c-.08.21 0 .34.2.39a12.17 12.17 0 0 0 3 4.84v-.26a2.55 2.55 0 0 0 1.34 2.41zm-13-7.14-1.39.08-1.61 8.64c-.48 2.45-1.5 4.48-4.13 5.25s-4.43-.76-6-2.7c-2.3-2.89-4.71-5.7-7-8.56-7.74-9.51-11.1-8.45-1.76-22.71 1.42-2.16 1.33-3.36-.78-5.06-8.23-6.64-17-12.34-26.91-16.08-37.42-14.11-73.95-10.53-109.17 6.66-38.52 18.76-63.07 50.2-77.6 89.94a202.94 202.94 0 0 0 -11.57 55.34c-.17 2.33.12 4.52-3.52 4.82a138.43 138.43 0 0 0 -48.38 13.51c-3.6 1.72-4.25.48-4.53-2.68a51.93 51.93 0 0 1 2-19.71c3.4-11.42 9-21.78 15-32 3.2-5.5 1.74-8.52-4.55-9.51a22 22 0 0 0 -9.64.77c-15.11 4.31-29.33 10.7-43.4 17.63-7 3.45-10.4 7.92-11.62 15.85-3.86 25.14 3.17 45.21 24.9 59.36 3.22 2.09 6.58 4 9.68 6.24 6.32 4.6 8 12.37 4.4 18.87s-8.62 6.91-13.18 1.29a42.17 42.17 0 0 0 -20.93-14.21c-2.67-.81-4.36-.33-6.15 1.78-24.66 29.18-39 62.44-39.86 101-.06 3-.82 4.3-3.84 5.08-16.15 4.18-32.23 8.62-48.33 13-9.4 2.54-18.82 5-28.21 7.61-3.32.91-5.42 3-5.42 6.66s1.9 5.78 5.22 6.85c1.12.37 2.27.66 3.41 1q42.78 11.52 85.56 23c2.62.7 4.35 1.72 5.47 4.4a161.2 161.2 0 0 0 29.19 45.72 158.32 158.32 0 0 0 48.74 36.32c2.85 1.4 4.23 1.49 4.07-2.3-.13-3.38.39-6.8.2-10.18-.34-5.78 2.71-9.06 7.51-11.31a27.84 27.84 0 0 1 9.34-2.61c8.15-.7 12.37 3.48 11.51 11.59-.73 6.9-1.56 13.8-2.69 20.64-.64 3.87.15 5.65 4.35 6.62a213.59 213.59 0 0 0 59.82 5.47c3.33-.18 4.66.56 4.77 4.15.27 8.71.84 17.41 1.55 26.1.53 6.66 3.6 9.29 10.34 9.44 9.32.2 18.61-.52 27.89-1.22 6.47-.48 12.95-1.14 19.22-3 5.24-1.58 5.95-2.89 4-8-2.92-7.7-9-11.9-16.53-14.16a36.11 36.11 0 0 0 -20.14.15c-3 .82-3.62 0-3.43-2.8a80.65 80.65 0 0 0 .19-10.19c-.17-3 .95-3.9 3.8-4.58 48.21-11.64 83-40.17 105.55-84.07l3.88-7.57c5.86 6.34 12.15 11.55 14.92 19.6a80.06 80.06 0 0 0 4.53 9.61 4.17 4.17 0 0 0 5.2 2.29c2.44-.64 3.08-2.47 2.88-4.8-.21-2.53-.34-5.06-.56-8.48 2.91 2.77 5 4.86 7.16 6.77a3.85 3.85 0 0 0 4.94.19 3.66 3.66 0 0 0 1.46-4.66c-.89-2.61-1.76-5.24-3-8.91 3.43 2.76 6 4.93 8.65 6.9 1.66 1.21 3.61 1.5 5.32.05s1.34-3.13.49-4.85q-9-18.29-18-36.57c-.78-1.58-1.93-2.7-3.85-2.17s-2.5 1.85-2.58 3.69c-.13 2.59.15 5.25-.89 8.11-5.2-3-10.08-6.1-15.14-8.81-2.55-1.36-3-2.74-2.3-5.57 4.31-17 6-34.29 3.49-51.83-.53-3.73-1.75-5-5.75-5.09-18.94-.35-36.41-5.52-51.55-17.3-1.5-1.17-4.84-1.84-2-5.22 2.21-2.64 3.66-2.74 6.28-.51a58.54 58.54 0 0 0 19.64 10.91c29.85 10 58.42 5.57 85.7-8.65 18.43-9.61 33.09-23.33 40.74-43.23 6.7-17.46 5.26-35.37 2.22-53.31-.62-3.69-3.28-2.71-5.44-2.71q-63.39-.06-126.8 0h-26.6c-1.32 0-3 .21-2.75-1.82.2-1.72-1.35-4.51 1.25-4.92 3-.48 2.89-2.46 3.32-4.37.66-2.88 1.19-5.79 1.84-8.67.43-1.87.8-4 3.24-4.17s3 2 3.48 3.88c1 3.59 2 7.19 2.94 10.79a53.28 53.28 0 0 0 3.92-10.92c.48-1.81 1.11-3.69 3.17-3.76 2.34-.08 3 1.92 3.5 3.88 1 3.61 2 7.19 3 10.79 1.62-2.82 2.24-5.63 3.14-8.36.78-2.38.38-6.07 3.87-6.19s3.26 3.58 4 6c.94 2.87 1.66 5.81 2.48 8.72a69.91 69.91 0 0 0 3.87-11.45c.45-1.61 1.12-3.29 3.05-3.37 2.17-.08 2.81 1.66 3.42 3.44 1.27 3.7 1.58 7.71 3.82 12 1.15-4.27 2.09-7.79 3-11.32.51-1.87 1-4 3.36-4.09s3 2 3.48 3.92c1 3.58 2 7.15 3 10.73a51.49 51.49 0 0 0 3.76-10.54c.51-1.87.94-4 3.35-4.09s2.94 2 3.44 3.93c.9 3.46 1.88 6.89 3 11 2.43-3.74 2.55-7.54 3.69-11 .63-1.87 1.07-4 3.44-4s2.82 2.2 3.42 4c1.15 3.55 1.45 7.39 3.59 11.38 1.19-4.41 2.14-8.12 3.21-11.79.49-1.68 1-3.62 3.27-3.64s2.74 1.87 3.33 3.56c1.29 3.66 1.55 7.65 3.73 11.86 1.11-4.09 2-7.49 3-10.88.55-2 .83-4.46 3.47-4.5s3 2.32 3.58 4.36c.9 3.42 1.9 6.81 2.86 10.22a48.86 48.86 0 0 0 3.67-10.2c.55-2 .92-4.48 3.53-4.42s2.89 2.54 3.51 4.53c1.05 3.36 1.44 7 3.5 10.88.72-2.7 1.22-4.54 1.72-6.37s1-3.71 1.5-5.57 1.23-3.54 3.39-3.47c1.88.06 2.5 1.69 3.06 3.32.93 2.68 1 5.7 3.35 9.3 4.51-47.16-2.31-90.38-27.22-129.68z" fill="#faf9f8"/><path d="m306.13 675.3c-.17 2.91-.33 5.82-.5 8.73-16.1 0-32.05 2-48 3.83a75.71 75.71 0 0 0 -18.56 4c-1.39.53-3 1-3 2.8s1.64 2.29 3 2.76a51.27 51.27 0 0 0 5.5 1.69c21.86 4.62 44.14 5.47 66.33 6.94 16.18 1.07 32.43 1.51 48.63 1.67 28.2.27 56.41.5 84.63-.4 27.72-.88 55.4-2 83-4.71 8.5-.84 17.09-1.32 25.24-4.15 2.48-.87 6.91-.36 6.83-3.62-.09-3.54-4.64-3.71-7.39-4.32-23.86-5.27-48.21-6-72.49-7.38l-5.35-.09c.33-3.62-.66-7.07-1.43-10.54 5.17 1.47 10.58 1.45 15.8 1.53 15.21.23 30.38 1.18 45.52 2.19 19.24 1.3 38.49 2.88 57.6 5.76a260 260 0 0 1 31.67 6.26 27.72 27.72 0 0 1 8.88 3.86c3.11 2.23 3.2 4.47 0 6.62a27.85 27.85 0 0 1 -7.53 3.68c-14.63 4.27-29.69 6.29-44.77 8.24-20.78 2.69-41.7 3.37-62.54 5.17-6.46.56-13 .69-19.44 1-42.94 2-85.92 2.21-128.89 1.65-22.41-.3-44.81-1.49-67.19-2.65-16.31-.82-32.68-1.82-48.91-3.55-19.64-2.06-39.32-4.22-58.4-9.76a29.44 29.44 0 0 1 -7.2-3.34c-3.9-2.42-3.87-4.89 0-7.36 5.46-3.54 11.81-4.66 18-6 17.48-3.69 35.18-5.77 53-7.27 15.91-1.33 31.89-2.84 47.96-3.24z" fill="#ae4d4b"/><path d="m563.74 522c-.66 1-1.28 2-2 2.89s-1.15 3-3.25 2.09-2.44-2.2-2-4.27a148.86 148.86 0 0 0 3.58-25.39c.39-8.28.52-16.6-1.18-24.72-.82-4 .84-4.52 3.88-4.82a117.89 117.89 0 0 0 47.69-15.38c21.54-12.4 37.94-29.3 43.95-54.14a101.42 101.42 0 0 0 -1.91-54.26c-2.06-6.66-3.16-13.78-6.79-20-.64-1.1-.2-2.88-.14-4.34 1.25-31.13-3.54-61.21-15.65-90-2.11-5-4.61-9.88-6.93-14.82a5.56 5.56 0 0 1 3.72 3.54c2.64 6.7 6.52 12.78 9.28 19.49a191.4 191.4 0 0 1 8.9 26.74c2.82 11.27 5.12 22.65 5.6 34.26.36 9 1.53 17.85.36 26.92-.71 5.45 1.75 11.25 4.08 16.06 3.76 7.77 5.06 15.83 6.22 24.1a113.45 113.45 0 0 1 -.15 33.05 69.26 69.26 0 0 1 -7 21.3 86.27 86.27 0 0 1 -25.61 29.94c-12.59 9.36-26.17 16.81-41.75 20.24-6 1.32-11.82 3.45-18.12 3.47-3.55 0-4.39 2.79-3.86 5.67 1.43 7.79.49 15.63.76 23.43.21 6.41-.82 12.68-1.68 18.95z" fill="#be5755"/><path d="m452.67 655.17a57 57 0 0 0 -15.35-1.52c-1.33.09-3.43 1-3.87-.85-.53-2.31 1.84-2.16 3.3-2.55a161.37 161.37 0 0 0 39.2-16c26.76-15.38 47.19-37 62.3-63.75.89-1.58 1.3-4.47 3.12-4.3 2.06.2 3.33 2.66 4.19 4.75a16.9 16.9 0 0 1 .59 2.11c-2.38 1.26-2.29 4-3.61 5.92-7.37 10.59-14.08 21.51-23.15 31a192.57 192.57 0 0 1 -31.54 26.71 102.77 102.77 0 0 1 -19.85 10.54c-4.52 1.79-8.95 3.79-13.43 5.67a3.08 3.08 0 0 0 -1.9 2.27z" fill="#be5755"/><path d="m138.76 391.18c2.68 0 4.64-1.51 6.63-3.09 10-7.89 20.44-14.89 33-18.17 8.1-2.12 16-2.2 23.45 2.25 1.59.95 3.47 1.75 3.81 4-4.28.85-8.29-1.07-12.62-1.08-12.11 0-21.6 6-31.46 11.54-4.13 2.32-7.68 5.41-11.42 8.25-5.16 3.92-6.32 3.66-9.94-1.95a20.49 20.49 0 0 0 -1.45-1.75z" fill="#be5654"/><path d="m555.73 589.9c6.09 2.67 11.75 2.8 16.41-2.8a2.92 2.92 0 0 1 2.67-1.22 4.35 4.35 0 0 0 1.76 0c7.21-2.32 13.77-6.24 19.92-10.33 4.26-2.83 3.1-8.45.88-13-3.39-7-7.26-13.84-10.07-21.15 2.75 1 4.05 3.41 5.23 5.74 3.75 7.43 7.66 14.82 10.88 22.48 3.35 7.95 0 14-8.36 16-1.61.39-3.23.71-4.3 2a12.53 12.53 0 0 1 -7.08 4.26 27.93 27.93 0 0 0 -10.24 4.91 8.46 8.46 0 0 1 -7.24 1c-4.52-1.08-7.75-4.22-10.46-7.89z" fill="#be5755"/><path d="m126.4 526.23c29.72 8.06 59.42 16.16 89.16 24.11 2.87.77 4.84 1.94 5.46 4.91-9.48-.37-18.41-3.46-27.49-5.72-8.08-2-16.09-4.31-24.13-6.46a16.82 16.82 0 0 1 -2.18-.32c-11.16-4.64-23.2-6.19-34.63-9.9-3.38-1.1-5.53-3.1-6.19-6.62z" fill="#be5956"/><path d="m319.9 324.45c-2.23.94-4.8 3.42-6.72 1.89-1.59-1.26-.08-4.43.45-6.68 2.85-12.18 8.75-23 15.12-33.62 2.6-4.32 3.61-8.59 2-13.4a13.65 13.65 0 0 1 4.16 18.21c-5.91 10.76-13.04 21.05-15.01 33.6z" fill="#bd5653"/><g fill="#be5755"><path d="m617.4 205.52c-1.85-2.46-3.71-4.91-5.56-7.38a4 4 0 0 1 -.87-3.29q3.76-19.28 7.47-38.56c4.31.64 6.2 3.58 4.85 9.11-2.48 10.09-3.07 20.52-5.95 30.54-.84 2.95 0 6.37.06 9.58z"/><path d="m215.07 386.87c9.06-5.09 18.5-9 30.41-9.81l-9.63 11.94c-.82-2-2.2-2-3.9-1.17-2.61 1.27-5.25 2.49-7.88 3.71-4.9 2.25-8.3.46-9-4.67z"/><path d="m269.29 280.66-10.49 5.9c1.49-8.54 5.1-15.45 7-22.87 5.27 3.26 6.1 5.53 3.9 11.19-.7 1.93-1.7 3.75-.41 5.78z"/></g><path d="m275.47 622.73c3.72 1.16 6.53 3.89 9.79 5.83a189.11 189.11 0 0 0 19.47 10.38c1.95.87 3.37 1.87 2.48 4.3-8-1.6-14.09-7.08-20.81-11-3.89-2.24-8.56-4.91-10.93-9.51z" fill="#be5956"/><path d="m587.4 541.47a60.9 60.9 0 0 1 -6.29-12.55c5.05 2.7 5.96 7.48 6.29 12.55z" fill="#be5755"/><path d="m621.72 212.62a12.17 12.17 0 0 1 -3-4.84c3 .38 3.15 2.53 3 4.84z" fill="#be5755"/><path d="m235.88 389a5.86 5.86 0 0 1 -2.2 3.17c.15-1.51.05-3.17 2.2-3.17z" fill="#be5755"/><path d="m273.18 620.61a4.91 4.91 0 0 1 2.34 2.16c-1.44-.01-2.52-.37-2.34-2.16z" fill="#be5956"/><path d="m211.62 386 1.74.92c-1.19.81-1.53.08-1.74-.92z" fill="#be5755"/><path d="m265.6 261.92-1-1.72c.98.19 1.86.44 1 1.72z" fill="#be5755"/><path d="m271.05 619 2.12 1.68c-1.29.14-1.92-.52-2.12-1.68z" fill="#be5956"/><path d="m210.9 385.07.75.93c-.5-.11-1.13-.11-.75-.93z" fill="#be5755"/><path d="m581.25 529.05a2.34 2.34 0 0 1 -1-1.93c.31.64.65 1.29 1 1.93z" fill="#be5755"/><path d="m306.88 654.09-.24 1.28z" fill="#be5956"/><g fill="#be5755"><path d="m623 214.62a2.55 2.55 0 0 1 -1.22-2.26 2.77 2.77 0 0 1 1.22 2.26z"/><path d="m618.53 207.39a2.87 2.87 0 0 1 -1.19-2.17 2.71 2.71 0 0 1 1.19 2.17z"/><path d="m554.81 589.21 1 .8z"/><path d="m233.61 392.23c-.23.37-.46.74-.7 1.11.24-.34.47-.74.7-1.11z"/></g><path d="m207.15 377.42.6.61a5.76 5.76 0 0 1 -.6-.61z" fill="#be5654"/><path d="m205.37 376.13 1.17 1z" fill="#be5654"/><path d="m610 207.48c24.92 39.3 31.74 82.49 27.3 129.48-2.39-3.6-2.42-6.62-3.35-9.3-.56-1.63-1.18-3.26-3.06-3.32-2.16-.07-2.92 1.65-3.39 3.47s-1 3.71-1.5 5.57-1 3.67-1.72 6.37c-2.06-3.91-2.45-7.52-3.5-10.88-.62-2-1-4.47-3.51-4.53s-3 2.42-3.53 4.42a48.86 48.86 0 0 1 -3.67 10.2c-1-3.41-2-6.8-2.86-10.22-.54-2-1-4.4-3.58-4.36s-2.92 2.53-3.47 4.5c-.95 3.39-1.85 6.79-3 10.88-2.18-4.21-2.44-8.2-3.73-11.86-.59-1.69-1.08-3.59-3.33-3.56s-2.78 2-3.27 3.64c-1.07 3.67-2 7.38-3.21 11.79-2.14-4-2.44-7.83-3.59-11.38-.6-1.84-1-4.06-3.42-4s-2.81 2.15-3.44 4c-1.14 3.42-1.26 7.22-3.69 11-1.14-4.12-2.12-7.55-3-11-.5-1.93-1-4-3.44-3.93s-2.84 2.22-3.35 4.09a51.49 51.49 0 0 1 -3.75 10.45c-1-3.58-2-7.15-3-10.73-.52-1.92-1-4-3.48-3.92s-2.85 2.22-3.36 4.09c-1 3.53-1.9 7.05-3 11.32-2.24-4.31-2.55-8.32-3.82-12-.61-1.78-1.25-3.52-3.42-3.44-1.93.08-2.6 1.76-3.05 3.37a69.91 69.91 0 0 1 -3.87 11.45c-.82-2.91-1.54-5.85-2.48-8.72-.77-2.38-.42-6.09-4-6s-3.09 3.81-3.87 6.19c-.9 2.73-1.52 5.54-3.14 8.36-1-3.6-2.08-7.18-3-10.79-.51-2-1.16-4-3.5-3.88-2.06.07-2.69 2-3.17 3.76a53.28 53.28 0 0 1 -3.98 10.94c-1-3.6-1.93-7.2-2.94-10.79-.52-1.85-1-4-3.48-3.88s-2.81 2.3-3.24 4.17c-.65 2.88-1.18 5.79-1.84 8.67-.43 1.91-.31 3.89-3.32 4.37-2.6.41-1.05 3.2-1.25 4.92-.23 2 1.43 1.82 2.75 1.82h26.6q63.4 0 126.8 0c2.16 0 4.82-1 5.44 2.71 3 17.94 4.48 35.85-2.22 53.31-7.65 19.9-22.31 33.62-40.74 43.23-27.28 14.22-55.85 18.62-85.7 8.65a58.54 58.54 0 0 1 -19.66-10.84c-2.62-2.23-4.07-2.13-6.28.51-2.84 3.38.5 4 2 5.22 15.14 11.78 32.61 16.95 51.55 17.3 4 .07 5.22 1.36 5.75 5.09 2.49 17.54.82 34.79-3.49 51.83-.71 2.83-.25 4.21 2.3 5.57 5.06 2.71 9.94 5.76 15.14 8.81 1-2.86.76-5.52.89-8.11.08-1.84.79-3.18 2.58-3.69s3.07.59 3.85 2.17q9 18.29 18 36.57c.85 1.72 1.16 3.47-.49 4.85s-3.66 1.16-5.32-.05c-2.68-2-5.22-4.14-8.65-6.9 1.23 3.67 2.1 6.3 3 8.91a3.66 3.66 0 0 1 -1.46 4.66 3.85 3.85 0 0 1 -4.94-.19c-2.2-1.91-4.25-4-7.16-6.77.22 3.42.35 6 .56 8.48.2 2.33-.44 4.16-2.88 4.8a4.17 4.17 0 0 1 -5.2-2.29 80.06 80.06 0 0 1 -4.53-9.61c-2.77-8-9.06-13.26-14.92-19.6l-3.88 7.57c-22.53 43.9-57.34 72.43-105.55 84.07-2.85.68-4 1.62-3.8 4.58a80.65 80.65 0 0 1 -.19 10.19c-.19 2.79.43 3.62 3.43 2.8a36.11 36.11 0 0 1 20.14-.15c7.57 2.26 13.61 6.46 16.53 14.16 1.94 5.14 1.23 6.45-4 8-6.27 1.89-12.75 2.55-19.22 3-9.28.7-18.57 1.42-27.89 1.22-6.74-.15-9.81-2.78-10.34-9.44-.71-8.69-1.28-17.39-1.55-26.1-.11-3.59-1.44-4.33-4.77-4.15a213.59 213.59 0 0 1 -59.82-5.47c-4.2-1-5-2.75-4.35-6.62 1.13-6.84 2-13.74 2.69-20.64.86-8.11-3.36-12.29-11.51-11.59a27.84 27.84 0 0 0 -9.34 2.61c-4.8 2.25-7.85 5.53-7.51 11.31.19 3.38-.33 6.8-.2 10.18.16 3.79-1.22 3.7-4.07 2.3a158.32 158.32 0 0 1 -48.74-36.32 161.2 161.2 0 0 1 -29.19-45.72c-1.12-2.68-2.85-3.7-5.47-4.4q-42.8-11.42-85.56-23c-1.14-.31-2.29-.6-3.41-1-3.32-1.07-5.22-3.32-5.22-6.85s2.1-5.75 5.42-6.66c9.39-2.58 18.81-5.07 28.21-7.61 16.1-4.34 32.18-8.78 48.33-13 3-.78 3.78-2.06 3.84-5.08.88-38.54 15.2-71.8 39.86-101 1.79-2.11 3.48-2.59 6.15-1.78a42.17 42.17 0 0 1 20.93 14.21c4.56 5.62 9.6 5.1 13.18-1.29s1.92-14.27-4.4-18.87c-3.1-2.25-6.46-4.15-9.68-6.24-21.73-14.15-28.76-34.22-24.9-59.36 1.22-7.93 4.62-12.4 11.62-15.85 14.07-6.93 28.29-13.32 43.4-17.63a22 22 0 0 1 9.64-.77c6.29 1 7.75 4 4.55 9.51-6 10.23-11.58 20.59-15 32a51.93 51.93 0 0 0 -2 19.71c.28 3.16.93 4.4 4.53 2.68a138.43 138.43 0 0 1 48.38-13.51c3.64-.3 3.35-2.49 3.52-4.82a202.94 202.94 0 0 1 11.57-55.34c14.53-39.74 39.08-71.18 77.6-89.94 35.22-17.15 71.78-20.73 109.09-6.62 9.88 3.74 18.68 9.44 26.91 16.08 2.11 1.7 2.2 2.9.78 5.06-9.34 14.26-6 13.2 1.76 22.71 2.33 2.86 4.74 5.67 7 8.56 1.56 1.94 3.22 3.5 6 2.7s3.65-2.8 4.13-5.25l1.65-8.64zm-118.71 362.66 5.57 5.05c1.76 1.59 3.68 1.88 5.65.5s1.85-3.09.94-5.08c-1.17-2.55-2.12-5.19-3.19-7.79q-5.86-14.36-11.76-28.7c-.69-1.68-1.63-3.38-3.81-3-2 .35-2.81 1.92-2.94 3.9-.11 1.62-.48 3.22-.52 4.84-.06 2.83-1.07 2.87-3.14 1.43-7-4.89-14.13-9.7-21.23-14.49-5.07-3.42-9.85-3.18-13.17.54-5.31 6-5.34 8.61-.65 14.61 10 12.83 22.26 24.25 26.39 40.89a12.1 12.1 0 0 0 .86 2c.94 2 2.38 3.56 4.79 3s3.31-2.31 3.31-4.64v-9.09c2.77 3 4.66 5.26 6.72 7.31a4.13 4.13 0 0 0 5.3.63c1.94-1.08 1.85-2.86 1.44-4.66-.48-2.16-1.05-4.29-1.58-6.44zm7.74-298c-.29-2.68-1.74-4.44-4.49-4.48a4.19 4.19 0 0 0 -4.51 4.42 4.14 4.14 0 0 0 4.42 4.5c2.65.05 4.32-1.58 4.55-4.41z" fill="#4e4b4c"/><path d="m479.38 683.17c24.28 1.33 48.63 2.11 72.49 7.38 2.75.61 7.3.78 7.39 4.32.08 3.26-4.35 2.75-6.83 3.62-8.15 2.83-16.74 3.31-25.24 4.15-27.6 2.73-55.28 3.83-83 4.71-28.22.9-56.43.67-84.63.4-16.2-.16-32.45-.6-48.63-1.67-22.19-1.47-44.47-2.32-66.33-6.94a51.27 51.27 0 0 1 -5.5-1.69c-1.41-.47-3-1-3-2.76s1.62-2.27 3-2.8a75.71 75.71 0 0 1 18.56-4c16-1.8 31.91-3.81 48-3.83.57 1.33-.73 3.07.92 4.16a2.43 2.43 0 0 0 1.19 1.92l-.13-.18-.27 3 4.57-.08-.09-.05c.71 4 3.78 5.56 7.15 6.27a70.26 70.26 0 0 0 13.11 1.76c12.56.23 25.13.13 37.69.06 7.1 0 8.39-2.09 7.26-9-.61-3.67-3.94-6-4-9.66l2.67.73c.26.41.52.42.79 0 6.93-2.9 14-1.59 21.08-.77.7 2 1.39 4.1 2.09 6.16 0 2.79 1.21 4.44 4.19 4.4l.16.08c3.7 6.38 9.5 8.88 16.59 9 14.32.24 28.56-1.23 42.71-2.92 10.18-1.32 17.09-5.17 16.04-15.77z" fill="#893f3e"/><path d="m363.59 673.46a41.55 41.55 0 0 0 -21.71-7.27l-1.4-.69c-.73 1.4-2 .86-3.06.79.05-2.36 0-4.72.2-7.06s1.12-3.35 3.79-2.76c18 4 36.13 6.48 54.62 5.39a48.06 48.06 0 0 1 .75 10.64c-11.07.3-22.17-.75-33.19.96z" fill="#cf5c59"/><path d="m479.38 683.17c1.05 10.6-5.86 14.45-16.09 15.68-14.15 1.69-28.39 3.16-42.71 2.92-7.09-.12-12.89-2.62-16.59-9 4.25 3.2 9.23 2.87 14.1 2.74 13.8-.36 27.62-.78 41.23-3.44 5.94-1.16 12-2.46 14.71-9z" fill="#7d3d3c"/><path d="m396 661.86c-18.49 1.09-36.64-1.41-54.62-5.39-2.67-.59-3.61.5-3.79 2.76s-.15 4.7-.2 7.06a10.2 10.2 0 0 1 -1.25.42c-5.92 1.15-6.05 1-5.2-5 .45-3.21 1-6.43 1.22-9.66.16-2.57 1.34-2.91 3.47-2.36a214.4 214.4 0 0 0 57.52 6.38c4.85-.07 2.39 3.65 2.85 5.79z" fill="#be5956"/><path d="m373 682.16c.08 3.71 3.41 6 4 9.66 1.13 6.95-.16 9-7.26 9-12.56.07-25.13.17-37.69-.06a70.26 70.26 0 0 1 -13.05-1.76c-3.37-.71-6.44-2.29-7.15-6.27a273.36 273.36 0 0 0 49.45 1.92c10.91-.55 11.75-1.8 9.07-12.92l1.85.43a4.46 4.46 0 0 1 .78 0z" fill="#7e3f3d"/><path d="m373 682.16a4.46 4.46 0 0 0 -.82 0l-1.9-.59-6.7-8.15c11-1.71 22.12-.66 33.19-1q.38 4.82.77 9.63c-7.07-.82-14.15-2.13-21.08.77a3 3 0 0 1 -.79 0z" fill="#af4f4d"/><path d="m403.83 692.69c-3 0-4.19-1.61-4.19-4.4 1.36 1.46 2.79 2.93 4.19 4.4z" fill="#7d3d3c"/><path d="m311.91 692.82-4.56.08.27-3z" fill="#7e3f3d"/><path d="m307.74 690.11a2.43 2.43 0 0 1 -1.19-1.92z" fill="#7e3f3d"/><path d="m340.48 665.5 1.4.69c-.62.08-1.26.2-1.4-.69z" fill="#be5956"/><path d="m370.29 681.61 1.9.59-1.85-.43z" fill="#893f3e"/><path d="m490.27 571c.53 2.15 1.1 4.28 1.58 6.44.41 1.8.5 3.58-1.44 4.66a4.13 4.13 0 0 1 -5.3-.63c-2.06-2.05-3.95-4.28-6.72-7.31v9.09c0 2.33-1 4.11-3.31 4.64s-3.85-1-4.79-3a12.1 12.1 0 0 1 -.86-2c-4.13-16.64-16.35-28.06-26.39-40.89-4.69-6-4.66-8.65.65-14.61 3.32-3.72 8.1-4 13.17-.54 7.1 4.79 14.19 9.6 21.23 14.49 2.07 1.44 3.08 1.4 3.14-1.43 0-1.62.41-3.22.52-4.84.13-2 .92-3.55 2.94-3.9 2.18-.37 3.12 1.33 3.81 3q5.91 14.34 11.76 28.7c1.07 2.6 2 5.24 3.19 7.79.91 2 1 3.73-.94 5.08s-3.89 1.09-5.65-.5l-5.57-5.05c-.32-.23-.81-.73-.94-.65-.63.35-.35.92-.08 1.46z" fill="#fafafa"/><path d="m499 272.17c-.26 2.84-1.93 4.46-4.58 4.44a4.14 4.14 0 0 1 -4.42-4.5 4.19 4.19 0 0 1 4.51-4.42c2.78.04 4.23 1.8 4.49 4.48z" fill="#f1f0f0"/><path d="m375.68 682.89a3 3 0 0 0 .79 0c-.27.42-.53.41-.79 0z" fill="#7e3f3d"/><path d="m490.27 571c-.27-.52-.55-1.09.08-1.49.13-.08.62.42.94.65z" fill="#4e4b4c"/></svg>