<svg enable-background="new 0 0 144.6 73.7" viewBox="0 0 144.6 73.7" xmlns="http://www.w3.org/2000/svg" xmlns:xlink="http://www.w3.org/1999/xlink"><linearGradient id="a" gradientTransform="matrix(1 0 0 -1 0 73.8898)" gradientUnits="userSpaceOnUse" x1="50.38" x2="34.71" y1="44.8459" y2="44.8459"><stop offset="0" stop-color="#ed7777"/><stop offset="1" stop-color="#c30d23"/></linearGradient><radialGradient id="b" cx="53.04" cy="32.8298" gradientTransform="matrix(1 0 0 -1 0 73.8898)" gradientUnits="userSpaceOnUse" r="25"><stop offset=".36" stop-color="#ed7777"/><stop offset="1" stop-color="#c30d23"/></radialGradient><g fill="#333"><path d="m50.9 6.7c-.2 1-.5 2.4-.7 4.1l7.6.1-.1 7.5c2.6 1.6 4.9 3.8 6.6 6.4l.2-19.9-13.7-.2c.2.7.3 1.3.1 2z"/><path d="m47.5 65.2c.2-1.1.5-2.6.8-4.5l-7.7-.1.1-7.2c-2.6-1.7-4.9-3.9-6.6-6.4l-.2 14.3c0 3.2 2.5 5.9 5.8 5.9l8 .1c-.3-.7-.3-1.4-.2-2.1z"/><path d="m28.8 27.7c0-.1 0-.2 0-.3s0-.1 0-.1c0-.1 0-.2 0-.3 0-.5 0-.9.1-1.4 0-.2 0-.5.1-.7l.2-19.8-19.2-.2.1-4.8-5.8-.1-.1 4.8h-4.2v4.4h4.2l-.4 34.2c0 .5-.6 11.6 7.2 19.8l.6.6c-3 2.2-6.7 3.3-10.4 3.1v.8 3.7c6.4.1 11.7-1.1 15.9-3.5 4.6 2.4 9.8 3.8 15 3.9v-4.7c-3.7-.2-7.2-1.1-10.5-2.7 4.6-4.8 7-12 7.1-21.7l.1-13c0-.2 0-.4 0-.7 0-.4 0-.8 0-1.3zm-13.3 32c-5.9-6.7-5.9-15.5-5.9-15.5l.4-34.9 10.4.1-.4 33.4s.2 9.8-4.5 16.9z"/><path d="m103.9 51.9h2.6c3.2 0 5.8-2.5 5.8-5.7l.4-33.9-11-.1 1.9-4.1 9.2.1v-4.3l-35-.4-.4 46.9c0 2.3-.4 11.7-2 13.5-.5.6-1.2 1.2-1.9 1.6l-1 5.3v.1c.6 0 1.2-.1 1.7-.2 2.3-.3 4.4-1.5 5.8-3.4 5-6.7 4.9-20 4.9-20l.4-39.5 11 .1-1.9 4.2-5.1-.1-.4 39.7 8.4.1-.3 16.6c0-2.4-5-4.1-5-4.1 1-3 1.4-6.2 1.4-9.4h-4.2s-.1 7-4.7 10.6v5l5.4.1c2.7 0 6.9.8 7 2l6.7.1zm-9.2-4.6.1-12 7.9.1.1-6.7-7.9-.1.1-12 11.8.1-.3 30.8z"/><path d="m112.7 55.2-5.8-.1-.1 7.7c-.1 6.8 3.2 9.9 7.1 9.9v-4.2c-1.5 0-1.3-6.4-1.3-6.4z"/><path d="m115.2 3.9v4.2l10.1.1-1.9 4.1-7.3-.1-.5 48.5 7.5.1c-.4 1.6-2.8 5.5-7.3 8.5l4.5 4.2c5.5-3 7.9-9.3 7.9-9.3l-4.3-3.4 13.1.1c3.2 0 5.8-2.5 5.8-5.7l.5-42.8-12.5-.1 1.9-4.1 12 .1.1-4.2zm21 13.1-.4 39.6-14.3-.2.1-9.8 11 .1.1-4.8-11-.1.1-9.4 11 .1.1-4.8-11-.1.2-10.9z"/><path d="m137.4 63.1c-2.9 0-5.2 2.3-5.2 5.1 0 2.9 2.3 5.2 5.1 5.2 2.9 0 5.2-2.3 5.2-5.1.1-2.8-2.2-5.1-5.1-5.2z"/></g><path d="m46.6 29.1v-.1c0-7.6.7-15.2 2.1-22.7.2-.7-.1-1.3-.7-1.6-.2-.1-.5-.1-.7-.1-8.7 1.6-15.5 10.9-16.2 22.5 0 .5-.1.9-.1 1.4v.2.1.1s0 .2 0 .2v1.4c.4 11.6 7 21.1 15.7 22.9.2 0 .5 0 .7-.1.6-.3.9-.9.7-1.5-1.2-7.4-1.7-15-1.5-22.7z" fill="url(#a)"/><path d="m60.1 41.8c.1-15.3-9.1-23.3-9.1-23.3-.1.1-.2.1-.3.2-.4.3-.5.8-.4 1.3 0 .2.1.4.1.7.1.5.2 1 .3 1.7 0 .3.1.6.1 1 .2 1.4.4 3 .6 4.9.3 3.8.6 8.7.5 14.5v.2c-.1 5.8-.4 10.7-.8 14.5-.2 1.9-.4 3.5-.7 4.9-.1.3-.1.7-.2 1-.1.6-.2 1.2-.3 1.7 0 .2-.1.5-.1.7-.1.6.2 1.2.7 1.5 6-7.2 9.4-16.2 9.6-25.5z" fill="#781821"/><path d="m67.3 44.7c0-.5.1-.9.1-1.4 0-.1 0-.2 0-.2v-.1-.1c0-.1 0-.2 0-.2 0-.5 0-.9 0-1.4-.4-11.6-7-21.1-15.7-22.9-.2 0-.5 0-.7.1 0 0 9.3 8 9.1 23.3-.2 9.3-3.6 18.3-9.7 25.4l.5.1h.2c2.8-.5 5.3-1.8 7.5-3.6.5-.4.9-.8 1.3-1.2 4.2-4.2 7-10.5 7.4-17.8z" fill="url(#b)"/></svg>