<svg viewBox="0 0 144.59 73.65" xmlns="http://www.w3.org/2000/svg" xmlns:xlink="http://www.w3.org/1999/xlink"><linearGradient id="a" gradientUnits="userSpaceOnUse" x1="50.38" x2="34.71" y1="29.04" y2="29.04"><stop offset="0" stop-color="#ed7777"/><stop offset="1" stop-color="#c30d23"/></linearGradient><radialGradient id="b" cx="53.04" cy="41.06" gradientUnits="userSpaceOnUse" r="25"><stop offset=".36" stop-color="#ed7777"/><stop offset="1" stop-color="#c30d23"/></radialGradient><path d="m50.94 6.68c-.21 1-.47 2.42-.73 4.14l7.56.08-.09 7.53a22.15 22.15 0 0 1 6.64 6.36l.23-19.91-13.75-.15a3.67 3.67 0 0 1 .14 1.95z" fill="#fff"/><g fill="#f7f8f8"><path d="m47.52 65.17c.23-1.11.51-2.63.79-4.54l-7.7-.09.08-7.17a22.32 22.32 0 0 1 -6.64-6.44l-.16 14.27a5.85 5.85 0 0 0 5.79 5.92l8 .09a3.7 3.7 0 0 1 -.16-2.04z"/><path d="m28.83 27.69c0-.1 0-.18 0-.26s0-.1 0-.12a2.84 2.84 0 0 1 0-.34c0-.48 0-.94.06-1.4 0-.24.05-.47.07-.71l.22-19.79-19.18-.21.1-4.79-5.82-.07-.06 4.79h-4.17l-.05 4.43h4.17l-.38 34.17c0 .47-.56 11.56 7.19 19.85l.61.62a16.37 16.37 0 0 1 -10.36 3.14v.81 3.69c6.43.08 11.71-1.12 15.9-3.52a34.16 34.16 0 0 0 15 3.88v-4.68a26.52 26.52 0 0 1 -10.54-2.68c4.64-4.8 7-12 7.15-21.7l.14-13c0-.22 0-.44-.05-.66.02-.53 0-.98 0-1.45zm-13.37 32c-5.85-6.69-5.86-15.44-5.86-15.44l.4-34.92 10.37.12-.37 33.38s.2 9.78-4.54 16.9z"/><path d="m103.9 51.89h2.57a5.79 5.79 0 0 0 5.85-5.72l.38-33.93-11-.12 1.87-4.12 9.18.1v-4.16l-35-.39-.45 46.88c0 2.33-.4 11.74-2 13.5a6.3 6.3 0 0 1 -1.92 1.56l-1 5.28v.06a6.9 6.9 0 0 0 1.71-.19 8.7 8.7 0 0 0 5.84-3.39c5-6.74 4.93-20 4.93-20l.44-39.49 11 .12-1.9 4.18-5.13-.06-.44 39.72 8.36.09-.19 16.62c0-2.4-5-4.05-5-4.05a30.31 30.31 0 0 0 1.39-9.38h-4.16s-.08 7-4.69 10.58v5l5.43.06c2.72 0 6.93.78 7 2l6.71.07zm-9.21-4.58.13-12 7.92.09.08-6.71-7.92-.09.13-12 11.81.13-.35 30.77z"/><path d="m112.66 55.25-5.79-.07-.09 7.72c-.07 6.75 3.16 9.86 7.06 9.91v-4.19c-1.46 0-1.31-6.4-1.31-6.4z"/><path d="m115.19 3.94v4.22l10.1.11-1.87 4.13-7.29-.08-.54 48.53 7.48.08c-.45 1.57-2.77 5.5-7.35 8.54l4.48 4.18c5.48-3 7.91-9.27 7.91-9.27l-4.3-3.44 13.13.14a5.77 5.77 0 0 0 5.83-5.71l.48-42.76-12.5-.13 1.88-4.13 12 .14.05-4.22zm21 13.06-.44 39.62-14.27-.16.11-9.83 11 .09.06-4.76-11-.09.11-9.41 11 .09.05-4.75-11-.09.19-10.87z"/><path d="m137.4 63.13a5.18 5.18 0 1 0 5.12 5.24 5.18 5.18 0 0 0 -5.12-5.24z"/></g><path d="m46.63 29.14v-.14-.05a121.11 121.11 0 0 1 2.12-22.7 1.38 1.38 0 0 0 -.75-1.53 1.18 1.18 0 0 0 -.7-.11c-8.68 1.58-15.5 10.93-16.2 22.54 0 .45-.06.9-.06 1.36a2 2 0 0 0 0 .25.34.34 0 0 0 0 .1s0 .07 0 .11 0 .16 0 .24v1.37c.44 11.62 7 21.12 15.69 22.89a1.15 1.15 0 0 0 .71-.09 1.38 1.38 0 0 0 .73-1.5 121.83 121.83 0 0 1 -1.6-22.74z" fill="url(#a)"/><path d="m60.08 41.76c.17-15.23-9.08-23.28-9.08-23.28a1.31 1.31 0 0 0 -.34.24 1.39 1.39 0 0 0 -.43 1.28c0 .21.08.44.12.68.08.49.17 1 .26 1.66 0 .32.1.64.14 1 .19 1.38.39 3 .56 4.94.34 3.81.58 8.66.52 14.47v.22c-.07 5.81-.42 10.65-.85 14.46-.21 1.9-.44 3.55-.66 4.92-.06.35-.11.67-.17 1-.1.62-.21 1.18-.3 1.66-.05.24-.09.47-.13.67a1.38 1.38 0 0 0 .7 1.52 40.76 40.76 0 0 0 9.66-25.44z" fill="#781821"/><path d="m67.32 44.71c0-.45.06-.91.06-1.36a2.29 2.29 0 0 0 0-.25.4.4 0 0 1 0-.11v-.1c0-.08 0-.16 0-.25 0-.45 0-.91 0-1.36-.44-11.62-7-21.12-15.69-22.89a1.15 1.15 0 0 0 -.71.09s9.29 8.05 9.12 23.28a40.76 40.76 0 0 1 -9.66 25.38l.49.11a.74.74 0 0 0 .21 0 16.24 16.24 0 0 0 7.46-3.58 16 16 0 0 0 1.29-1.18c4.16-4.15 6.99-10.49 7.43-17.78z" fill="url(#b)"/></svg>